<?xml version="1.0" encoding="UTF-8" standalone="no"?>
<svg
   xmlns:dc="http://purl.org/dc/elements/1.1/"
   xmlns:cc="http://creativecommons.org/ns#"
   xmlns:rdf="http://www.w3.org/1999/02/22-rdf-syntax-ns#"
   xmlns:svg="http://www.w3.org/2000/svg"
   xmlns="http://www.w3.org/2000/svg"
   xmlns:sodipodi="http://sodipodi.sourceforge.net/DTD/sodipodi-0.dtd"
   xmlns:inkscape="http://www.inkscape.org/namespaces/inkscape"
   width="900"
   height="900"
   version="1.1"
   id="svg2"
   inkscape:version="0.48.5 r10040"
   sodipodi:docname="section_31.svg">
  <metadata
     id="metadata58">
    <rdf:RDF>
      <cc:Work
         rdf:about="">
        <dc:format>image/svg+xml</dc:format>
        <dc:type
           rdf:resource="http://purl.org/dc/dcmitype/StillImage" />
      </cc:Work>
    </rdf:RDF>
  </metadata>
  <sodipodi:namedview
     pagecolor="#ffffff"
     bordercolor="#666666"
     borderopacity="1"
     objecttolerance="10"
     gridtolerance="10"
     guidetolerance="10"
     inkscape:pageopacity="0"
     inkscape:pageshadow="2"
     inkscape:window-width="640"
     inkscape:window-height="480"
     id="namedview56"
     showgrid="false"
     inkscape:zoom="0.21851852"
     inkscape:cx="425.3337"
     inkscape:cy="206.68149"
     inkscape:window-x="0"
     inkscape:window-y="0"
     inkscape:window-maximized="0"
     inkscape:current-layer="svg2" />
  <defs
     id="defs4" />
  <path
     id="0"
     d="m 104.3337,472.05132 c -21.099999,10.5 -42.199999,21.2 -63.099999,32 -8.3,4.4 -13.5,7.1 -15.6,8 -4.5,1.9 -13.2,3.2 -19.3000001,-1.5 -1.9,-1.4 -6.89999996,-6.8 -5.69999996,-14.6 0.3,-1.6 1.59999996,-5.7 5.49999996,-9.6 3.4,-3.3 12.6000001,-8.6 15.8000001,-10.6 6.4,-4.3 26.8,-20 61,-47.2 -17.1,-42.6 -21.5,-84 -21.5,-112.7 0,-10.8 0.2,-56.1 19.3,-107.1 6.3,-16.9 22.399999,-58.2 63.399999,-102.4 18,-19.299995 46.6,-44.599995 84,-64.499995 10.9,-5.8 57.2,-29.9 119.1,-36.0000001 16.8,-1.7 57.6,-5.50000006 112.1,8.2000001 45.1,11.4 97,36.2 136.7,73.3 17.4,-9 27.7,-14.3 30.7,-15.9 1.1,-0.6 13.8,-8.1 23.6,-7.4 5.4,0.4 7.6,1.9 12.2,5.9 1.2,1.1 7.6,5.8 9,14.1 2.4,14.8 -2.7,22.499995 -6.5,36.999995 -0.7,2.5 -1.1,5.9 -1.8,8.3 -0.5,1.5 -1.6,3.4 -2.1,5 -0.5,1.6 -0.8,3.9 -1.4,5.5 -0.4,1.3 -1.5,2.8 -1.9,4.2 -0.3,1 -0.3,2.5 -0.6,3.6 -0.4,1.4 -1.1,3.3 -1.6,4.7 -0.1,0.3 -1.4,3.6 -1.7,5.2 13.5,23.1 36.4,66.8 42.6,126.5 1.9,18.7 6.3,64.9 -12.7,124.5 -7.3,23 -23.4,64 -58.4,105.5 -15.6,18.5 -46,50.4 -94,75.9 -32.7,17.4 -127.9,59.7 -246.3,23.6 -23.3,-7.1 -65.1,-22.7 -107.8,-57.2 -8.7,-7 -44.7,-36.2 -73,-84.3 z"
     inkscape:connector-curvature="0"
     style="fill:#ffffff;fill-opacity:1;fill-rule:evenodd;stroke:#ffffff;stroke-width:0.89999998;stroke-linecap:round;stroke-linejoin:round;stroke-opacity:1" />
  <path
     id="path7"
     d="m 341.7337,628.05132 c -52.5,-7.1 -56.5,-8.5 -110.2,-33.7 -3.7,-1.7 -5.5,-2.7 -8.9,-4.9 -12.2,-7.5 -26.2,-15.8 -30.3,-19.3 -0.8,-0.7 -2.3,-1.8 -3.4,-2.5 -6.6,-3.9 -33.4,-27.8 -42.6,-37.9 -2.1,-2.3 -5.1,-5.6 -6.8,-7.4 -5.2,-5.4 -17.9,-20.8 -17.9,-21.7 0,-0.4 -0.4,-1.2 -0.9,-1.7 -0.5,-0.6 -12.2,-17.6 -12.2,-19.4 0,-4.5 9,-8.7 14.3,-6.8 0.8,0.2 2.9,2.7 4.6,5.5 1.8,2.7 11.7,16.5 13.8,18.9 2.2,2.4 13.6,15.5 13.6,15.9 0,2.3 32.1,31.5 43.2,39.3 0.5,0.3 2.7,1.9 4.8,3.5 5.5,4 27.7,20 47.2,27.4 11.9,4.5 14.4,6.4 15.4,6.4 0.5,0 1.4,0.6 2,1.2 0.6,0.6 38.7,12.7 40.7,12.7 1.9,0 16.4,3.9 34.9,6.1 13.8,1.7 56.2,1.7 70.8,-0.1 12.5,-1.5 13,-1.3 14.4,4.3 1.3,5.2 1,9.7 -0.7,11.1 -0.9,0.7 -3.9,1.5 -6.8,1.8 -2.9,0.3 -48.1,5.5 -79,1.3 z"
     inkscape:connector-curvature="0"
     style="fill:#000000;fill-opacity:1;fill-rule:evenodd;stroke:#ffffff;stroke-width:0.89999998;stroke-linecap:round;stroke-linejoin:round;stroke-opacity:1" />
  <path
     id="path9"
     d="m 459.4337,615.25132 c -0.7,-1.1 -0.5,-2.2 0.6,-4 8.1,-13.4 11.2,-16.7 17,-17.5 2,-0.3 2.1,-0.7 3.5,-1.2 26.6,-8.5 26.8,-11.6 54.6,-27.5 8.5,-4.9 15.9,-10.7 20.2,-14.1 0.7,-0.5 3.9,-3 7.1,-5.4 9.9,-7.5 8.9,-6.7 21.1,-18.5 12.8,-12.3 9.3,-7.9 14.3,-14.2 14.4,-18.1 23.3,-27.4 34.2,-46.7 6.4,-11.3 10.7,-18.6 15.2,-28.8 1.3,-2.9 2.8,-5.9 3.3,-6.8 2.5,-4 8.5,-23.8 13.5,-39.7 8.7,-27.4 7,-26.7 10.2,-44.5 0.8,-4 -0.4,-57.7 -0.9,-63.1 -1.6,-20.5 -4,-37.4 -6,-40.6 -0.4,-0.5 -1.1,-3.5 -1.7,-6.4 -1.5,-8 -4.3,-18.1 -5.2,-19.2 -0.5,-0.5 -1.1,-2.3 -1.4,-3.8 -0.6,-3 -2.5,-8.1 -6.1,-16.8 -2.8,-6.6 -3.1,-7.4 -6.1,-13.7 -1.4,-3 -2.8,-6.4 -3.1,-7.5 -0.7,-2.8 4.1,-17.5 6.5,-20 0.9,-0.9 1.4,-0.8 3.2,0.3 2.1,1.3 7.4,12 8.7,15.1 1.3,3 2.8,5.7 4.1,9.8 9.4,29.2 16.7,43.4 22.7,73.3 4.9,23.8 4.8,32.5 4.4,61.1 -0.3,23.6 -1.4,38.6 -4,51.7 -0.8,4 -1.9,9.7 -2.5,12.6 -0.5,2.9 -1.5,7.1 -2.2,9.4 -0.7,2.2 -1.7,5.9 -2.2,8.1 -0.5,2.2 -2,7.3 -3.3,11.4 -1.4,4 -2.9,8.7 -3.4,10.5 -0.5,1.8 -1.6,4.2 -2.6,6.9 -15,41.2 -34.5,65.1 -60.5,97.9 -2.7,3.5 -4.2,4.3 -7.6,8.1 -9,10 -26.6,25.5 -40.5,35.7 -15.8,11.6 -21.9,15.7 -23.3,15.6 -0.6,0 -1.1,0.4 -1.1,0.8 0,0.5 -25.6,18.1 -56.9,27.4 -8.2,2.4 -12.4,4.4 -20.6,5.9 -1.4,0.2 -2.7,-0.7 -3.2,-1.6 z"
     inkscape:connector-curvature="0"
     style="fill:#000000;fill-opacity:1;fill-rule:evenodd;stroke:#ffffff;stroke-width:0.89999998;stroke-linecap:round;stroke-linejoin:round;stroke-opacity:1" />
  <path
     id="path11"
     d="m 450.7337,601.25132 c -1.4,-1.4 -1.4,-2.3 -0.5,-9.6 0.5,-4.4 36.4,-194.9 37,-196.6 1.5,-3.6 3.1,-13.5 3.8,-22.5 0.9,-13.7 -4,-21.7 -16.3,-26.3 -6.5,-2.4 -6.7,-2.4 -24.5,-2.4 -20.5,0 -23.2,2.9 -38.1,7.2 -177.4,50.5 -192.5,60.6 -344.599999,122.7 -5.8,2.4 -51.8,26.4 -52.8,27.3 -2.2,1.8 -7.5000001,2.2 -9.5000001,0.6 -0.7,-0.6 -1.3,-2 -1.3,-3.3 0,-2.3 3.1,-5.3 8.8000001,-8.5 1.6,-0.9 3.9,-2.2 5.1,-2.9 1.2,-0.6 66.9,-52.6 73.8,-57.5 295.799999,-211.6 322.699999,-211 538.199999,-351.099995 1.6,-1 2.6,-0.7 4.4,-1.6 1.8,-0.9 4.7,-1.7 6.5,-1.7 2.7,0 3.9,0.7 7.2,3.8 2.2,2 4.3,4.6 4.6,5.7 1,4 0.5,19.299995 -1.1,21.399995 -0.8,1.1 -188.5,487.6 -189.4,489.4 -5.4,9.7 -8.8,8.5 -11.3,5.9 z"
     inkscape:connector-curvature="0"
     style="fill:#000000;fill-opacity:1;fill-rule:evenodd;stroke:#ffffff;stroke-width:0.89999998;stroke-linecap:round;stroke-linejoin:round;stroke-opacity:1" />
  <path
     id="path13"
     d="m 263.9337,578.25132 c -3.8,-1.5 -5.5,-2.8 -9.1,-4.7 -10.1,-5.4 -16.5,-8.3 -25,-13.6 -28,-17.6 -52.8,-39 -71.5,-61.7 -9.5,-11.5 -21.4,-28.3 -21.4,-30.1 0,-2 73,-34.2 75.3,-35.1 4.1,-1.6 4.3,-1.6 6.3,-0.2 2.3,1.8 7,9.6 12.9,14.5 27.5,22.9 48.3,35.6 64.5,45.7 31.1,19.5 60,20.3 120.3,17.4 13.5,-0.6 33.5,-6.9 32.9,-2.9 -0.3,2.3 -14.4,79.6 -14.4,81.2 0,9.4 -2.9,11.3 -19.2,12.4 -6,0.4 -11.5,1.3 -12.3,1.3 -49.7,0.2 -78.1,0 -139.3,-24.2 z m 126.1,-11.3 c -0.5,-0.9 -0.9,-3.1 -0.9,-4.9 0,-2.6 0.5,-3.6 2.6,-5.3 1.5,-1.2 3.7,-2.4 4.8,-2.6 3.3,-0.8 2.6,-2.7 -1.1,-3.2 -6.3,-1 -7.3,-1.3 -9,-2.9 -1.2,-1.1 -1.7,-2.7 -1.7,-5.5 0,-2.1 -0.3,-4.7 -0.6,-5.7 -0.4,-1.6 -0.9,-1.2 -3.2,3.3 -4.1,7.8 -4.3,7.9 -10.7,7.9 -3,0 -5.7,0.3 -5.9,0.7 -0.3,0.4 1.3,2.1 3.4,3.7 3.4,2.7 3.9,3.5 3.9,6.3 0,2 -0.7,4.1 -1.9,5.6 -1.2,1.5 -1.6,2.9 -1.2,4.1 0.6,1.7 0.7,1.7 3.9,-0.8 1.9,-1.3 4.6,-2.7 6.1,-2.9 2.3,-0.5 3.1,-0.1 5.8,2.4 4.5,4.2 6,4.9 6.3,3 0.2,-0.9 -0.1,-2.3 -0.6,-3.2 z m -67.7,-10.3 c 0.8,-3.5 4.1,-6.1 8.8,-6.7 0,0 4.5,-0.6 4.5,-0.6 0,0 -1.7,-2 -1.7,-2 -1,-1.2 -3,-2.2 -4.9,-2.5 -4.4,-0.6 -5.7,-3 -5.1,-9.6 0.5,-5.4 -0.2,-6.7 -2.3,-4.5 -7.2,7.5 -7.5,7.7 -10.5,7.1 -1.5,-0.3 -3.4,-1 -4.1,-1.6 -1.9,-1.5 -5,-2.2 -5.6,-1.3 -0.3,0.4 0.3,1.8 1.4,3.1 1.1,1.2 2.7,3.6 3.6,5.3 1.6,3 1.6,3 -0.3,5.9 -1,1.6 -2.2,2.9 -2.6,2.9 -1.3,0 -3.6,4.9 -2.4,5 2,0.2 3.7,-0.2 6.3,-1.4 3.9,-1.9 6.7,-0.5 10.1,5.1 0,0 3,4.8 3,4.8 0,0 0.7,-3.7 0.7,-3.7 0.4,-2 0.9,-4.4 1.1,-5.3 z m -63.8,-20.2 c 2,-6.9 3.5,-7.9 11,-7.9 0,0 6.2,0 6.2,0 0,0 -2.7,-2.5 -2.7,-2.5 -1.4,-1.3 -2.9,-2.4 -3.4,-2.4 -0.4,0 -1.6,-1.1 -2.6,-2.4 -2.2,-2.8 -2.6,-6.8 -0.8,-8.2 1.4,-1 2.6,-5.5 1.9,-6.6 -0.3,-0.4 -2.9,0.9 -5.9,2.9 -2.9,2 -5.6,3.7 -5.9,3.7 -0.8,0 -4.8,-3 -7.5,-5.5 -2.2,-2.1 -3.9,-2.4 -3.8,-0.9 0,0.6 0.5,3.4 1.1,6.2 1.1,4.6 1,5.3 -0.4,7.5 -0.9,1.4 -2.6,2.9 -3.8,3.4 -1.2,0.5 -2.8,1.8 -3.5,2.9 0,0 -1.3,1.9 -1.3,1.9 0,0 5.2,0 5.2,0 6.4,0 9.3,0.9 10.1,3.4 1,3.4 4.3,10.6 4.5,9.9 0.1,-0.4 0.8,-2.8 1.6,-5.4 z m -54.2,-41.3 c 2.5,-3.5 3,-3.8 6.7,-4 2.6,-0.1 4.5,0.2 5.3,0.9 1.4,1.3 5.4,2.4 6.2,1.7 0.3,-0.3 -0.9,-2.2 -2.8,-4.3 -1.8,-2.1 -3.7,-4.4 -4.2,-5.3 -1,-1.8 0,-7 1.5,-7.8 1.9,-1.1 3.7,-5.2 2.5,-5.8 -1.1,-0.7 -5.6,0.4 -7.3,1.7 -1.9,1.4 -5.3,0.1 -8.2,-3.3 -1.5,-1.7 -2.7,-3.5 -2.7,-4 0,-0.5 -0.8,-0.9 -1.7,-0.9 -1.4,0 -1.6,0.5 -1.1,5.3 0.3,3.5 0.1,5.7 -0.7,6.5 -1,1.2 -5.5,3.3 -11.1,5.3 -1.6,0.6 -2.7,1.3 -2.5,1.6 0.2,0.4 2.6,1.1 5.3,1.6 2.7,0.6 5.9,1.9 7.1,2.9 2.1,1.7 2.3,2.4 2.2,7.4 -0.1,6.2 0.6,8.1 2,5.8 0.5,-0.9 2.1,-3.2 3.5,-5.3 z"
     inkscape:connector-curvature="0"
     style="fill:#000000;fill-opacity:1;fill-rule:evenodd;stroke:#ffffff;stroke-width:0.89999998;stroke-linecap:round;stroke-linejoin:round;stroke-opacity:1" />
  <path
     id="path15"
     d="m 484.9337,576.55132 c -1.8,-1.6 150.4,-376.4 152.7,-375.5 1.6,0.6 5.5,7.8 5.5,10.3 0,0.9 11.3,32.1 12.1,34.5 1.7,5.5 3.4,14.8 5,24.8 5.3,33.8 2.4,43.9 2.9,73.1 0.1,5.5 -1.1,12.8 -1.5,13.6 -0.5,0.8 -1.1,3.9 -1.4,6.9 -0.7,6.7 -4.6,25.3 -5.5,26.4 -0.4,0.4 -11.6,32.5 -11.6,33 0,1.2 -1.9,5.2 -9.1,19.4 -3.3,6.4 -4.9,9.4 -5.9,10.8 -0.5,0.7 -22.9,34.5 -23.6,35.4 -3.3,4.1 -14.8,17.4 -17.5,20.2 -7.9,7.9 -18,17.3 -21.7,20.1 -2.2,1.7 -4.8,3.8 -5.8,4.7 -2.2,2 -40.2,26.8 -41.5,27.7 -1.2,0.9 -5.7,3.3 -9.9,5.3 -4.2,2 -8.6,4.2 -9.7,4.9 -3.3,2 -12,5.8 -13.5,4.4 z"
     inkscape:connector-curvature="0"
     style="fill:#000000;fill-opacity:1;fill-rule:evenodd;stroke:#ffffff;stroke-width:0.89999998;stroke-linecap:round;stroke-linejoin:round;stroke-opacity:1" />
  <path
     id="path17"
     d="m 344.2337,499.05132 c -9.2,-2 -27.7,-7.3 -28.5,-7.5 -2.2,-0.7 -43.6,-20 -75,-47.7 -3.7,-3.3 -5.8,-4.8 -8.8,-8.8 -2.6,-3.3 -5.1,-8.5 -5.1,-9.4 0,-0.6 23.3,-9.5 24.3,-9.5 0.9,0 185.5,-57.1 193.7,-56.8 18.8,0.6 22.1,11.9 22.1,19.4 0,2.2 -0.4,5.5 -0.8,7.5 -1.4,5.6 -20.3,103.9 -27.6,105.4 -1.4,0.3 -23.3,22.6 -94.3,7.4 z"
     inkscape:connector-curvature="0"
     style="fill:#3c3cff;fill-opacity:1;fill-rule:evenodd;stroke:#ffffff;stroke-width:0.89999998;stroke-linecap:round;stroke-linejoin:round;stroke-opacity:1" />
  <g
     id="Group ID: 1"
     transform="translate(-114.6663,-116.54868)">
    <path
       id="path20"
       d="m 512.3,605.5 c 2,-2.6 1.3,-6.5 -1.5,-8.4 -3,-2 -3.7,-2 -7,-0.4 -6.6,3.1 -2.7,11.8 4.8,10.6 1.4,-0.3 3.1,-1.1 3.7,-1.8 z"
       inkscape:connector-curvature="0"
       style="fill:#ffffff;fill-opacity:1;fill-rule:evenodd;stroke:#ffffff;stroke-width:0.89999998;stroke-linecap:round;stroke-linejoin:round;stroke-opacity:1" />
    <path
       id="path22"
       d="m 476.2,588.7 c 1.4,-2 0.3,-4.9 -2,-5.6 -3.7,-1.2 -6.9,0.4 -6.9,3.3 0,1.5 0.6,2.8 1.5,3.3 1.8,1.1 6.4,0.4 7.4,-1 z"
       inkscape:connector-curvature="0"
       style="fill:#ffffff;fill-opacity:1;fill-rule:evenodd;stroke:#ffffff;stroke-width:0.89999998;stroke-linecap:round;stroke-linejoin:round;stroke-opacity:1" />
    <path
       id="path24"
       d="m 540.5,587 c 1,-2 1,-2.5 -0.3,-3.7 -2.4,-2.6 -7.6,-0.6 -6.8,2.6 1.2,4.5 5.1,5.1 7.1,1.1 z"
       inkscape:connector-curvature="0"
       style="fill:#ffffff;fill-opacity:1;fill-rule:evenodd;stroke:#ffffff;stroke-width:0.89999998;stroke-linecap:round;stroke-linejoin:round;stroke-opacity:1" />
    <path
       id="path26"
       d="m 526.6,584.3 c 2.5,-3 2.3,-6.4 -0.5,-8.9 -1.3,-1.1 -2.9,-2 -3.6,-2 -2.2,0 -6.1,3.2 -6.6,5.5 -1.2,6.2 6.7,10.2 10.7,5.4 z"
       inkscape:connector-curvature="0"
       style="fill:#ffffff;fill-opacity:1;fill-rule:evenodd;stroke:#ffffff;stroke-width:0.89999998;stroke-linecap:round;stroke-linejoin:round;stroke-opacity:1" />
    <path
       id="path28"
       d="m 549.3,567 c 1.7,-1 1.7,-6.6 0,-7.6 -2.1,-1.3 -5.6,-0.2 -6.7,2.1 -0.8,1.6 -0.6,2.3 0.9,4.1 1.9,2.2 3.7,2.6 5.8,1.4 z"
       inkscape:connector-curvature="0"
       style="fill:#ffffff;fill-opacity:1;fill-rule:evenodd;stroke:#ffffff;stroke-width:0.89999998;stroke-linecap:round;stroke-linejoin:round;stroke-opacity:1" />
    <path
       id="path30"
       d="m 441.1,556.1 c 0,-7.2 5.4,-11.8 14.9,-12.9 3.5,-0.4 6.5,-0.9 6.7,-1.1 0.2,-0.1 -1.8,-0.8 -4.3,-1.3 -6.8,-1.5 -11.3,-3.6 -14.2,-6.4 -2.2,-2.2 -2.6,-3.4 -2.9,-8.1 -0.6,-9.4 -3.1,-9 -5.1,0.7 -1.6,7.9 -3.8,10 -13.6,13 0,0 -7.3,2.2 -7.3,2.2 0,0 4.4,0.6 4.4,0.6 8.1,1.1 9,1.4 12.4,4.4 2.7,2.3 3.6,3.8 4.1,6.7 0.8,4.6 3,8 4.1,6.4 0.4,-0.6 0.8,-2.5 0.8,-4.2 z"
       inkscape:connector-curvature="0"
       style="fill:#ffffff;fill-opacity:1;fill-rule:evenodd;stroke:#ffffff;stroke-width:0.89999998;stroke-linecap:round;stroke-linejoin:round;stroke-opacity:1" />
    <path
       id="path32"
       d="m 515.7,551 c 1.8,-2.5 1.7,-4.4 -0.1,-6.2 -4.1,-4.3 -10.3,1.5 -6.7,6.2 2.1,2.6 5,2.6 6.8,0 z"
       inkscape:connector-curvature="0"
       style="fill:#ffffff;fill-opacity:1;fill-rule:evenodd;stroke:#ffffff;stroke-width:0.89999998;stroke-linecap:round;stroke-linejoin:round;stroke-opacity:1" />
    <path
       id="path34"
       d="m 519.2,536.2 c 3,-1.1 0.7,-8.4 -2.7,-8.4 -3.5,0 -6.1,5.6 -3.6,8 1.1,1 4.1,1.2 6.3,0.4 z"
       inkscape:connector-curvature="0"
       style="fill:#ffffff;fill-opacity:1;fill-rule:evenodd;stroke:#ffffff;stroke-width:0.89999998;stroke-linecap:round;stroke-linejoin:round;stroke-opacity:1" />
    <path
       id="path36"
       d="m 555.2,531.7 c 2.6,-2.3 2.6,-4 0,-6.3 -1.5,-1.3 -2.7,-1.7 -4.3,-1.3 -3.3,0.8 -4.4,5.7 -1.9,8.1 1.9,1.7 3.8,1.6 6.2,-0.5 z"
       inkscape:connector-curvature="0"
       style="fill:#ffffff;fill-opacity:1;fill-rule:evenodd;stroke:#ffffff;stroke-width:0.89999998;stroke-linecap:round;stroke-linejoin:round;stroke-opacity:1" />
    <path
       id="path38"
       d="m 487.9,521.9 c 0.8,-3.2 1.1,-3.5 3.3,-3.2 4.9,0.5 7.5,-4.6 4.4,-8.7 -1.5,-2 -4.6,-2.4 -6.3,-0.8 -0.6,0.5 -1.1,2.2 -1.1,3.8 0,4.1 -0.9,5.2 -3.5,4.3 -2.6,-0.9 -5.6,0 -6.8,2.1 -1.3,2.3 -0.2,5.8 2.4,7.1 3.5,1.7 6.4,-0.1 7.6,-4.6 z"
       inkscape:connector-curvature="0"
       style="fill:#ffffff;fill-opacity:1;fill-rule:evenodd;stroke:#ffffff;stroke-width:0.89999998;stroke-linecap:round;stroke-linejoin:round;stroke-opacity:1" />
    <path
       id="path40"
       d="m 461.6,520.8 c 1.4,-1.4 1.8,-5 0.7,-6.6 -1.6,-2.1 -4.6,-2.9 -7,-1.8 -3,1.3 -3.8,6.2 -1.5,8.3 1.8,1.7 6,1.7 7.8,0.1 z"
       inkscape:connector-curvature="0"
       style="fill:#ffffff;fill-opacity:1;fill-rule:evenodd;stroke:#ffffff;stroke-width:0.89999998;stroke-linecap:round;stroke-linejoin:round;stroke-opacity:1" />
    <path
       id="path42"
       d="m 534.1,518.3 c 3.8,-1.4 3.2,-7.9 -0.8,-8.8 -4.9,-1.1 -8.2,3.3 -5.4,7.3 1.4,2 3.4,2.5 6.2,1.5 z"
       inkscape:connector-curvature="0"
       style="fill:#ffffff;fill-opacity:1;fill-rule:evenodd;stroke:#ffffff;stroke-width:0.89999998;stroke-linecap:round;stroke-linejoin:round;stroke-opacity:1" />
    <path
       id="path44"
       d="m 513.9,515.8 c 0.8,-0.2 2.1,-1.7 2.8,-3.2 1.3,-2.4 1.3,-2.9 -0.1,-5.6 -2.6,-5.1 -8,-6.3 -11.6,-2.6 -3.1,3 -3.3,6.3 -0.6,9.3 2.3,2.6 5.9,3.4 9.5,2.1 z"
       inkscape:connector-curvature="0"
       style="fill:#ffffff;fill-opacity:1;fill-rule:evenodd;stroke:#ffffff;stroke-width:0.89999998;stroke-linecap:round;stroke-linejoin:round;stroke-opacity:1" />
    <path
       id="path46"
       d="m 563,512.3 c 1.5,0 3.8,-4.2 3.8,-6.7 0,-2.9 -3.9,-6.4 -7.1,-6.4 -3.4,0 -7.7,3.6 -7.7,6.4 0,4 4.8,7.9 8.6,7 0.6,-0.2 1.7,-0.3 2.4,-0.3 z"
       inkscape:connector-curvature="0"
       style="fill:#ffffff;fill-opacity:1;fill-rule:evenodd;stroke:#ffffff;stroke-width:0.89999998;stroke-linecap:round;stroke-linejoin:round;stroke-opacity:1" />
    <path
       id="path48"
       d="m 533.8,496.2 c 2.5,-2.7 2.5,-3.4 0.2,-5.9 -3,-3.3 -5.5,-3.2 -7.9,0.3 0,0 -2,2.8 -2,2.8 0,0 1.8,2.1 1.8,2.1 2.1,2.5 6,2.8 7.9,0.7 z"
       inkscape:connector-curvature="0"
       style="fill:#ffffff;fill-opacity:1;fill-rule:evenodd;stroke:#ffffff;stroke-width:0.89999998;stroke-linecap:round;stroke-linejoin:round;stroke-opacity:1" />
  </g>
  <path
     id="path50"
     d="m 70.233701,428.95132 c -1.9,-0.3 -3.8,-3.3 -3.8,-5.7 0,-0.7 -0.6,-2.2 -1.3,-3.4 -1.5,-2.6 -11.6,-41.6 -14.6,-69.9 -2.6,-25.1 -0.2,-38.2 0.5,-63.6 0.2,-6 1.5,-9.8 1.8,-14.9 0.4,-5.3 6.9,-32.9 13.6,-54 11.5,-36 18.6,-49.5 38.299999,-77.4 22.1,-31.3 39.5,-42.499995 66.2,-70.599995 2,-2 3.3,-2.8 5.5,-4.6 0.6,-0.5 40.6,-30 86.6,-47.2 22.5,-8.5000001 39.6,-11.6000001 73.4,-14.8000001 1.1,-0.1 38.2,-4.7 62.8,-0.9 38.4,5.9 58.7,10.5000001 94.6,25.2000001 31.2,12.8 38.3,21.1 73.1,43.4 8.8,5.7 18.4,15.3 19.7,17.5 1.6,2.6 1.4,3.4 -1.3,4.7 -1.3,0.6 -7.9,4.3 -9.6,4.8 -3.6,0.9 -4.7,0.4 -10.5,-4.6 -7.9,-7 -23.1,-18.4 -32.5,-24.4 -4.1,-2.6 -45.8,-24.8 -46.5,-24.8 -0.3,0 -4.1,-1.9 -8.7,-3.7 -33.6,-13.1 -38.1,-16.3 -70.1,-20.4 -28,-3.7 -52.1,-2.9 -85.8,0.8 -51.1,5.7 -84.8,24.2 -116,47.3 -16.7,12.4 -33.9,22.7 -48.5,37.699995 -17.5,18 -28.1,30.4 -40.1,48.7 -1.7,2.6 -3.9,6 -5,7.5 -1.1,1.6 -2,3.2 -2,3.6 0,0.4 -19.799999,23.1 -38.399999,102 -0.6,2.6 -0.6,6.4 -1.3,8.4 -2,5.4 -3,20.9 -3.1,44.2 0,21.7 1.2,40.3 2.8,43 0.1,0.2 0.4,1.6 0.9,3.8 2.6,11.2 9.4,43.3 9.9,44.6 0.7,1.5 1.3,4.3 1.3,6.3 0,3 -0.5,4.2 -2.9,6.5 -3.6,3.6 -6.7,5.2 -9,4.9 z"
     inkscape:connector-curvature="0"
     style="fill:#000000;fill-opacity:1;fill-rule:evenodd;stroke:#ffffff;stroke-width:0.89999998;stroke-linecap:round;stroke-linejoin:round;stroke-opacity:1" />
  <path
     id="path52"
     d="m 175.9337,340.95132 c -2.6,-1.5 -3.6,-23.2 -1.8,-39.9 1,-10.2 4.2,-25.9 6.7,-33.5 5.9,-17.6 7.1,-20.4 17.4,-40 6.7,-12.7 16.2,-24.5 16.2,-24.9 0,-3 35.9,-36.9 42.7,-40.3 1.1,-0.5 3.2,-2 4.6,-3.1 3.6,-3 31.8,-17.2 34.4,-17.3 0.4,0 2.8,-0.9 5.2,-2 2.4,-1.2 4.8,-2.1 5.3,-2.1 0.6,0 30.2,-7.1 34.1,-7.8 14.4,-2.5 58,-0.3 65.4,3.3 1.4,0.7 3.9,1.3 5.5,1.3 1.5,0 28,9.9 34.9,13.2 12.1,5.7 12.5,6 12.2,8.3 -0.2,2.4 -2.7,4.3 -10.7,8.2 -3.1,1.5 -260.6,170 -262.6,172 -4.3,3.9 -7.7,5.6 -9.5,4.6 z m 29.9,-50.9 c 3.5,-3.5 3.6,-6.9 0.3,-9.7 -1.3,-1.2 -3.1,-2.3 -4,-2.6 -2,-0.7 -6.4,2.3 -7.4,5.1 -1.4,3.9 2.8,9.8 7,9.8 0.8,0 2.7,-1.1 4.1,-2.6 z m 50.2,-23.5 c 5.1,-5.7 0.7,-12.8 -7.6,-12 -2.5,0.2 -2.9,-0.1 -3.8,-2.6 -0.9,-2.8 -1.1,-2.9 -5.2,-2.9 -4,0 -4.3,0.1 -4.6,2.3 -0.3,2.8 1.1,4.5 4.9,6 2.4,0.9 2.8,1.5 2.8,3.8 0,3.9 4.2,7.9 8.2,7.9 2.3,0 3.6,-0.6 5.3,-2.5 z m 27.1,-9 c 0.5,-0.4 0.9,-2.5 0.9,-4.6 0,-4.4 0.8,-5.9 3,-5.9 2.3,0 6.2,-4.3 6.2,-6.7 0,-2.4 -3.6,-6.8 -6.2,-7.6 -2,-0.6 -6.7,2.3 -7.7,4.8 -0.4,1 -0.5,3.4 -0.1,5.2 0.6,3.3 0.5,3.6 -2.2,5.7 -4.1,3.2 -4.4,5.2 -1.6,8.3 1.9,2.1 2.8,2.5 4.6,2.1 1.3,-0.3 2.7,-0.9 3.1,-1.3 z m 28.7,-21.2 c 1.4,-2.1 -0.1,-5.5 -3,-6.9 -2.6,-1.3 -2.8,-1.2 -4.8,0.5 -1.3,1.2 -2.1,2.8 -2.1,4.5 0,2.2 0.5,2.8 2.4,3.4 2.9,0.9 6.3,0.2 7.5,-1.5 z m -39.1,0.7 c 3.7,-1.6 4,-7 0.3,-8.8 -2.3,-1.2 -4.7,-0.4 -6.4,2.1 -2.3,3.2 -0.8,6.4 3.6,7.7 0.1,0 1.2,-0.4 2.5,-1 z m -51.7,-10.4 c 2.7,-0.9 3.5,-4.5 1.7,-7.1 -1.7,-2.4 -4.3,-2.4 -6.4,-0.1 -2.2,2.5 -2.1,4.3 0.2,6.3 2.2,2 1.8,1.9 4.5,0.9 z m 105.6,-2.4 c 2.8,-1 3.9,-5.4 1.9,-7.5 -2.4,-2.5 -4.7,-2.7 -7,-0.7 -2.6,2.3 -2.7,4.6 -0.2,7.1 2.1,2.1 2.4,2.1 5.3,1.1 z m -37.4,-5.4 c 2.6,-2.3 3.1,-3.5 3.1,-6.2 0,-2.8 -0.5,-3.9 -3.4,-6.5 -1.9,-1.8 -4.2,-3.2 -5.3,-3.2 -4.7,0 -10.4,6.9 -9.2,11.2 0.3,1.2 2,3.4 3.6,4.9 4.2,3.6 7.2,3.6 11.2,-0.2 z m -39.6,0.4 c 1.9,-1 2.1,-3.2 0.6,-7 -0.8,-2.1 -0.7,-3.3 0.1,-5.8 1.6,-4.5 0.7,-6.7 -2.8,-6.7 -1.5,0 -3.2,0.3 -3.7,0.6 -1.8,1.1 -2.2,3.9 -0.8,5.5 1.6,2.1 1.6,4.9 0,7.2 -3,4.2 1.8,8.6 6.6,6.2 z m 107.8,-23.1 c 1.9,-2.6 0.9,-6.1 -2,-7.1 -2.9,-1.1 -4.4,-0.5 -5.4,2.1 -2.1,5.1 4.3,9.4 7.4,5 z m 31,-16.1 c 1,-5.6 -1.4,-8.8 -6.7,-8.9 -2.2,0 -6,4.2 -6,6.6 0,2.7 2.9,6.3 5.5,6.7 1.1,0.1 3,-0.1 4.3,-0.5 1.8,-0.5 2.4,-1.3 2.9,-3.9 z m -109.1,-6.1 c 1.6,-1.8 0.6,-5.5 -1.8,-6.6 -1.7,-0.8 -2.4,-0.8 -3.2,0 -2.7,2.6 -0.9,8.9 2.3,8.1 0.9,-0.2 2.1,-0.9 2.7,-1.5 z m 40.4,-1.6 c 3.3,-3 2.8,-9.7 -0.8,-11 -5.4,-1.9 -8.9,-0.3 -9.7,4.3 -0.7,4.2 2.2,8 6.3,8 1.6,0 3.5,-0.6 4.2,-1.3 z m 99.8,-4.9 c 0.3,-1.1 0.3,-2.9 0,-4 -0.5,-1.7 -1.1,-2.1 -3.6,-2.1 -2.1,0 -3.3,0.5 -3.9,1.6 -1.3,2.3 -1.1,3.2 1.2,5.4 2.5,2.3 5.5,1.9 6.3,-0.9 z m -79.5,0.8 c 1,-0.3 2.7,-1.8 3.7,-3.5 1.8,-3 1.8,-3.1 0.2,-5.6 -1.8,-2.7 -4.2,-4.3 -6.6,-4.3 -2.3,0 -6.5,4.5 -6.5,6.9 0,1.3 1,3.2 2.5,4.6 2.6,2.4 3.5,2.7 6.7,1.9 z"
     inkscape:connector-curvature="0"
     style="fill:#3c3cff;fill-opacity:1;fill-rule:evenodd;stroke:#ffffff;stroke-width:0.89999998;stroke-linecap:round;stroke-linejoin:round;stroke-opacity:1" />
  <path
     id="path54"
     d="m 88.933701,411.95132 c -1.1,-1.2 -2.5,-4.1 -3.1,-6.8 -0.6,-2.6 -4.7,-20.6 -5.7,-23.9 -0.9,-3.4 -4.8,-24.5 -4.8,-58.7 0,-34.3 0.2,-38.3 1.5,-41.4 0.9,-1.9 1.6,-5.1 1.6,-7 0,-1.8 0.8,-6.7 1.8,-10.7 5.3,-21.5 6.5,-25.9 8.8,-32.3 1.4,-3.8 20.699999,-48.6 24.799999,-55 1.1,-1.8 26.8,-38 27.9,-39.6 5.5,-8 28.1,-30.8 38.9,-39.199995 3,-2.4 4.1,-3.3 6.9,-5.5 60.9,-46.1 115.3,-54.2 118.4,-55.5 6.9,-3.1 3.9,-1.1 18.7,-3.4 21.5,-3.2 62.5,-3.1 83.9,0.1 6.5,1 9,0.9 14.8,2.2 51.5,11.6 63.5,16.2 129,62.2 4.1,2.799995 6.2,9.099995 3.5,12.199995 -5.9,6.9 -63.3,33.2 -66,34.8 -6.8,4.3 -12.1,6.8 -14.2,6.8 -1.7,0 -2.7,-0.5 -11.1,-5.5 -5.4,-3.3 -15.9,-8.3 -17.3,-8.3 -0.5,0 -77.5,-48.099995 -188.1,12.3 -1.3,0.7 -2,1.1 -3.1,2 -16.9,14.2 -34.9,26.9 -41.9,35.8 -2.1,2.7 -19.1,25.4 -20.7,27.7 -4.1,5.7 -15.5,28 -15.5,30.1 0,0.5 -9.2,26.4 -9.6,29.2 -0.4,2.9 -1.5,8.8 -2.3,13.3 -1.8,9.9 -2.7,55.3 -1.2,61.8 1,4.6 -0.4,8.3 -3.6,9.2 -1,0.3 -68.999999,55 -69.699999,55 -0.3,0 -1.5,-0.9 -2.6,-1.9 z m 39.199999,-67.5 c 0,-5.7 0.6,-6.6 4.4,-7.6 4.2,-1.1 9.6,-3.9 9.1,-4.6 -0.2,-0.4 -1.4,-0.7 -2.5,-0.7 -1.1,0 -3.9,-1.2 -6.3,-2.7 0,0 -4.2,-2.7 -4.2,-2.7 0,0 0.1,-5.1 0.1,-5.1 0,-3.5 0.5,-5.4 1.3,-5.9 0.9,-0.5 0.5,-0.7 -1.2,-0.8 -1.4,0 -2.4,0.5 -2.4,1.1 0,1.9 -6.2,7.9 -8.2,7.9 -1,0 -3.5,-0.8 -5.5,-1.8 -6,-2.9 -7.2,0.3 -2,5.1 3.2,2.9 1.5,8.1 -4.1,12.6 -0.5,0.5 -1.3,1.7 -1.6,2.7 -0.7,2.3 0.7,2.3 5,0.2 4.6,-2.3 8,-2.2 10.2,0.5 1,1.2 1.8,2.6 1.8,3.1 0,0.6 1,2.1 2.2,3.4 1.2,1.3 2.2,2.7 2.3,3.2 0,0.4 0.4,0 0.8,-0.9 0.4,-0.9 0.7,-4 0.8,-7 z m 21.5,-72.8 c 1.9,-1.8 3,-3.6 3,-5 0,-1.2 0.6,-3.1 1.3,-4.3 0.7,-1.2 1.6,-3.9 2.1,-5.9 0.5,-2 1.3,-5.1 1.8,-6.9 2.2,-7.9 0.6,-11.4 -6.3,-13.4 -1.8,-0.6 -3.5,-1.3 -3.7,-1.8 -0.3,-0.4 -2.2,-0.7 -4.2,-0.7 -4.1,0 -6.6,1.6 -8.7,5.3 -1.4,2.4 -5.9,15.6 -5.9,17.1 0,1.5 -3.8,4.5 -5.8,4.5 -2.1,0 -5.5,-3.5 -5.5,-5.7 0,-0.7 0.5,-2 1.2,-2.9 0.7,-0.9 1.3,-2.5 1.4,-3.6 0,-3 3.5,-9 5.6,-9.8 2.4,-0.9 4.6,-7.3 2.9,-8.3 -1.7,-1 -6.3,-0.8 -7.8,0.3 -2.6,2 -4.8,6 -6.2,11.2 -0.8,3 -2.1,7.4 -2.8,9.8 -1.7,5.8 -1.6,9.8 0.2,12.1 1.5,1.7 12.1,5.8 15.2,5.9 3.3,0 8.8,-9.8 11.1,-19.7 0.8,-3.1 3.3,-6.9 5.2,-7.6 1.8,-0.7 5.3,1.3 6.1,3.5 1,2.7 0.4,7.1 -1.2,8.4 -0.7,0.5 -1.2,1.9 -1.2,3.2 0,3.5 -1.4,6 -3.9,7.2 -1.2,0.7 -3.2,2.8 -4.4,4.7 0,0 -2.1,3.5 -2.1,3.5 0,0 2.8,0.8 2.8,0.8 5,1.3 6.7,1 9.8,-1.9 z m 22.7,-54.9 c 3.4,-6.4 6.7,-12.1 7.1,-12.7 0.5,-0.5 1.2,-2 1.5,-3.2 0.5,-1.9 0.1,-2.4 -2.1,-3.5 -1.9,-0.9 -3.1,-1 -4.2,-0.5 -0.8,0.4 -3.6,4.7 -6.3,9.5 -2.6,4.9 -5.9,9.5 -7.2,10.4 -2.3,1.6 -2.4,1.6 -4.1,0.2 -3,-2.6 -2.3,-6.5 3,-16.4 0,0 4.9,-8.8 4.9,-8.8 0,0 -2,-1.1 -2,-1.1 -3.1,-1.6 -4.6,-1.3 -5.7,1.2 -0.6,1.2 -1.4,2.8 -1.8,3.5 -0.5,0.6 -2.1,3.7 -3.6,6.7 -3.3,6.5 -5.8,8.2 -9.5,6.2 -2.7,-1.4 -3.4,-3.4 -2,-5.9 0.5,-1 1.3,-2.7 1.8,-3.8 0.6,-1.1 1.9,-3.5 3.1,-5.3 5.3,-8 5.8,-12.2 1.7,-13.1 -2.8,-0.7 -3.3,-0.3 -6.2,5.3 -1.3,2.7 -2.7,5 -3,5 -0.3,0 -0.8,1 -1.1,2.3 -0.3,1.3 -1,2.9 -1.6,3.5 -2.2,2.2 -6,9.7 -6,11.7 0,1.4 0.7,2.3 2,2.9 1.1,0.4 26.5,14.8 28.3,15.9 5.3,3.4 6,2.9 13,-10 z m 18.7,-30.3 c 1.4,-0.8 4.4,-3.6 6.7,-6.3 2.3,-2.7 5.5,-6.2 7.1,-7.7 4.4,-4.2 6.4,-9 5.3,-12.5 -1,-3.6 -4.7,-7.9 -6.8,-7.9 -2.7,0 -4.3,3.3 -3.8,7.6 0.4,3.4 0.2,4.1 -2.9,7.7 -6.7,7.9 -8.3,9.2 -11.6,9.2 -2.6,0 -4.2,-0.8 -8.5,-4.5 -9.1,-7.5 -9.1,-10.2 -0.4,-19.1 4.8,-5 6,-5.8 8.5,-5.8 3.9,0 7.7,-3.4 6.4,-5.8 -1.7,-2.9 -4.9,-4.2 -9.6,-3.8 -3.8,0.4 -4.8,0.9 -8.7,4.7 -2.4,2.3 -4.4,4.4 -4.4,4.6 0,0.2 -1.7,2.4 -3.7,5 -6.7,8.5 -7.9,11.4 -5.5,13.2 0.6,0.5 1.4,1.8 1.7,2.9 0.7,2.6 17.3,17.6 19.5,17.6 0.5,0 1.4,0.5 2,1.2 1.5,1.7 5.5,1.5 8.7,-0.3 z m 44.1,-41.3 c 2.7,-2.6 2.7,-2.9 0,-5.8 -1.2,-1.3 -11,-14.7 -12.8,-17 -4.3,-4.9 -4,-6.9 1.5,-11.5 2.1,-1.8 3.9,-3.7 3.9,-4.2 0,-1.9 -2.1,-5.1 -3.6,-5.6 -1.5,-0.4 -27.7,19.2 -28.4,19.6 -1.2,0.8 -1.1,1.3 0.2,4.3 1.8,4.3 3.5,4.4 8,0.6 5.9,-5.1 8.7,-3.6 17.2,9.5 0.5,0.8 9.2,12.1 10.7,12.1 0.6,0 2.1,-0.9 3.3,-2 z m 27,-18.2 c 0.6,-1.6 -16.7,-32.699995 -17.9,-35.399995 -0.5,-1.3 -1.1,-2.3 -1.3,-2.3 -0.7,0 -7.3,3.5 -7.3,3.9 0,0.4 18.5,34.899995 19.4,35.899995 1.6,1.6 1.9,1.7 4.2,0.6 1.3,-0.7 2.7,-1.9 2.9,-2.7 z m 208.1,-2.5 c 0.8,-0.9 12.5,-24.2 12.5,-24.799995 0,-0.5 1,-2.8 2.2,-5.1 2.7,-5.1 2.7,-5.4 -0.3,-7.5 -4.1,-2.8 -7.4,-3 -13.9,-0.9 -7.1,2.2 -8.1,2.8 -8.1,5.1 0,3 1.4,3.5 6.2,2.6 3.9,-0.7 4.5,-0.6 6.1,0.8 1.6,1.5 1.6,1.9 0.5,4.9 -0.6,1.699995 -9.1,19.399995 -9.8,19.899995 -1.8,1.4 -1.6,5.5 0.3,6 2.6,0.6 2.8,0.6 4.3,-1 z m -38.8,-14.8 c 3.3,-1.4 5.9,-6.6 5.9,-11.699995 0,-2.5 -0.4,-5.4 -1,-6.5 -0.8,-1.8 -0.6,-2.4 1.8,-5.2 2.4,-2.8 2.7,-3.9 2.9,-8.7 0.2,-4.8 -0.1,-5.6 -2,-7.3 -2.6,-2.4 -14,-5.5 -21.9,-6.1 -5.5,-0.3 -6,-0.2 -8.1,1.8 -2.6,2.7 -3.2,5.1 -1.7,8 1.4,2.6 3.9,2.3 6,-0.7 2.3,-3.2 5.3,-3.9 9.3,-1.9 1.9,0.9 4.6,1.6 6,1.6 2.2,0 2.9,0.5 3.9,2.9 1.2,2.5 1.2,3.2 0,5.7 0,0 -1.2,2.8 -1.2,2.8 0,0 -6.1,0 -6.1,0 -4.7,0 -6.2,0.3 -6.6,1.3 -0.7,1.8 1,4.4 2.9,4.4 3.4,0 6.9,1.9 8.4,4.4 1.4,2.5 1.4,2.8 0,5.3 -1.4,2.599995 -1.7,2.699995 -5.5,2.399995 -2.3,-0.2 -5.3,-0.8 -6.8,-1.3 -1.4,-0.4 -3.7,-1.099995 -5.2,-1.499995 -2,-0.6 -2.8,-1.4 -3.5,-3.7 -0.9,-3.2 -3.3,-5.5 -5.8,-5.5 -1.8,-0.1 -2.5,1.6 -2.5,6.4 0,4.299995 2.5,8.199995 5.1,8.199995 0.8,0 2.6,0.6 4,1.3 1.3,0.6 3.3,1.2 4.3,1.2 1.1,0.1 4.5,0.8 7.6,1.6 7,1.8 7.3,1.8 9.8,0.8 z m -104.2,-29.699995 c -1.2,-1.2 0.8,-3.7 3.1,-3.7 1.3,0 2.5,0.7 3.2,1.9 1.4,2.3 11.1,15.8 13,18 5.1,5.999995 5.2,6.099995 11.2,5.399995 3,-0.4 6,-1.1 6.5,-1.599995 0.7,-0.6 -1.5,-37 -2,-39.5 -0.9,-4.2 -3,-3 -4.9,-3 -3.4,0 -4.2,3.1 -3.1,12 0.6,4.1 1,9.5 1,12 0,3.8 -0.3,4.5 -1.9,5 -1.5,0.5 -22.8,-25.7 -23.7,-25.7 -2.4,0 -10,2.5 -10.9,3.5 -0.4,0.5 1,22.8 1.4,28.5 0.7,11.399995 1.1,12.199995 5.8,11.799995 0,0 2.7,-0.2 2.7,-0.2 -0.7,-15.999995 -1.1,-24.099995 -1.4,-24.399995 z m -40.3,37.099995 c 1.7,-0.9 3.7,-1.7 4.4,-1.7 1,0 4.3,-1.2 12.1,-4.6 4.1,-1.8 6.4,-5.7 6.4,-10.7 0,-2.299995 -9.6,-25.299995 -9.6,-25.899995 0,-0.6 -1.8,-2.2 -4,-3.6 -3.6,-2.2 -4.1,-2.4 -5.9,-1.3 -1,0.6 -28.9,12.7 -29.4,12.7 -1.1,0 -1.2,11.1 0,11.8 0.4,0.3 7.5,20.099995 10.1,22.699995 1.9,1.9 2.8,2.2 7.4,2.2 3.5,0 6.2,-0.5 8.5,-1.6 z m -10.6,-10.6 c -1.2,-1.3 -2.8,-4.2 -3.6,-6.3 -0.8,-2.199995 -1.8,-4.599995 -2.3,-5.399995 -1.7,-3 -0.9,-6 2.3,-8.7 1.7,-1.3 3.8,-2.5 4.6,-2.5 0.8,0 3,-0.7 4.8,-1.6 4.9,-2.5 9,-2.2 12,0.8 3,3 6.4,12.7 5.6,15.8 -0.6,2.099995 -7.2,6.999995 -9.4,6.999995 -0.6,0 -2.6,0.8 -4.5,1.7 -4.7,2.2 -6.9,2 -9.5,-0.8 z"
     inkscape:connector-curvature="0"
     style="fill:#000000;fill-opacity:1;fill-rule:evenodd;stroke:#ffffff;stroke-width:0.89999998;stroke-linecap:round;stroke-linejoin:round;stroke-opacity:1" />
</svg>
