<?xml version="1.0" encoding="UTF-8" standalone="no"?>
<!-- Sure Cuts A Lot -->

<svg
   xmlns:scal="http://www.craftedge.com/namespaces/surecutsalot"
   xmlns:dc="http://purl.org/dc/elements/1.1/"
   xmlns:cc="http://creativecommons.org/ns#"
   xmlns:rdf="http://www.w3.org/1999/02/22-rdf-syntax-ns#"
   xmlns:svg="http://www.w3.org/2000/svg"
   xmlns="http://www.w3.org/2000/svg"
   xmlns:sodipodi="http://sodipodi.sourceforge.net/DTD/sodipodi-0.dtd"
   xmlns:inkscape="http://www.inkscape.org/namespaces/inkscape"
   version="1.1"
   scal:dpi="72"
   x="0px"
   y="0px"
   width="442.59985"
   height="553.76227"
   viewbox="0 0 864 864"
   xml:space="preserve"
   id="svg2"
   inkscape:version="0.48.5 r10040"
   sodipodi:docname="star_trek_klingon_insignia_.svg"><metadata
     id="metadata10"><rdf:RDF><cc:Work
         rdf:about=""><dc:format>image/svg+xml</dc:format><dc:type
           rdf:resource="http://purl.org/dc/dcmitype/StillImage" /></cc:Work></rdf:RDF></metadata><defs
     id="defs8" /><sodipodi:namedview
     pagecolor="#ffffff"
     bordercolor="#666666"
     borderopacity="1"
     objecttolerance="10"
     gridtolerance="10"
     guidetolerance="10"
     inkscape:pageopacity="0"
     inkscape:pageshadow="2"
     inkscape:window-width="640"
     inkscape:window-height="480"
     id="namedview6"
     showgrid="false"
     inkscape:zoom="0.27314815"
     inkscape:cx="382.18212"
     inkscape:cy="171.26229"
     inkscape:window-x="0"
     inkscape:window-y="0"
     inkscape:window-maximized="0"
     inkscape:current-layer="svg2" /><g
     id="Star-Trek-Klingon-Insignia-Stencil-510x660.jpg"
     transform="translate(-49.817879,-49.5)"><path
       id="&lt;Merge&gt;"
       style="fill:#000000;stroke:#000000"
       d="M 92.5428,451.671 C 91.7852,442.577 94.0042,419.018 96.6092,408.5 106.941,366.784 132.266,331.581 167.5,309.963 178.4,303.275 201.38,293 205.438,293 c 0.888,0 0.654,5.627 -0.342,8.248 -0.618,1.626 -2.279,2.788 -5.25,3.676 -6.791,2.028 -23.617,10.438 -31.515,15.753 -31.255,21.029 -53.02,51.854 -62.313,88.251 -2.698,10.567 -5.325,33.295 -4.597,39.769 0.551,4.906 0.402,5.368 -2.6685,8.245 -1.7889,1.677 -3.7618,3.051 -4.3842,3.053 -0.6968,0.003 -1.3984,-3.196 -1.8255,-8.324 z m 309.1482,15.596 -3.808,-1.528 0.68,-12.619 C 400.352,419.904 391.93,389.362 373.159,361 365.764,349.826 345.233,329.283 334,321.817 323.893,315.1 307.429,306.898 297.878,303.822 c -3.947,-1.272 -7.05,-2.873 -7.298,-3.767 -1.795,-6.48 -1.744,-8.055 0.261,-8.055 3.466,0 19.243,5.97 30.283,11.46 47.868,23.804 80.502,71.146 85.957,124.698 1.149,11.273 0.587,36.858 -0.864,39.387 -0.564,0.983 -1.53,0.924 -4.526,-0.278 z M 247.707,52.7617 c -0.239,-1.244 -0.444,-0.4617 -0.455,1.7383 -0.011,2.2 0.185,3.2177 0.435,2.2617 0.25,-0.9561 0.259,-2.7561 0.02,-4 z M 243.281,513.75 C 241.027,510.313 228.5,491.3 215.442,471.5 202.385,451.7 188.003,429.855 183.482,422.956 l -8.22,-12.543 5.856,-11.957 c 9.87,-20.154 17.422,-44.97 26.333,-86.536 3.899,-18.188 11.738,-63.339 16.132,-92.92 0.858,-5.775 2.201,-14.775 2.985,-20 1.848,-12.315 4.133,-28.587 6.039,-43 0.837,-6.325 2.18,-16.45 2.986,-22.5 2.956,-22.197 6.979,-55.0177 8.457,-69 1.386,-13.1165 1.716,-14.5 3.45,-14.5 1.704,0 2.022,1.2686 3.51,14 0.61,5.225 1.756,14.9 2.547,21.5 0.791,6.6 2.112,17.85 2.936,25 6.405,55.606 12.088,96.672 17.955,129.75 0.854,4.812 2.211,12.462 3.016,17 0.804,4.537 2.85,14.775 4.545,22.75 1.695,7.975 3.487,16.525 3.981,19 1.024,5.128 6.517,26.451 10.82,42 4.064,14.688 12.01,38.129 18.158,53.563 l 5.202,13.064 -14.745,23.436 c -8.111,12.891 -20.128,31.987 -26.705,42.437 -6.577,10.45 -15.84,25.188 -20.583,32.75 -4.744,7.563 -9.104,13.75 -9.691,13.75 -0.586,0 -2.91,-2.812 -5.165,-6.25 z m 59.595,34.675 c -4.744,-0.742 -11.944,-2.301 -16,-3.464 -4.057,-1.164 -8.951,-2.571 -10.876,-3.126 -1.925,-0.555 -8.609,-3.469 -14.853,-6.475 -8.84,-4.257 -11.253,-5.842 -10.903,-7.163 0.517,-1.957 73.176,-111.721 74.492,-112.534 0.48,-0.296 3.541,2.471 6.804,6.149 27.589,31.103 62.771,51.175 113.96,65.019 14.516,3.925 38.268,8.169 45.724,8.169 4.714,0 -15.438,13.21 -34.944,22.906 -21.978,10.925 -56.221,22.439 -81.78,27.498 -23.248,4.601 -53.382,5.872 -71.624,3.021 z M 51.6316,592.75 c -1.658,-6.2 -1.767,-26.878 -0.2109,-40.019 4.1578,-35.114 15.0867,-58.687 37.4319,-80.738 15.0144,-14.818 25.9674,-22.708 44.6474,-32.166 18.186,-9.207 27.504,-14.946 34.022,-20.954 2.485,-2.291 4.672,-3.987 4.859,-3.769 0.531,0.619 30.895,47.991 45.441,70.896 4.367,6.875 12.043,18.91 17.059,26.745 5.015,7.835 9.119,14.745 9.119,15.355 0,0.735 -1.436,0.904 -4.25,0.499 -9.497,-1.366 -52.936,-1.844 -60.58,-0.666 -18.931,2.916 -42.358,10.919 -55.489,18.956 -3.694,2.261 -7.002,4.111 -7.351,4.111 -1.366,0 -35.5801,23.417 -48.83,33.42 -7.7,5.813 -14.285,10.572 -14.6334,10.575 -0.3483,0.003 -0.9041,-1.008 -1.235,-2.245 z M 231.5,601.824 c -22.887,-2.304 -47.584,-11.497 -68.868,-25.633 -9.555,-6.347 -32.078,-26.66 -31.177,-28.119 0.245,-0.395 2.289,-1.328 4.544,-2.072 l 4.099,-1.352 7.201,7.026 c 19.84,19.36 43.216,31.83 72.201,38.517 8.821,2.035 12.534,2.304 31.5,2.277 20.292,-0.029 22.118,-0.19 32.5,-2.862 22.994,-5.916 39.863,-13.898 56.972,-26.953 5.876,-4.484 11.211,-8.443 11.856,-8.798 2.558,-1.407 11.759,-2.523 12.39,-1.502 0.925,1.496 -13.458,14.674 -24.06,22.044 -32.075,22.299 -68.7,31.501 -109.158,27.427 z"
       inkscape:connector-curvature="0" /></g></svg>