<?xml version="1.0" encoding="UTF-8" standalone="no"?>
<svg
   xmlns:dc="http://purl.org/dc/elements/1.1/"
   xmlns:cc="http://creativecommons.org/ns#"
   xmlns:rdf="http://www.w3.org/1999/02/22-rdf-syntax-ns#"
   xmlns:svg="http://www.w3.org/2000/svg"
   xmlns="http://www.w3.org/2000/svg"
   xmlns:sodipodi="http://sodipodi.sourceforge.net/DTD/sodipodi-0.dtd"
   xmlns:inkscape="http://www.inkscape.org/namespaces/inkscape"
   version="1.1"
   id="svg2"
   viewBox="0 0 728.22004 630.99678"
   height="630.99677"
   width="728.22003"
   inkscape:version="0.48.5 r10040"
   sodipodi:docname="klingon_kitty.svg">
  <sodipodi:namedview
     pagecolor="#ffffff"
     bordercolor="#666666"
     borderopacity="1"
     objecttolerance="10"
     gridtolerance="10"
     guidetolerance="10"
     inkscape:pageopacity="0"
     inkscape:pageshadow="2"
     inkscape:window-width="640"
     inkscape:window-height="480"
     id="namedview20"
     showgrid="false"
     inkscape:zoom="0.22425739"
     inkscape:cx="365.20724"
     inkscape:cy="323.80218"
     inkscape:window-x="0"
     inkscape:window-y="0"
     inkscape:window-maximized="0"
     inkscape:current-layer="svg2" />
  <defs
     id="defs4" />
  <metadata
     id="metadata7">
    <rdf:RDF>
      <cc:Work
         rdf:about="">
        <dc:format>image/svg+xml</dc:format>
        <dc:type
           rdf:resource="http://purl.org/dc/dcmitype/StillImage" />
        <dc:title />
      </cc:Work>
    </rdf:RDF>
  </metadata>
  <g
     id="layer1"
     transform="translate(-6.8399978,-218.98653)">
    <g
       transform="translate(-5.7142857,0)"
       id="g4511">
      <path
         transform="translate(5.7142857,0)"
         id="path4860"
         d=""
         style="fill:#ffaaaa;stroke:none"
         inkscape:connector-curvature="0" />
      <path
         transform="translate(5.7142857,0)"
         id="path4873"
         d=""
         style="fill:#e6e6e6;stroke:none"
         inkscape:connector-curvature="0" />
      <path
         transform="translate(5.7142857,0)"
         id="path4879"
         d=""
         style="fill:#e9c6af;stroke:none"
         inkscape:connector-curvature="0" />
      <path
         transform="translate(5.7142857,0)"
         id="path4881"
         d=""
         style="fill:#ff0000;stroke:none"
         inkscape:connector-curvature="0" />
      <path
         transform="translate(5.7142857,0)"
         id="path4883"
         d=""
         style="fill:#ff0000;stroke:none"
         inkscape:connector-curvature="0" />
      <path
         transform="translate(5.7142857,0)"
         id="path4885"
         d=""
         style="fill:#ff0000;stroke:none"
         inkscape:connector-curvature="0" />
      <path
         transform="translate(5.7142857,0)"
         id="path4887"
         d=""
         style="fill:#ff0000;stroke:none"
         inkscape:connector-curvature="0" />
      <g
         transform="matrix(0.52662762,0,0,0.52662762,-128.11466,-307.02189)"
         id="g4932">
        <path
           style="fill:#000000"
           d="m 388.55469,998.82422 c -33.59555,0 -44.05215,1.0819 -59.06055,6.11528 -22.9652,7.7017 -49.61225,21.7661 -60.06055,31.7011 l -8.03515,7.6406 8.41015,0.9629 c 4.6256,0.5287 20.62624,-1.121 35.55664,-3.666 81.18136,-13.8379 144.42518,5.4599 198.04883,60.4317 29.34365,30.0814 36.489,54.2765 20.69336,70.0722 -4.71498,4.715 -10.32449,8.5821 -12.46484,8.5821 -18.79715,0.042 -95.11643,9.4641 -102.7207,12.6816 -11.98033,5.069 -22.01248,15.7589 -18.26563,19.4629 1.59284,1.5747 10.6819,1.6902 21.96875,0.2812 39.24386,-4.899 68.73354,5.8655 103.01367,37.6036 56.99844,52.7718 108.93468,143.0023 137.37695,238.664 34.82205,117.119 34.53622,252.1351 -0.6875,323.9961 -12.1112,24.7084 -31.04041,41.9148 -55.93164,50.8418 -10.84871,3.8907 -19.7246,8.1427 -19.7246,9.4492 0,1.3065 4.49463,4.2535 9.98828,6.5489 12.26876,5.1262 26.22552,1.5862 65.40234,-16.5879 14.1837,-6.5798 34.27815,-15.2027 44.65234,-19.1621 18.68406,-7.131 18.93286,-7.1454 26.39454,-1.6055 22.40714,16.6362 15.60288,82.6003 -13.6543,132.3691 -14.65081,24.9222 -44.47902,54.5484 -70.00977,69.5371 -11.35497,6.6663 -34.78594,17.7542 -52.07031,24.6387 -17.28437,6.8845 -30.94852,13.9493 -30.36523,15.6992 3.19249,9.5775 56.40364,8.9342 85.35546,-1.0312 65.48469,-22.5401 124.34635,-79.784 161.44141,-157.0059 12.63737,-26.3076 31.93236,-80.4746 35.56641,-99.8457 1.05227,-5.6091 2.81289,-10.7549 3.91406,-11.4355 1.10116,-0.6806 9.86097,1.3567 19.46484,4.5273 9.60386,3.1707 30.65886,7.8866 46.78907,10.4805 16.13021,2.5939 31.0192,6.2707 33.08789,8.1699 3.0362,2.7874 1.24118,13.3079 -9.31055,54.5762 -7.18936,28.1178 -14.57174,64.9812 -16.40625,81.9179 -1.8345,16.9367 -7.37302,44.4434 -12.30664,61.127 -7.73662,26.1616 -8.79231,33.7216 -7.67774,54.957 1.73987,33.1487 14.5496,59.6551 35.6543,73.7832 26.69448,17.8701 44.45083,21.1941 129.37497,24.2168 41.9867,1.4943 80.958,4.053 86.6035,5.6856 12.3504,3.5717 117.9615,1.4233 139.2422,-2.8321 23.8355,-4.7664 50.209,-18.9028 69.4043,-37.2031 29.7656,-28.3778 30.2203,-29.8931 31.3164,-104.5176 l 0.9395,-64.0918 9.3242,1.9766 c 5.1279,1.0861 20.9863,2.6763 35.2402,3.5352 20.089,1.2105 28.8135,0.4543 38.8047,-3.3614 15.9966,-6.1091 35.2673,-27.3283 39.7285,-43.7461 4.9567,-18.2415 1.4602,-51.5921 -7.4492,-71.0527 -16.2904,-35.5829 -62.8128,-89.8297 -101.8769,-118.7891 -11.0285,-8.1758 -20.0528,-16.4889 -20.0528,-18.4746 0,-5.8919 11.5079,-14.4502 41.3282,-30.7363 15.4721,-8.45 39.4852,-25.1711 53.3613,-37.1562 13.8761,-11.985 26.9529,-21.7597 29.0586,-21.7227 2.1057,0.037 15.0348,6.6361 28.7324,14.6641 28.9747,16.9814 39.0293,18.7702 37.6113,6.6914 -0.7322,-6.2368 -6.3316,-11.5797 -26.5371,-25.3223 l -25.6093,-17.418 8.0117,-14.3496 c 4.407,-7.892 10.6529,-17.5791 13.8789,-21.5254 l 5.8652,-7.1738 22.8477,10.1875 c 24.7147,11.0197 35.6883,12.6825 38.3261,5.8086 2.338,-6.0927 -6.115,-13.1347 -31.9199,-26.5898 -25.0071,-13.0391 -24.6227,-11.7764 -13.8183,-45.5079 6.2731,-19.5848 9.436,-20.3816 44.5039,-11.2324 26.9448,7.0299 35.375,6.3729 35.375,-2.7558 0,-8.3403 -4.3968,-10.7691 -38.2969,-21.1387 l -30.9668,-9.4727 -3.4531,-47.2402 c -1.8992,-25.983 -5.4784,-54.7768 -7.9532,-63.9863 -4.3333,-16.1253 -4.1717,-18.496 4.3594,-64.0625 10.9431,-58.4492 11.6888,-92.6987 2.6563,-121.9785 -13.8292,-44.8292 -35.1918,-74.0001 -58.8594,-80.3731 -24.446,-6.5826 -62.7988,1.9926 -112.8789,25.2363 -15.4481,7.17 -30.9015,13.0352 -34.3418,13.0352 -3.4403,0 -17.8743,-3.9511 -32.0762,-8.7813 -14.2014,-4.8303 -36.1691,-11.4251 -48.8164,-14.6542 -12.6472,-3.2292 -31.3711,-9.8343 -41.6094,-14.6778 -22.524,-10.6555 -26.0246,-10.7645 -46.0351,-1.4492 -10.8013,5.0283 -20.8499,7.3194 -32.2598,7.3594 -9.1147,0.031 -31.0888,2.0004 -48.832,4.375 -17.7432,2.3747 -33.6831,4.3278 -35.4219,4.3418 -1.7388,0.013 -14.9367,-9.2763 -29.3281,-20.6446 -47.205,-37.2891 -93.58038,-55.5086 -119.50978,-46.9511 -24.417,8.0584 -60.71895,52.2588 -73.79102,89.8476 -8.77099,25.221 -13.17503,61.5144 -13.20703,108.8281 l -0.0234,35.7422 -14.66406,29.9864 c -8.06511,16.4923 -14.66406,31.8382 -14.66406,34.1035 0,2.2653 -1.42463,6.7812 -3.16602,10.0351 -3.06131,5.7201 -3.35928,5.7414 -9.02148,0.6172 -9.29992,-8.4164 -24.30707,-37.8571 -37.91211,-74.373 -14.96224,-40.1586 -18.17668,-46.0044 -45.04492,-81.9453 -28.13499,-37.6353 -60.62725,-71.3884 -102.48828,-106.4649 -42.02926,-35.2175 -65.65956,-50.8655 -105.39844,-69.7949 -48.42899,-23.0688 -74.19443,-29.20508 -122.63867,-29.20508 z m 195.27343,175.33788 c 2.48091,-0.165 5.71778,1.4672 12.67188,5.1563 24.8338,13.1743 55.11652,51.56 75.51172,95.7207 14.4732,31.3383 15.39102,36.413 8.23242,45.5136 -6.9653,8.8549 -15.05001,9.4686 -27.19531,2.0625 -17.8481,-10.8835 -56.14173,-59.9785 -72.95703,-93.5351 -10.0253,-20.0063 -11.37903,-24.8498 -9.70703,-34.7461 1.0685,-6.3245 4.50426,-13.8173 7.63476,-16.6504 2.4072,-2.1785 3.8791,-3.3932 5.80859,-3.5215 z m 127.48438,200.8262 c 4.1088,0.152 8.80049,2.5352 14.55859,6.9765 l 6.81641,5.2579 -6.72656,9.0976 c -8.4522,11.4323 -5.57024,17.1239 11.72656,23.1563 10.9513,3.8193 12.86068,5.8649 17.33008,18.5703 8.0072,22.7626 6.98381,33.1903 -3.92969,40.0312 -6.5105,4.081 -9.42264,8.2695 -10.02734,14.4219 -0.7951,8.0904 -0.0344,8.8523 11.37304,11.3906 11.3849,2.5333 12.38237,3.5281 14.50977,14.4512 1.3489,6.926 1.10851,14.8235 -0.58789,19.2852 -2.4295,6.3901 -4.5952,7.5566 -14.0332,7.5566 -9.236,0 -12.37967,-1.6005 -18.23047,-9.2852 -14.7991,-19.4379 -30.12397,-60.3118 -40.78907,-108.791 -4.6737,-21.245 -4.66914,-22.9163 0.0977,-33.4863 5.8364,-12.9428 11.06401,-18.8863 17.91211,-18.6328 z m 43.34766,230.1953 c 7.9204,0 17.04154,9.0036 18.90234,18.6582 1.4503,7.524 -0.60288,11.3734 -15.67188,29.3652 -18.9316,22.6034 -24.26171,31.4834 -27.26171,45.418 -3.0962,14.3818 5.50417,42.856 18.60937,61.6113 6.3341,9.0649 10.7363,17.7429 9.7832,19.2852 -2.2179,3.5885 -9.98038,3.4558 -16.39648,-0.2813 -2.75,-1.6017 -7.25,-7.0276 -10,-12.0566 -7.5352,-13.7801 -7.21126,-104.2725 0.46484,-130.002 6.0718,-20.3521 13.92252,-31.998 21.57032,-31.998 z"
           transform="translate(5.7142857,0)"
           id="path4857"
           inkscape:connector-curvature="0" />
        <path
           style="fill:#ffffff;stroke:none"
           d="m 954.98773,1090.2919 c -19.24195,0 -43.18172,28.3249 -54.7461,64.7773 -6.72131,21.1865 -12.38827,67.4521 -9.28906,75.8301 1.05926,2.8634 6.37142,7.4339 11.80469,10.1563 22.02151,11.0344 20.08343,24.1252 -8.61719,58.2226 -9.72815,11.5574 -20.17966,25.869 -23.22461,31.8027 -6.63321,12.9259 -15.16904,48.9626 -12.96094,54.7168 0.88638,2.3099 7.55532,4.9725 15.3086,6.1114 21.16818,3.1095 26.59375,5.9002 26.59375,13.6757 0,11.3053 -7.25378,14.793 -29.02149,13.9512 l -19.54882,-0.7558 0.0391,16.4687 c 0.054,22.7912 2.20633,29.3281 9.6582,29.3281 8.40679,0 18.87305,7.7678 18.87305,14.0059 0,5.4868 -6.8926,12.5955 -15,15.4707 -6.36096,2.2558 -6.22104,6.1263 0.77539,21.5449 3.94615,8.6965 6.93121,11.9565 9.90234,10.8164 2.33934,-0.8977 10.57339,-2.4696 18.29688,-3.4941 12.52024,-1.6609 14.40476,-1.1879 17.38086,4.373 4.57326,8.5452 -2.20615,18.5647 -15.53907,22.9649 -5.55566,1.8336 -10.10156,4.6166 -10.10156,6.1855 0,4.0915 23.20889,33.4247 36.15235,45.6914 54.35529,51.5134 179.0248,96.5215 286.7051,103.5059 l 0,0 c 24.9204,1.6164 67.9049,-0.9714 93.9843,-5.6601 23.9443,-4.3048 70.4528,-20.2843 94.6504,-32.5196 17.762,-8.9807 49.2948,-30.3123 57.1133,-38.6347 l 6.5117,-6.9297 -7.4082,-2.8184 c -4.0751,-1.5494 -9.5584,-6.0949 -12.1836,-10.1015 -4.0165,-6.13 -4.1687,-8.0134 -0.9589,-11.8809 3.7723,-4.5454 14.9312,-4.3593 37.1914,0.6172 6.649,1.4864 8.4261,0.017 16.1386,-13.3418 l 8.666,-15.0098 -9.9101,-9.3476 c -8.4951,-8.0119 -9.4594,-10.1891 -6.752,-15.2481 2.4622,-4.6006 5.9485,-5.9023 15.8145,-5.9023 14.8386,0 17.9485,-3.9069 20.541,-25.7949 l 1.6836,-14.2032 -9.6836,-0.017 c -5.326,-0.01 -14.5056,-1.3538 -20.3984,-2.9903 -9.1742,-2.5478 -10.7149,-4.1447 -10.7149,-11.1074 0,-9.6865 3.8803,-11.5855 23.8047,-11.6445 22.7714,-0.067 23.3765,-0.9775 23.0977,-34.8653 -0.3362,-40.846 -4.5016,-57.2377 -21.3047,-83.8476 -20.6081,-32.6356 -19.444,-45.0711 4.7929,-51.1777 13.813,-3.4802 13.915,-3.5915 17.1915,-18.9258 1.8127,-8.4839 3.4208,-29.7546 3.5722,-47.2676 0.3262,-37.6933 -5.9509,-62.383 -20.7461,-81.6094 -8.9647,-11.6497 -10.1404,-12.2446 -23.4941,-11.8965 -17.7374,0.4623 -59.6326,16.4658 -92.8125,35.4532 -13.6291,7.7993 -26.265,14.1816 -28.082,14.1816 -1.8171,0 -11.9517,-4.3514 -22.5196,-9.6699 -22.3003,-11.223 -48.0858,-19.5119 -76.3574,-24.543 -11,-1.9575 -26.764,-7.2927 -35.0312,-11.8574 l -15.0313,-8.3008 -11.4766,5.8555 c -8.6691,4.4227 -22.8153,6.8727 -57.8261,10.0176 -25.4921,2.2898 -53.4197,6.0878 -62.0625,8.4394 -8.6429,2.3516 -16.7909,4.2916 -18.1055,4.3106 -1.3146,0.019 -10.3146,-7.481 -20,-16.6641 -32.4675,-30.7837 -79.25065,-60.4453 -95.33593,-60.4453 z m 264.40627,60.3359 c 5.1108,0.065 9.7927,2.9293 15.0312,8.5371 4.5591,4.8805 8.2891,9.8177 8.2891,10.9707 0,4.0492 14.0583,8.407 55.9726,17.3535 82.3468,17.5767 117.5634,30.3958 125.461,45.668 4.3857,8.4813 4.3693,9.4436 -0.2403,14.5371 -2.7149,3 -5.6997,5.3447 -6.6347,5.211 -0.935,-0.1337 -11.9058,-5.1527 -24.3789,-11.1543 -22.7538,-10.9482 -64.6688,-22.3713 -126.9199,-34.5879 -29.0164,-5.6943 -33.4315,-7.3743 -41.6797,-15.8672 l -9.2266,-9.5 -6.4883,6.9062 c -8.0375,8.5555 -13.5381,9.4056 -84.4355,13.0293 -38.5727,1.9715 -65.0363,4.8073 -81.4297,8.7266 -30.4978,7.2915 -37.8239,5.9515 -36.6016,-6.6895 0.7273,-7.5213 2.917,-10.1356 12.1016,-14.4453 19.4429,-9.123 46.9601,-12.935 108.4004,-15.0195 l 59.6133,-2.0234 12.7031,-10.9942 c 8.3281,-7.2079 14.6706,-10.7315 20.4629,-10.6582 z m -6.2715,45.1504 c 5.7919,0.069 11.4988,4.0161 18.2402,11.8516 9.8069,11.3985 11.1047,11.9395 48.5703,20.2968 38.0173,8.4804 86.8748,25.517 104.9239,36.586 10.3609,6.3542 12.388,16.5554 4.7968,24.1465 -5.8101,5.8101 -5.972,5.7885 -22.2793,-2.8926 -22.0578,-11.7423 -64.5456,-24.8043 -119.4687,-36.7285 -12.0731,-2.6212 -25.1517,-7.2836 -29.0645,-10.3614 -7.0881,-5.5755 -7.1519,-5.5728 -17.7656,0.6895 -9.3265,5.5028 -16.6177,6.5487 -58.5703,8.4004 -43.2262,1.9078 -50.4904,2.9993 -74.2129,11.1445 -23.4037,8.0357 -26.7702,8.556 -30.5937,4.7324 -7.042,-7.042 -2.1867,-17.9713 11.4726,-25.8222 16.4371,-9.4476 35.1305,-12.8969 89.0801,-16.4434 l 45.8008,-3.0117 10.3203,-11.1797 c 7.0808,-7.6699 12.9581,-11.4776 18.75,-11.4082 z m -4.0313,55.8633 c 5.3056,0.1286 11.0816,4.7431 20.2422,14.2012 8.4578,8.7324 17.9169,15.8769 21.0196,15.8769 9.0262,0 52.2273,13.682 70.9218,22.461 24.2748,11.3995 36.2509,22.1261 35.1641,31.4941 l 0,0 c -1.3068,11.2645 -17.1934,11.4583 -31.7676,0.3868 -12.3648,-9.393 -43.1646,-20.3378 -79.5625,-28.2715 -13.6122,-2.967 -27.6038,-7.3929 -31.0918,-9.836 -5.7326,-4.0179 -6.9915,-4.0183 -13.1094,-0.01 -4.4977,2.947 -18.9759,5.3345 -43.1582,7.1191 -26.202,1.9337 -41.9975,4.6823 -56.4257,9.8184 -28.2933,10.0717 -32.3793,10.8208 -37.1973,6.8222 -5.7641,-4.7838 -5.3933,-15.2575 0.7305,-20.6269 14.0372,-12.3078 32.8362,-17.5033 80.1621,-22.1524 32.0422,-3.1476 38.3305,-5.373 49.125,-17.3925 5.9514,-6.6268 10.2659,-10.0061 14.9472,-9.8926 z m -205.8105,170.2851 c 8.0962,0.1699 16.0788,3.243 20.168,8.7422 14.9172,20.0611 10.1191,57.4677 -9.0137,70.2696 -15.71187,10.513 -30.23963,7.0456 -40.58009,-9.6856 -11.33078,-18.3336 -4.03992,-53.7241 13.42579,-65.168 4.07688,-2.6709 9.20031,-4.0137 14.3809,-4.1542 0.5396,-0.015 1.0793,-0.015 1.6191,0 z m 389.4082,56.5411 c 6.3247,-0.075 12.6725,2.8453 19.2656,8.7461 8.8733,7.9414 9.3224,9.3133 9.1289,27.9804 -0.2291,22.1004 -5.5891,34.2373 -18.4824,41.8535 -25.8246,15.255 -55.2387,-12.8556 -45.9375,-43.9003 1.8833,-6.2864 8.3157,-16.57 14.2949,-22.8555 7.4254,-7.8057 14.5625,-11.7392 21.7305,-11.8242 z m -217.6113,38.3828 c 10.259,0.09 21.5011,2.681 32.7793,8.1406 15.2077,7.362 23.4036,19.8324 23.4179,35.6289 0.014,15.7784 -7.8172,25.0565 -27.3047,32.3477 -8.666,3.2424 -17.9573,5.7641 -20.6484,5.6035 -12.3572,-0.7367 -25.8181,-7.674 -38.373,-19.7754 -11.6235,-11.2035 -13.6621,-14.7947 -13.6621,-24.0703 0,-23.0893 17.995,-37.2926 41.7519,-37.8594 0.6749,-0.016 1.3551,-0.022 2.0391,-0.016 z m -296.1094,120.0097 c -1.73614,-0.039 -3.4928,0.1514 -4.84961,0.5821 -4.35057,1.3808 -5.13559,7.7224 -6.63672,53.6367 -0.93632,28.6387 -3.54242,61.7122 -5.79297,73.498 -3.04586,15.9506 -3.25506,21.9649 -0.81836,23.5274 1.80044,1.1545 6.71531,2.1186 10.92383,2.1426 8.64186,0.049 9.10984,-0.9591 30.80664,-66.5098 7.36699,-22.2573 11.44826,-39.1448 10.43555,-43.1797 -2.36716,-9.4316 -23.80365,-40.7739 -29.33985,-42.8984 -1.27733,-0.4902 -2.99238,-0.7596 -4.72851,-0.7989 z m -84.01172,43.4317 -6.51563,5.7148 c -10.84009,9.5075 -14.96427,22.6273 -11.34179,36.0801 1.71593,6.3725 4.55903,14.746 6.31835,18.6074 5.14694,11.2963 8.22449,1.6338 9.98829,-31.3691 l 1.55078,-29.0332 z m 650.29682,144.2851 c -1.6721,0 -23.4019,14.2331 -48.2871,31.6289 -49.9038,34.8849 -45.44,28.9049 -50.0293,67.0391 -1.4441,12.0001 -0.7207,15.667 4.3731,22.1426 5.5861,7.1017 7.7786,7.7617 25.793,7.7617 12.6154,0 24.6407,1.9532 33.4804,5.4375 7.5871,2.9905 16.9564,6.0831 20.8203,6.873 22.5781,4.6165 47.0085,-5.7156 56.5196,-23.9042 8.4913,-16.2387 7.525,-43.2596 -2.2422,-62.6934 -8.2689,-16.4526 -36.444,-54.2852 -40.4278,-54.2852 z m -440.9023,201.4297 c -67.74435,0 -67.14295,-0.1577 -76.31249,20 -6.28615,13.8191 -6.96161,48.9935 -1.24805,65.0039 8.6403,24.2117 27.01197,39.1654 57.35352,46.6836 7.85714,1.9469 31.90002,3.6496 53.42972,3.7832 l 39.1445,0.2422 -10.4805,-22.0722 c -9.6963,-20.4179 -10.4776,-24.0029 -10.4121,-47.8555 0.053,-19.267 1.6916,-30.3844 6.4805,-43.9766 3.5249,-10.0048 5.5957,-19.0048 4.6015,-20 -0.9941,-0.9951 -29.1451,-1.8086 -62.5566,-1.8086 z m 165.584,1.5821 c -34.1261,-0.054 -58.54,0.2603 -62.0039,0.9101 -8.4305,1.5815 -11.4304,4.3336 -18.3613,16.8418 -7.5797,13.6788 -8.265,17.26 -8.0547,42.0938 0.2483,29.3347 3.7622,40.9917 17.1484,56.9003 9.1429,10.8658 20.6553,17.2168 39.7656,21.9395 17.3867,4.2967 101.9029,5.0699 135.2461,1.2363 38.1935,-4.3913 66.2728,-20.9164 85.9004,-50.5488 8.5689,-12.9366 8.8535,-14.3844 8.8535,-45.1855 0,-21.942 -1.177,-33.4322 -3.7929,-37.0098 -3.5319,-4.8301 -12.1769,-5.2898 -125.211,-6.6719 -25.0421,-0.3062 -49.0145,-0.4732 -69.4902,-0.5058 z"
           id="path4774"
           inkscape:connector-curvature="0" />
        <path
           style="fill:#ffaaaa;stroke:none"
           d="m 1161.1704,1565.4599 c -4.575,-3.3488 -6.8178,-9.022 -5.9623,-15.0825 1.1642,-8.2477 3.8192,-9.894 17.583,-10.9035 20.8126,-1.5264 37.9552,10.5015 31.0822,21.8082 -5.4861,9.0254 -32.4728,11.6656 -42.7029,4.1778 z"
           id="path4862"
           inkscape:connector-curvature="0" />
        <path
           style="fill:#e6e6e6;stroke:none"
           d="m 637.19727,1162.5781 c -2.86574,0 -6.87807,2.0058 -8.91407,4.459 -3.17796,3.8292 -0.65805,7.4846 17.80664,25.8301 11.82955,11.7532 25.87354,29.0633 31.20899,38.4668 5.33545,9.4036 17.20962,29.996 26.38672,45.7598 11.88936,20.4226 18.05009,28.4021 21.42968,27.7617 11.45396,-2.1703 4.04625,-28.7239 -17.10742,-61.3282 -16.22542,-25.0083 -65.1596,-80.9492 -70.81054,-80.9492 z m 121.04101,191.4278 c -9.19455,0 -12.51481,8.0973 -5.4414,13.2695 6.29651,4.6041 18.49023,5.1504 18.49023,0.8281 0,-7.2291 -6.35848,-14.0976 -13.04883,-14.0976 z m 31.98438,62.082 c -0.33248,-0.032 -0.68167,0.061 -1.04688,0.2891 -2.81419,1.7585 -2.81419,5.6922 0,19.205 2.99709,14.3911 3.67554,15.5809 4.42969,7.7715 1.44151,-14.9272 -0.16886,-26.9535 -3.38281,-27.2656 z m 16.39453,102.2051 c -0.4673,0 -0.61875,2.4767 -0.76172,7.8554 -0.15664,5.8928 1.00279,10.7129 2.57422,10.7129 3.27077,0 3.27077,-4.0721 0,-14.2851 -0.89317,-2.7889 -1.44904,-4.2842 -1.8125,-4.2832 z m 10.88086,98.8828 c -5.12103,-0.33 -5.75181,12.1939 -6.86914,66.1152 -1.24212,59.9428 -1.99996,68.0462 -7.75782,82.9902 -3.50948,9.1086 -5.66367,18.4286 -4.78711,20.7129 4.38642,11.4308 20.35222,-0.3798 25.9375,-19.1875 13.43324,-45.2346 12.03751,-139.6467 -2.19921,-148.6992 -1.72124,-1.0945 -3.14245,-1.8554 -4.32422,-1.9316 z"
           transform="translate(5.7142857,0)"
           id="path4864"
           inkscape:connector-curvature="0" />
        <path
           style="fill:#502d16;stroke:none"
           d="m 938.85547,1696.4375 c -4.72741,0.211 -9.52124,8.5617 -17.38281,28.0742 -13.61231,33.7859 -30.22266,79.8383 -30.22266,83.7949 0,1.6893 6.18673,2.5322 14.89062,2.0274 l 14.89063,-0.8652 6.39258,-32.6407 c 3.51564,-17.9528 9.70076,-41.5707 13.74609,-52.4843 5.65132,-15.2464 6.59693,-20.757 4.08203,-23.7872 -2.11671,-2.5505 -4.03039,-3.9876 -5.93945,-4.1132 -0.15246,-0.01 -0.30453,-0.013 -0.45703,-0.01 z m 56.44726,45.6133 c -0.8179,-0.013 -1.87819,-3e-4 -3.28125,0.018 -4.1654,0.052 -5.01433,0.1541 -3.14453,0.3828 1.73452,0.2121 3.09372,0.7604 4.20703,1.6972 1.30539,1.0985 2.15582,1.3829 4.13282,1.3828 2.0265,0 2.69439,0.2361 3.5879,1.2637 0.6605,0.7597 1.6368,1.2617 2.4512,1.2617 3.3032,0 6.106,0.7036 7.33,1.8379 0.9847,0.9126 1.9073,1.2079 3.9141,1.2539 3.9933,0.091 5.5983,0.5681 6.1543,1.834 0.4504,1.0255 0.8506,1.1367 4.1348,1.1367 4.0629,0 6.0827,0.58 7.1074,2.043 0.579,0.8267 1.2939,0.9863 4.4121,0.9863 3.2878,0 3.9052,0.1554 5.3105,1.3379 1.3918,1.1711 2.1833,1.3778 6.3418,1.6465 4.0079,0.2589 4.9293,0.484 5.8848,1.4395 0.9211,0.9211 1.6975,1.1328 4.1523,1.1328 2.3482,0 2.8836,-0.1341 2.4122,-0.6055 -0.3334,-0.3334 -0.6055,-1.0155 -0.6055,-1.5156 0,-0.6689 -0.3917,-0.9102 -1.4824,-0.9102 -2.1482,0 -3.9412,-0.8064 -4.2989,-1.9336 -0.257,-0.8097 -0.8941,-1.0179 -3.6484,-1.1933 -2.8872,-0.1839 -3.4854,-0.3954 -4.4238,-1.5723 -0.9702,-1.2168 -1.4174,-1.3613 -4.2442,-1.3613 -2.6491,0 -3.3551,-0.1931 -4.3554,-1.1934 -0.984,-0.984 -1.9324,-1.2553 -5.4063,-1.5488 -5.4586,-0.4612 -6.3902,-0.7089 -6.7305,-1.7813 -0.2351,-0.7407 -1.1034,-0.931 -5.2597,-1.1601 -5.0685,-0.2792 -7.1231,-0.8857 -7.1231,-2.1016 0,-0.5214 -1.4798,-0.7275 -6.3789,-0.8906 -6.185,-0.2059 -6.4133,-0.2538 -7.55076,-1.5762 -0.8654,-1.0064 -1.14601,-1.2712 -3.59961,-1.3105 z m 110.96677,6.0058 c -8.6531,0 -8.9819,0.038 -9.2461,1.0489 -0.1507,0.5762 -0.7228,1.1646 -1.2734,1.3086 -0.8296,0.217 -1.0617,0.862 -1.3535,3.7675 -0.3264,3.2507 -1.1284,4.9883 -2.3027,4.9883 -0.2581,0 -0.4726,1.9874 -0.4786,4.418 -0.014,6.3043 -0.7331,10.635 -1.9824,11.9648 -1.0252,1.0913 -1.0391,1.5208 -1.039,30.793 0,29.5263 0.01,29.6907 1.0585,30.543 1.1996,0.9714 1.9167,3.9938 1.9493,8.2109 0.019,2.4207 0.2004,2.9644 1.2148,3.6289 0.8162,0.5351 1.3009,1.4686 1.5352,2.961 0.2024,1.2893 0.763,2.502 1.3691,2.9667 0.6263,0.4802 1.1377,1.6272 1.3145,2.9454 0.2217,1.653 0.5649,2.263 1.4707,2.6074 0.8764,0.3332 1.2677,0.9821 1.5117,2.5078 0.253,1.5819 0.6651,2.2315 1.7773,2.8066 1.0012,0.5178 1.4453,1.1335 1.4453,1.9981 0,0.9076 0.2739,1.25 0.9981,1.25 0.5972,0 1.3119,0.6063 1.7812,1.5137 0.4309,0.8334 1.1245,1.5156 1.541,1.5156 0.4164,0 0.9724,0.5692 1.2364,1.2637 0.4358,1.1461 0.751,1.2617 3.4043,1.2617 2.517,0 2.9906,-0.1532 3.4199,-1.1035 0.2742,-0.6071 1.1822,-1.3172 2.0156,-1.5782 0.8333,-0.261 2.0829,-0.9986 2.7774,-1.6386 0.6945,-0.64 1.8383,-1.3047 2.5429,-1.4786 0.7046,-0.174 1.5,-0.8159 1.7676,-1.4257 0.2677,-0.6098 0.9877,-1.1806 1.5996,-1.2676 0.6118,-0.087 1.253,-0.5988 1.4238,-1.1367 0.1707,-0.538 0.5338,-0.9766 0.8086,-0.9766 0.2747,0 2.1976,-1.7612 4.2715,-3.9141 5.1411,-5.337 5.9599,-6.2814 6.4004,-7.3671 0.2091,-0.5153 0.8109,-1.0483 1.336,-1.1856 0.5338,-0.1396 1.0754,-0.8537 1.2285,-1.6191 0.1505,-0.7527 0.8215,-1.9264 1.4922,-2.6075 0.6706,-0.6811 1.3738,-1.8708 1.5625,-2.6445 0.2056,-0.8435 0.8432,-1.5962 1.5918,-1.8808 1.011,-0.3843 1.248,-0.8228 1.248,-2.3047 0,-1.3823 0.3712,-2.1771 1.5156,-3.2461 0.8333,-0.7785 1.5175,-1.836 1.5215,-2.3496 0.013,-1.7879 0.6134,-3.1756 1.4942,-3.4551 0.6084,-0.1931 1.0266,-1.1087 1.3339,-2.9199 0.3406,-2.0077 0.7216,-2.7595 1.586,-3.1387 0.8963,-0.3932 1.1347,-0.9109 1.1347,-2.4492 0,-2.1617 1.3022,-5.3348 2.3536,-5.7383 0.4146,-0.1591 0.6815,-1.0739 0.6855,-2.3535 0.01,-3.0498 0.4314,-4.1721 1.8027,-4.7969 1.1223,-0.5113 1.2207,-0.8429 1.2207,-4.1289 0,-3.5871 0.8501,-6.2466 2.1348,-6.6738 0.4433,-0.1473 0.7234,-1.8918 0.9043,-5.6368 0.23,-4.7582 0.3951,-5.5276 1.3398,-6.2714 0.9886,-0.7783 1.1053,-1.5109 1.4317,-8.9297 0.3436,-7.8097 1.0456,-11.3633 2.2441,-11.3633 0.3196,0 0.5313,-1.3821 0.5313,-3.4727 0,-3.4607 -0.01,-3.4747 -1.5293,-3.7793 -0.8405,-0.1681 -2.1008,-0.8781 -2.8008,-1.5781 -1.1886,-1.1891 -1.6027,-1.2715 -6.2676,-1.2715 -5.2127,0 -7.1535,-0.4424 -8.8476,-2.0156 -0.8548,-0.7937 -2.0246,-0.9641 -7.6016,-1.1035 -5.5841,-0.1396 -6.8191,-0.3179 -8.082,-1.1738 -1.2561,-0.8513 -2.8711,-1.0922 -10.2754,-1.5293 -8.2276,-0.4857 -8.8351,-0.5912 -9.5332,-1.6426 -0.7239,-1.0899 -1.0043,-1.1231 -9.7149,-1.1231 z m 254.7129,17.6778 c -1.879,0 -2.2671,0.1838 -2.6777,1.2636 -0.3321,0.8737 -0.8627,1.2618 -1.7207,1.2618 -0.8968,0 -1.2837,0.3123 -1.4004,1.125 -0.089,0.618 -0.7293,1.4054 -1.4238,1.75 -0.6945,0.3445 -1.3868,1.1446 -1.5371,1.7793 -0.1642,0.6935 -0.7181,1.2194 -1.3887,1.3164 -0.6591,0.095 -1.1153,0.5186 -1.1152,1.0351 0,1.354 -1.177,3.5747 -2.043,3.8555 -0.4288,0.139 -0.9961,0.9923 -1.2617,1.8945 -0.3325,1.1294 -0.8387,1.6896 -1.6211,1.8008 -0.8535,0.1212 -1.1374,0.4988 -1.1426,1.5156 -0.012,2.3563 -0.5991,3.6902 -1.8301,4.1582 -0.977,0.3714 -1.1933,0.815 -1.1933,2.4493 0,1.8674 -0.9739,3.5859 -2.0332,3.5859 -0.2455,0 -0.59,0.8509 -0.7657,1.8926 -0.5198,3.0809 -0.7425,3.5965 -1.6816,3.8945 -0.6118,0.1942 -1.0412,1.1164 -1.3633,2.9297 -0.3556,2.0018 -0.746,2.7674 -1.6055,3.1445 -0.9151,0.4015 -1.1367,0.907 -1.1367,2.5899 0,3.5265 -0.5522,5.2884 -1.8398,5.875 -1.0509,0.4789 -1.1914,0.8851 -1.1914,3.4589 0,3.5705 -0.6002,5.2836 -1.9805,5.6446 -0.929,0.2429 -1.0488,0.658 -1.0488,3.6289 0,2.9416 -0.1585,3.5005 -1.2813,4.541 -0.9292,0.8612 -1.3657,1.9079 -1.5918,3.8164 -0.1938,1.6365 -0.7405,3.1402 -1.4492,3.9824 -0.6263,0.7444 -1.303,2.4395 -1.502,3.7657 -0.2601,1.7348 -0.6984,2.631 -1.5624,3.1972 -0.6935,0.4543 -1.2012,1.2825 -1.2012,1.959 0,1.9082 -0.9493,3.8415 -2.0254,4.1231 -0.7024,0.1836 -1.0039,0.6897 -1.0039,1.6855 0,2.1275 -0.8237,3.8869 -1.9922,4.2578 -0.7878,0.2501 -1.0391,0.758 -1.0391,2.0977 0,2.1173 -0.7691,3.7207 -1.7851,3.7207 -0.5793,0 -0.7403,0.7669 -0.7403,3.5351 0,2.8281 0.1549,3.5352 0.7696,3.5352 0.4226,0 1.0221,0.5561 1.332,1.2363 0.3099,0.6801 1.0439,1.3319 1.6309,1.4473 3.6232,0.7123 8.0715,0.018 8.6738,-1.3535 0.3325,-0.757 1.1789,-1.2127 2.8476,-1.5352 1.8414,-0.3558 2.4083,-0.6964 2.5254,-1.5156 0.093,-0.6549 0.5886,-1.1197 1.3008,-1.2207 0.6319,-0.09 1.512,-0.7174 1.9571,-1.3965 0.4911,-0.7497 1.6347,-1.444 2.9121,-1.7656 1.3563,-0.3415 2.2757,-0.9217 2.5879,-1.6328 0.2898,-0.6604 1.0308,-1.1658 1.8437,-1.2598 0.9308,-0.1075 1.4058,-0.4917 1.5137,-1.2227 0.099,-0.6674 0.7254,-1.2503 1.6738,-1.5586 0.8334,-0.271 2.2613,-1.1411 3.1738,-1.9336 0.9124,-0.7925 2.0906,-1.4414 2.6172,-1.4414 0.6084,0 1.0147,-0.4146 1.1172,-1.1367 0.1044,-0.7346 0.5679,-1.1934 1.3106,-1.2988 0.6319,-0.09 1.494,-0.6871 1.914,-1.3281 0.4383,-0.6689 1.7121,-1.4312 2.9902,-1.7891 1.6414,-0.4595 2.2676,-0.9062 2.3809,-1.7012 0.1056,-0.7406 0.5718,-1.1279 1.4902,-1.2343 0.8107,-0.094 1.4381,-0.5374 1.5918,-1.125 0.1394,-0.5332 0.9017,-1.252 1.6934,-1.5977 0.7917,-0.3457 1.9438,-1.1506 2.5605,-1.7891 0.6166,-0.6385 1.8033,-1.2981 2.6368,-1.4648 0.8885,-0.1777 1.6452,-0.7128 1.83,-1.2949 0.1733,-0.546 0.976,-1.2226 1.7832,-1.5039 0.8071,-0.2814 1.4668,-0.8424 1.4668,-1.2461 0,-0.4037 0.7379,-1.0496 1.6407,-1.4356 0.9028,-0.386 2.2354,-1.2644 2.9609,-1.9511 0.7256,-0.6866 1.862,-1.324 2.5254,-1.418 0.807,-0.1141 1.2614,-0.5544 1.3711,-1.3281 0.1126,-0.7937 0.5947,-1.2429 1.5391,-1.4317 0.7569,-0.1514 1.5933,-0.7525 1.8574,-1.3359 0.2641,-0.5835 1.1229,-1.2708 1.9082,-1.5274 0.7853,-0.2566 2.1003,-1.1246 2.9218,-1.9277 0.8216,-0.8031 1.9158,-1.459 2.4317,-1.459 0.5793,0 1.0582,-0.4839 1.2539,-1.2637 0.2022,-0.8057 0.6738,-1.2617 1.3008,-1.2617 0.5405,0 1.235,-0.4736 1.5449,-1.0527 0.31,-0.5791 1.2836,-1.3557 2.1641,-1.7246 0.8805,-0.3689 2.1526,-1.2579 2.8261,-1.9766 0.6734,-0.7188 1.7524,-1.3066 2.3985,-1.3066 0.8542,0 1.1758,-0.2882 1.1758,-1.0547 0,-0.702 0.4953,-1.2407 1.4824,-1.6133 0.8151,-0.3076 1.5884,-0.9665 1.7187,-1.4648 0.1302,-0.4982 0.8132,-1.1248 1.5176,-1.3926 0.7045,-0.2679 1.522,-0.9383 1.8164,-1.4883 0.2944,-0.5501 0.989,-1.1439 1.5449,-1.3203 1.5727,-0.4992 1.4183,-3.6586 -0.209,-4.2773 -0.6707,-0.255 -1.3642,-0.9193 -1.541,-1.4766 -0.1769,-0.5573 -0.7776,-1.1587 -1.3359,-1.3359 -0.5583,-0.1772 -1.257,-0.8529 -1.5527,-1.502 -0.2957,-0.649 -1.0751,-1.314 -1.7305,-1.4785 -0.7124,-0.1788 -1.3176,-0.8044 -1.5059,-1.5547 -0.1982,-0.7895 -0.6734,-1.2539 -1.2812,-1.2539 -0.5323,0 -1.2163,-0.5503 -1.5235,-1.2246 -0.3067,-0.6731 -1.0722,-1.3539 -1.7011,-1.5117 -0.6579,-0.1651 -1.2753,-0.8087 -1.4532,-1.5176 -0.1933,-0.7701 -0.7355,-1.2937 -1.4453,-1.3945 -0.6246,-0.089 -1.3628,-0.68 -1.6406,-1.3145 -0.3065,-0.7002 -1.26,-1.3804 -2.4277,-1.7305 -1.0581,-0.3172 -2.1565,-1.0084 -2.4395,-1.5371 -0.2829,-0.5286 -1.1783,-1.1935 -1.9902,-1.4765 -0.9428,-0.3287 -1.4766,-0.8666 -1.4766,-1.4883 0,-0.6784 -0.4609,-1.0653 -1.5215,-1.2774 -1.0453,-0.209 -1.6156,-0.6788 -1.8222,-1.5019 -0.1891,-0.7533 -0.6699,-1.1992 -1.2949,-1.1992 -0.5469,0 -1.649,-0.6548 -2.4493,-1.4551 -0.8004,-0.8003 -2.0402,-1.6017 -2.7558,-1.7813 -0.7156,-0.1796 -1.5582,-0.8893 -1.8711,-1.5761 -0.3231,-0.7092 -0.9952,-1.2481 -1.5567,-1.2481 -0.5438,0 -1.7656,-0.6822 -2.7148,-1.5156 -0.9491,-0.8334 -2.2464,-1.5156 -2.8828,-1.5156 -0.6364,0 -1.6914,-0.5673 -2.3438,-1.2618 -0.9128,-0.9716 -1.692,-1.2636 -3.3828,-1.2636 z m -380.93552,5.5566 c -2.7835,0 -3.99076,0.2161 -4.67579,0.836 -1.20836,1.0936 -1.17843,2.5501 0.0606,2.9433 0.54138,0.1718 1.1233,0.7561 1.29492,1.2969 0.17162,0.5407 0.86506,1.097 1.54102,1.2363 l 2.45898,0.5078 c 0.67596,0.1395 1.3727,0.7068 1.54883,1.2617 0.25986,0.8188 0.76638,1.0118 2.68555,1.0118 3.28326,0 6.03723,0.855 6.39258,1.9746 0.25499,0.8034 0.97864,0.9641 5.14843,1.1465 4.4941,0.1966 4.9311,0.31 5.9199,1.5293 0.9877,1.2179 1.4157,1.3286 5.7343,1.4882 4.3367,0.1602 4.7589,0.2702 5.9551,1.5606 1.2305,1.328 1.5003,1.3906 6.0899,1.3906 4.4056,0 4.8935,0.099 5.914,1.1992 0.9762,1.0527 1.7498,1.2436 6.3185,1.5703 4.4088,0.3153 5.4204,0.5555 6.6171,1.5625 1.2712,1.0697 1.9917,1.2041 7.17,1.3496 10.252,0.2882 10.7886,0.283 12.0684,-0.1269 0.8613,-0.2758 0.9794,-0.4211 0.3691,-0.4551 -0.4921,-0.028 -1.1366,-0.5788 -1.4316,-1.2265 -0.4091,-0.8977 -1.157,-1.2888 -3.1465,-1.6426 -2.1505,-0.3823 -2.6385,-0.663 -2.7715,-1.5996 -0.1419,-0.9984 -0.4555,-1.1367 -2.5879,-1.1367 -3.8631,0 -5.6105,-0.5178 -6.2129,-1.8399 -0.4988,-1.0948 -0.8437,-1.1914 -4.2734,-1.1914 -3.3742,0 -3.8488,-0.1248 -4.9551,-1.3184 -1.0727,-1.1576 -1.7615,-1.3622 -5.5918,-1.6601 -3.6608,-0.2846 -4.5144,-0.5216 -5.2734,-1.459 -0.6712,-0.8288 -1.4713,-1.1273 -3.0957,-1.1543 -4.3282,-0.073 -7.6361,-0.7843 -8.4766,-1.8223 -0.6656,-0.822 -1.653,-1.0621 -5.3477,-1.3046 -5.2367,-0.3439 -6.14692,-0.6119 -6.56642,-1.9336 -0.2731,-0.8603 -0.82876,-0.9668 -5.19531,-0.9668 -5.58243,0 -8.43414,-0.6291 -9.31836,-2.045 -0.51868,-0.8305 -1.1958,-0.9824 -4.36718,-0.9824 z m 287.38472,8.5957 0,0 c -11.9422,0.01 -27.1634,0.1232 -40.4902,0.3437 -12.8497,0.2126 -20.4113,0.5051 -18.8965,0.7324 1.5904,0.2386 2.8344,0.7606 3.3594,1.4082 0.8083,0.9971 1.4138,1.0309 19.9492,1.1622 10.5143,0.075 27.0306,0.04 36.7031,-0.076 l 17.586,-0.2129 1.4629,-1.3652 c 0.8044,-0.7514 1.32,-1.5101 1.1445,-1.6856 -0.2127,-0.2129 -8.8762,-0.3154 -20.8184,-0.3086 z m -295.00582,26.7578 0,0 c -0.56119,0 -1.00976,0.3369 -1.00976,0.7578 0,0.4167 0.22806,0.7578 0.50586,0.7578 0.27778,0 0.5039,0.3386 0.5039,0.752 0,0.489 0.72188,0.8653 2.06445,1.08 1.49315,0.2388 2.21278,0.6596 2.60547,1.5215 0.46646,1.0238 0.90401,1.1953 3.11328,1.1953 3.32407,0 5.97478,0.7551 7.11914,2.0196 0.72011,0.7958 1.55845,1.0097 3.99024,1.0097 3.80261,0 6.43205,0.7011 7.62695,2.0215 0.7789,0.8607 1.55679,1.0059 5.34569,1.0059 4.625,0 6.804,0.513 7.7656,1.8281 0.436,0.5963 2.1225,0.8621 7.2246,1.1406 5.8327,0.3184 6.7981,0.4983 7.8145,1.4532 0.9603,0.9021 1.8959,1.1192 5.4434,1.2617 2.3564,0.095 6.7841,0.189 9.8398,0.209 l 5.5566,0.037 -4.9882,-0.5899 c -4.1116,-0.4853 -5.1458,-0.7837 -5.8887,-1.7012 -0.72,-0.8891 -1.4451,-1.1187 -3.5996,-1.1367 -4.1843,-0.034 -7.135,-0.7601 -7.9258,-1.9511 -0.5939,-0.8945 -1.2144,-1.0586 -4.0488,-1.0586 -4.1621,0 -6.964,-0.7512 -7.6543,-2.041 -0.4604,-0.8604 -1.0775,-0.9864 -4.7715,-0.9864 -4.4794,0 -6.6194,-0.5254 -7.5977,-1.8633 -0.4498,-0.6151 -1.85199,-0.8889 -5.76949,-1.1211 -4.45236,-0.2639 -5.29818,-0.4567 -6.04493,-1.3789 -0.75456,-0.9318 -1.62307,-1.1209 -6.64453,-1.4453 -5.48917,-0.3547 -9.56445,-1.3478 -9.56445,-2.33 0,-0.2476 -0.45613,-0.4493 -1.01172,-0.4493 z m 246.20702,5.586 0,0 c -14.2588,-0.024 -25.0157,0.046 -26.164,0.1895 l -2.7852,0.3476 0.5176,1.4844 0.5176,1.4844 6.3906,0.023 c 9.7354,0.041 26.2815,1.3986 29.1172,2.3887 0.9217,0.3218 7.7919,0.5463 17.5371,0.5723 15.1156,0.041 16.1296,-0.014 17.9687,-0.9727 1.7796,-0.9275 8.3027,-1.7544 16.2656,-2.0605 1.5957,-0.061 1.5218,-0.113 -0.7578,-0.5469 -1.389,-0.2643 -3.0427,-0.9667 -3.6757,-1.5606 -1.1507,-1.0795 -1.1615,-1.0805 -39.7325,-1.2949 -5.3049,-0.029 -10.4462,-0.049 -15.1992,-0.057 z m -18.418,29.3613 c -5.4393,-0.02 -8.8592,0.01 -8.9453,0.096 -0.1723,0.1723 1.7125,0.3277 4.1895,0.3457 8.3281,0.059 21.6367,1.4941 22.5762,2.4336 0.3709,0.371 3.3491,0.5645 8.6386,0.5644 7.2522,0 8.3038,-0.111 10.3379,-1.0957 1.7494,-0.8469 3.596,-1.1662 8.1153,-1.4043 3.6369,-0.1914 -5.3852,-0.4686 -23.8477,-0.7324 -8.1666,-0.1167 -15.6252,-0.1868 -21.0645,-0.207 z m -223.8105,19.7793 c -1.13215,-0.01 -1.81921,0.072 -1.99219,0.2519 -2.77004,2.8813 -13.92969,36.5634 -13.92969,42.043 0,2.8086 2.81442,4.4634 7.85742,4.6231 4.32143,0.1368 19.10739,1.1096 32.85746,2.1601 21.5888,1.6493 25,1.2994 25,-2.5605 0,-2.4584 1.7462,-6.8581 3.8808,-9.7774 3.7706,-5.1565 5.9902,-5.0867 77.8574,2.461 93.4319,9.8123 93.7321,9.8751 94.8633,19.541 0.6714,5.7365 2.7588,7.8679 8.5723,8.7558 12.6082,1.9256 99.7025,2.1711 104.5918,0.295 6.168,-2.3669 5.6756,-13.3721 -1.2031,-26.8555 -7.7784,-15.247 -12.1992,-17.0044 -36.1524,-14.375 -11.1958,1.229 -41.0044,1.5748 -66.2422,0.7695 -42.7106,-1.3629 -47.0869,-1.0155 -63.2246,5.0196 -21.5774,8.0694 -35.254,6.6839 -52.0683,-5.2754 -6.7675,-4.8133 -18.4261,-10.0972 -25.9102,-11.7422 -31.3014,-6.8796 -83.81373,-15.2527 -94.7578,-15.334 z m -25.24024,93.1504 c -5.46692,0.1972 -6.10223,5.5899 -9.41992,34.1543 l -1.90039,16.3476 41.03516,0.8789 c 22.56839,0.4838 117.94029,1.1636 211.93749,1.5098 l 170.9024,0.6289 -0.9024,-7.8515 c -1.585,-13.7656 -16.6488,-18.3152 -69.4766,-20.9805 -25.1428,-1.2685 -61.2927,-2.3712 -80.3339,-2.4512 l -34.6211,-0.1445 -7.5625,11.4277 c -6.5742,9.9341 -8.9583,11.4303 -18.2364,11.4473 -17.5874,0.032 -98.7819,-8.7365 -105.2695,-11.3692 -4.1511,-1.6844 -6.5901,-5.9766 -7.8418,-13.8046 -2.1619,-13.5197 -2.7622,-13.7382 -44.70507,-16.1915 -16.49998,-0.9652 -34.02978,-2.3731 -38.95508,-3.1289 -1.86836,-0.2867 -3.38879,-0.5181 -4.65039,-0.4726 z"
           transform="translate(5.7142857,0)"
           id="path4889"
           inkscape:connector-curvature="0" />
      </g>
    </g>
  </g>
</svg>
