<?xml version="1.0" encoding="UTF-8" standalone="no"?>
<!-- Created with Inkscape (http://www.inkscape.org/) -->

<svg
   xmlns:dc="http://purl.org/dc/elements/1.1/"
   xmlns:cc="http://creativecommons.org/ns#"
   xmlns:rdf="http://www.w3.org/1999/02/22-rdf-syntax-ns#"
   xmlns:svg="http://www.w3.org/2000/svg"
   xmlns="http://www.w3.org/2000/svg"
   xmlns:sodipodi="http://sodipodi.sourceforge.net/DTD/sodipodi-0.dtd"
   xmlns:inkscape="http://www.inkscape.org/namespaces/inkscape"
   version="1.1"
   width="367.30365"
   height="456.64532"
   id="svg3439"
   inkscape:version="0.48.5 r10040"
   sodipodi:docname="star_trek_27.svg">
  <sodipodi:namedview
     pagecolor="#ffffff"
     bordercolor="#666666"
     borderopacity="1"
     objecttolerance="10"
     gridtolerance="10"
     guidetolerance="10"
     inkscape:pageopacity="0"
     inkscape:pageshadow="2"
     inkscape:window-width="640"
     inkscape:window-height="480"
     id="namedview10"
     showgrid="false"
     inkscape:zoom="0.43784787"
     inkscape:cx="207.78402"
     inkscape:cy="208.7211"
     inkscape:window-x="0"
     inkscape:window-y="0"
     inkscape:window-maximized="0"
     inkscape:current-layer="svg3439" />
  <metadata
     id="metadata3445">
    <rdf:RDF>
      <cc:Work
         rdf:about="">
        <dc:format>image/svg+xml</dc:format>
        <dc:type
           rdf:resource="http://purl.org/dc/dcmitype/StillImage" />
        <dc:title />
      </cc:Work>
    </rdf:RDF>
  </metadata>
  <defs
     id="defs3443" />
  <g
     id="g3647"
     transform="translate(-57.21598,-21.575775)">
    <path
       d="m 366.76586,380.77745 c -1.98089,0.0171 -3.99326,-0.0163 -5.95516,0.0662 -0.62771,0.0739 -0.48545,0.81028 -0.21942,1.17981 4.50856,9.39303 9.13323,18.73575 14.05602,27.91605 3.23346,6.05449 6.79557,11.90649 10.02506,17.96509 0.93982,1.5962 1.73544,3.30111 2.89242,4.7534 0.34217,0.53387 1.19379,0.20998 1.11344,-0.41635 0.007,-2.17096 -0.62061,-4.30224 -0.41005,-6.47561 -0.10269,-2.5309 -1.01985,-4.95767 -1.13324,-7.48759 -0.68008,-4.8006 -1.67253,-9.55275 -2.4468,-14.33961 -1.3104,-7.57385 -2.57265,-15.16433 -3.97747,-22.71668 -0.30638,-0.73222 -1.24498,-0.32117 -1.85782,-0.43639 -4.02895,-0.0117 -8.05802,-0.0218 -12.08698,-0.008 z m -85.5361,-173.49781 c -0.44917,0.77663 -0.92689,1.58958 -1.18283,2.45399 0.17706,0.72417 1.10828,0.7623 1.65912,1.06612 2.37549,1.00388 4.55443,2.39685 6.9172,3.43179 6.66429,3.1477 13.60392,5.67913 20.04506,9.27025 2.96788,1.76596 6.1339,3.20073 9.06857,5.03988 8.3551,5.09958 16.27874,10.90484 24.71331,15.86653 1.21439,0.71763 2.29133,1.63996 3.55461,2.2771 0.63783,0.18623 0.83934,-0.57874 0.64976,-1.04405 -0.23602,-1.23143 -0.73612,-2.41527 -0.68762,-3.68412 -0.40664,-2.78669 -1.90712,-5.26576 -2.52715,-7.99392 -1.8842,-5.90133 -3.92151,-11.75973 -5.85882,-17.64694 -1.01136,-2.95742 -1.9411,-5.9588 -3.00318,-8.88889 -0.45641,-0.52395 -1.30423,-0.15253 -1.9248,-0.26444 -17.03489,0 -34.06977,0 -51.10465,0 -0.1062,0.0389 -0.21239,0.0778 -0.31858,0.1167 z m 74.07734,152.96917 c -1.13087,0.0142 -1.83044,1.62706 -0.93675,2.39319 0.72173,0.61968 1.87158,0.79025 2.70767,0.31002 0.59148,-0.38292 0.62345,-1.26989 0.0985,-1.7225 -0.47407,-0.53855 -1.11082,-1.03066 -1.86944,-0.98071 z m -4.27561,-2.59615 c -0.66421,0.11022 -0.58899,0.93014 -0.44831,1.41629 0.4536,1.69376 0.9364,3.40417 1.62594,5.02279 0.18301,0.4494 0.83537,0.71141 1.16425,0.26764 0.45557,-0.75444 0.39333,-1.70286 0.39255,-2.55823 -0.1166,-1.63927 -0.98626,-3.28522 -2.43333,-4.1128 -0.0964,-0.0317 -0.19955,-0.0498 -0.3011,-0.0357 z m -2.79466,1.59249 c -0.72358,0.019 -1.74261,0.26032 -1.85566,1.11518 -0.0296,0.89531 0.90733,1.41983 1.64601,1.69062 0.98347,0.38392 2.39623,0.14165 2.84595,-0.91445 0.39086,-1.47415 -1.54244,-1.95391 -2.6363,-1.89135 z m -5.08747,-4.39829 c -0.6883,0.14469 -0.6909,0.98853 -0.58659,1.53672 0.20756,1.12555 0.30171,2.31303 0.83862,3.3411 0.24476,0.48585 0.95208,0.4748 1.21555,0.0156 0.50908,-0.68532 0.80401,-1.52933 0.70926,-2.39096 -0.0283,-1.08911 -0.86877,-2.0532 -1.84228,-2.46009 -0.10778,-0.0364 -0.22028,-0.0587 -0.33456,-0.0424 z m -2.89056,0.89884 c -0.98583,-0.01 -1.54361,1.13446 -1.24678,1.99172 0.26953,1.06907 1.4721,1.74521 2.52701,1.41851 0.73155,-0.13749 1.61755,-0.76862 1.35384,-1.61478 -0.37246,-0.98239 -1.39866,-1.63729 -2.41103,-1.78876 -0.0741,-0.007 -0.1486,-0.0126 -0.22304,-0.007 z m -3.43031,-4.04812 c -0.60282,0.0714 -0.64813,0.86021 -0.69364,1.35383 -0.0332,0.79467 -0.0807,1.64602 0.21188,2.39765 0.27294,0.50512 1.01778,0.30678 1.16872,-0.19181 0.39953,-0.98238 0.3898,-2.15413 -0.0268,-3.12921 -0.11081,-0.26185 -0.38627,-0.47935 -0.66019,-0.43046 z m -5.4131,-0.44162 c -0.53216,-0.02 -1.20765,0.3154 -1.10627,0.93899 0.13272,0.72736 0.85926,1.13344 1.32919,1.63982 0.90415,0.74745 1.83978,1.57933 3.00442,1.87078 0.54045,0.17709 1.2598,-0.1305 1.23563,-0.76725 -0.073,-0.90967 -0.74152,-1.63603 -1.307,-2.29951 -0.84391,-0.78903 -1.97582,-1.39679 -3.15597,-1.38283 z m -2.65414,0.0379 c -0.71437,0.15658 -0.6995,1.05157 -0.76864,1.62793 -0.0645,1.06759 -0.0996,2.38446 0.82663,3.11607 0.55607,0.50359 1.38972,-0.0413 1.48542,-0.69142 0.20804,-1.17771 -0.21725,-2.37209 -0.70256,-3.43031 -0.16681,-0.31673 -0.43238,-0.68088 -0.84085,-0.62227 z m 0.029,-5.52462 c -0.68716,0.17016 -0.55292,1.0211 -0.59997,1.55679 0.0368,0.91868 -0.15584,1.91241 0.2275,2.77235 0.25834,0.49533 1.00936,0.31774 1.10849,-0.20965 0.35758,-1.12102 0.36768,-2.37875 0.0691,-3.5106 -0.12067,-0.33792 -0.40575,-0.681 -0.80516,-0.60889 z m 3.47938,1.08172 c -0.55166,-0.0204 -1.32885,0.21313 -1.31146,0.88546 0.14031,0.88351 0.76919,1.63811 1.45866,2.17461 1.53441,0.8504 3.36849,0.79895 5.06963,0.71818 0.74988,-0.0959 1.69305,-0.21574 2.0854,-0.95237 0.282,-0.74345 -0.50933,-1.27195 -1.09288,-1.51665 -1.89007,-0.80219 -3.94332,-1.23066 -5.99301,-1.31146 -0.0721,-8.7e-4 -0.14423,0.001 -0.21634,0.002 z m 39.99721,0.44608 c -0.68749,0.36555 -0.96826,1.18324 -1.42112,1.77651 -1.17194,1.81435 -2.2161,3.70468 -3.54529,5.4118 -4.227,5.9824 -7.76031,12.44985 -10.56811,19.21034 -0.18294,0.65706 0.36509,1.23331 0.59434,1.8084 0.93666,1.7332 1.79215,3.511 2.65927,5.27403 0.37427,0.4342 1.04292,0.15222 1.54614,0.23318 6.00035,-0.0186 12.00143,0.0393 18.00132,-0.0335 0.47393,0.0378 1.09131,-0.13556 1.01481,-0.68919 -1.49155,-7.92737 -3.18411,-15.82359 -5.28146,-23.61332 -0.77733,-2.91301 -1.28328,-5.90628 -2.19919,-8.77387 -0.10391,-0.35481 -0.37666,-0.7303 -0.80071,-0.60443 z m -31.33446,4.28231 c -0.74866,-0.0469 -1.74582,0.18289 -1.96718,1.00589 -0.12724,0.82862 0.79785,1.25238 1.46535,1.41406 1.52464,0.42118 3.26579,-0.0113 4.63248,0.93898 0.92562,0.61528 1.21925,1.87123 2.26159,2.35973 0.81648,0.53715 1.80583,0.16837 2.70767,0.20743 0.86604,-0.0205 1.76339,-0.006 2.54039,0.43046 1.38578,0.59508 2.86691,1.53161 4.43844,1.11295 0.78765,-0.17882 1.63428,-0.94273 1.33599,-1.81552 -0.41399,-0.94126 -1.44464,-1.37668 -2.31697,-1.78476 -1.57948,-0.65923 -3.35376,-1.10162 -5.05217,-0.6508 -1.09058,0.082 -2.09318,-0.50318 -2.87046,-1.22891 -1.55704,-1.14896 -3.49532,-1.63789 -5.37299,-1.93598 -0.59809,-0.0636 -1.20145,-0.0535 -1.80214,-0.0535 z m 21.61005,-2.20361 c -0.58609,0.34005 -0.24208,1.09319 -0.0847,1.5858 0.29755,0.73316 0.66212,1.70513 1.54564,1.85343 0.61393,0.0743 1.00886,-0.6403 0.81186,-1.18432 -0.2489,-0.98419 -1.02119,-1.774 -1.87128,-2.27944 -0.13454,-0.055 -0.26867,-0.008 -0.40147,0.0245 z m -2.2326,1.8802 c -1.0578,-0.002 -1.80904,1.43304 -1.06388,2.24376 0.65571,0.77593 1.90761,0.92946 2.78796,0.4706 0.6113,-0.35139 0.67941,-1.23633 0.1762,-1.70846 -0.46765,-0.55904 -1.13732,-1.04482 -1.90028,-1.0059 z m -5.60492,-3.71356 c -0.70891,0.0341 -0.90306,0.88364 -0.6981,1.44528 0.12576,0.71601 0.78891,1.16849 1.46312,1.28915 0.63197,0.70221 0.52698,1.74896 0.65796,2.62961 -0.0131,0.4291 0.15861,1.05532 0.70643,0.97665 0.61057,-0.14546 0.65315,-0.92148 0.79684,-1.42273 0.33061,-1.68048 -0.49837,-3.39427 -1.81224,-4.42628 -0.31006,-0.26442 -0.68687,-0.52311 -1.11401,-0.49168 z m -3.39465,1.97778 c -0.87255,-0.0419 -1.7645,0.94979 -1.06166,1.72631 0.86135,0.96762 2.06883,1.8457 3.39909,1.92258 1.16122,0.0492 1.7215,-1.47617 0.88768,-2.23929 -0.81465,-0.86773 -2.02959,-1.42474 -3.22511,-1.4096 z m -3.37678,-4.31353 c -1.02346,0.0415 -1.38448,1.18378 -1.11072,2.02963 0.49221,1.87061 0.91257,3.81709 1.8289,5.53132 0.4669,0.64646 1.26085,-0.0312 1.17317,-0.66911 0.14398,-1.89754 0.3095,-3.90915 -0.33455,-5.73205 -0.26345,-0.61786 -0.8281,-1.22483 -1.5568,-1.15979 z m -3.80055,1.59248 c -1.02098,-0.0317 -1.53205,1.26666 -0.85646,1.98503 0.62249,1.08752 2.22776,1.96982 3.30095,0.96798 0.96933,-1.10487 -0.34252,-2.57398 -1.48543,-2.83703 -0.30811,-0.10189 -0.63571,-0.13559 -0.95906,-0.11598 z m -3.35001,-5.58038 c -0.74237,-0.0162 -1.68644,0.59754 -1.29808,1.43636 0.69843,1.79557 1.42282,3.61876 1.42298,5.57146 0.17422,0.92845 0.002,2.07687 0.67803,2.81919 0.92038,0.4273 1.18487,-0.88071 1.18949,-1.52954 0.0808,-2.17131 0.23692,-4.37908 -0.052,-6.53548 -0.24389,-0.88497 -0.89089,-1.87874 -1.94042,-1.76199 z m -4.99157,0.54421 c -1.16532,0.23892 -0.92336,1.84303 -0.48622,2.62291 0.77004,1.19239 2.33072,1.70584 3.68903,1.704 0.99083,-0.0268 1.15078,-1.34417 0.53529,-1.9538 -0.93227,-1.07535 -2.15893,-2.00372 -3.53737,-2.37311 -0.0667,-0.007 -0.13401,-0.006 -0.20073,0 z m -3.34556,-6.53498 c -0.75718,-0.0577 -1.50354,0.75024 -0.9992,1.44974 0.985,1.16802 1.21289,2.76056 1.03935,4.25108 0.0124,1.60098 -0.74538,3.33215 0,4.85328 0.41473,0.76421 1.44761,0.31932 1.60587,-0.40592 0.90222,-2.53599 0.61289,-5.30803 0.60541,-7.95314 0.0169,-1.15368 -0.85338,-2.35706 -2.10422,-2.20397 l -0.0446,0 -0.1026,0.009 z m -4.75514,-0.56652 c -1.12808,0.30195 -0.70481,1.76271 -0.32564,2.51586 0.73565,1.37842 1.7278,2.96759 3.35448,3.33663 1.03738,0.10927 1.35284,-1.19526 0.90553,-1.93596 -0.7433,-1.55569 -1.91449,-3.01833 -3.44369,-3.84516 -0.15537,-0.0583 -0.32478,-0.0884 -0.49068,-0.0714 z m -3.95668,9.67534 c -0.99581,0.019 -1.44985,1.21585 -0.96798,2.00734 0.79552,1.59271 1.96428,3.28217 3.74256,3.80947 1.05255,0.30879 1.69188,-0.9285 1.32484,-1.80214 -0.51481,-1.6793 -1.7995,-3.13058 -3.37232,-3.89869 -0.229,-0.0935 -0.48007,-0.13934 -0.7271,-0.11598 z m -0.15612,-5.78111 c -0.9367,0.39292 -0.59938,1.68778 -0.40593,2.4534 0.88521,2.45528 3.67699,3.31006 5.99642,3.78626 0.74217,0.23575 2.14558,0.57496 2.32286,-0.53438 0.0739,-1.96678 -1.91727,-3.08655 -3.54629,-3.62212 -1.37846,-0.37764 -2.70162,-0.97202 -3.75148,-1.97164 -0.1876,-0.10329 -0.40107,-0.16486 -0.61558,-0.11152 z m -1.81999,1.36052 c -1.03673,0.40695 -1.13206,1.77417 -1.43635,2.70321 -0.33497,1.82132 -0.50637,3.72978 -0.24088,5.567 0.19986,0.83072 1.31706,0.62417 1.44081,-0.13828 0.56989,-2.47016 1.03683,-5.01423 0.98583,-7.56095 -0.0487,-0.35662 -0.38421,-0.63928 -0.74941,-0.57098 z m 4.8176,-8.94824 c -1.12428,0.46809 -1.6817,1.74064 -2.19468,2.77458 -0.73014,1.41782 -0.41223,3.35842 1.04381,4.17971 0.85671,0.48791 1.37856,-0.62328 1.39175,-1.32484 0.19902,-1.69875 0.60709,-3.4235 0.48176,-5.13431 -0.0802,-0.31344 -0.39312,-0.55404 -0.72264,-0.49514 z m -11.478,-25.77685 c -1.33989,0.0299 -1.66422,1.68946 -1.02828,2.64954 2.36136,4.423 5.5764,8.35072 8.77633,12.19492 1.101,1.11214 2.05907,2.59125 3.49989,3.24183 1.29676,-0.38737 1.71355,-2.01 2.51707,-2.96497 1.53675,-2.59959 3.40701,-5.17308 4.07525,-8.16311 0.27073,-1.326 -1.24149,-1.72349 -2.20631,-1.99302 -4.92154,-1.66774 -9.74245,-3.7416 -14.79877,-4.91467 -0.27496,-0.0543 -0.55575,-0.0695 -0.83518,-0.0505 z M 128.40582,241.12826 c -2.94218,0.0763 -5.62292,1.67558 -7.61002,3.75594 -0.32724,0.59602 -1.08815,0.31784 -1.4319,0.85646 -1.28797,0.32174 -2.84808,-0.50088 -4.09942,0.32564 -1.33356,0.6931 -1.87572,2.36721 -3.27418,2.88163 -2.61624,0.35715 -5.34972,-0.53623 -7.90443,0.40147 -2.00011,0.74892 -4.01866,1.75636 -6.222729,1.45866 -3.676261,-0.35977 -7.514695,-0.63414 -11.080476,0.51745 -0.73613,0.24072 -1.566399,1.06059 -0.985823,1.84674 1.17385,1.7081 3.487355,2.18144 5.436768,1.91128 1.17559,0.004 1.940262,-0.94572 2.864667,-1.50535 1.123163,-0.3426 2.398956,-0.27468 3.546287,-0.058 1.099108,0.47937 1.818215,1.84576 3.184966,1.60587 2.91833,-0.22543 4.53192,-3.35312 7.33346,-3.80947 1.26167,-0.12655 1.58869,1.54082 2.76119,1.71738 1.27181,0.44884 3.0766,-0.31663 3.01546,-1.82444 0.002,-0.49391 0.30882,-1.0042 0.87877,-0.96352 1.95822,-0.25735 4.01302,0.12551 5.94616,-0.34794 1.78448,-0.56126 2.17182,-2.87366 3.97006,-3.36786 1.72956,-0.47263 3.73505,-0.52083 5.08078,-1.90027 0.84759,-0.72155 1.66052,-2.27906 0.57544,-3.15374 -0.58036,-0.37755 -1.31947,-0.34934 -1.98503,-0.34794 z m 5.12539,-4.89343 c -1.3001,0.54471 -1.90621,2.01664 -2.55154,3.18497 -0.2682,0.73824 -1.02716,1.82815 -0.22304,2.46232 1.13374,0.32351 2.27269,-0.37574 3.35001,-0.66465 0.8148,-0.28828 2.01984,-0.70179 1.80214,-1.8066 -0.19127,-1.25398 -0.86199,-2.65769 -2.09654,-3.1582 -0.0914,-0.0242 -0.18757,-0.0281 -0.28103,-0.0178 z m -1.24009,6.09783 c -0.69721,-0.10359 -1.20418,0.8221 -0.54867,1.19994 1.40091,0.83747 2.93771,1.4594 4.02359,2.72105 0.49647,0.74655 1.9253,0.84613 2.15008,-0.16059 -0.008,-1.26069 -1.29482,-2.0368 -2.20807,-2.69429 -1.01421,-0.64759 -2.19984,-1.09924 -3.41693,-1.06611 z m 1.39175,2.92624 c -1.60483,0.11454 -3.67953,1.16391 -3.56413,3.0333 0.21424,1.1401 1.70284,0.94088 2.40434,0.38809 0.92464,-0.63529 1.87367,-1.4921 2.20807,-2.58277 0.0908,-0.60087 -0.52822,-0.92237 -1.04828,-0.83862 z m -7.55203,2.03856 c -0.82474,0.0598 -0.74615,1.10211 -0.20073,1.48543 1.36477,1.37326 2.90798,2.73419 4.77745,3.33663 0.81555,0.25192 1.22202,-0.82604 0.64235,-1.33376 -1.23207,-1.42811 -2.75705,-2.7012 -4.52319,-3.39909 -0.22631,-0.0595 -0.46036,-0.1112 -0.69588,-0.0892 z m -1.3739,2.59169 c -1.51237,0.18583 -3.29939,0.99669 -3.78271,2.57385 -0.2357,1.05968 0.89438,1.93461 1.89553,1.65927 1.42976,-0.12826 3.24086,-0.69706 3.69824,-2.21687 0.3461,-0.95601 -0.35477,-2.01618 -1.38283,-2.01179 -0.14152,-0.0157 -0.28622,-0.0106 -0.42823,-0.004 z m -8.96609,0.63788 c -0.94436,0.30236 -0.31613,1.40745 0.1249,1.88244 1.7115,2.04304 3.62643,3.98182 5.91494,5.37519 0.64165,0.47217 1.95747,0.54986 2.03856,-0.49068 -0.0548,-1.28436 -1.32332,-2.07224 -2.11661,-2.93394 -1.68477,-1.45687 -3.40621,-3.03727 -5.52464,-3.82408 -0.14388,-0.0311 -0.29178,-0.039 -0.43715,-0.009 z m -0.59328,3.12252 c -1.35763,0.0734 -3.15565,0.78792 -3.23849,2.35081 0.43088,1.22914 2.04543,1.21958 3.12697,1.12411 1.20844,-0.0228 2.72407,-0.88116 2.3865,-2.28836 -0.14843,-1.10773 -1.37812,-1.24202 -2.27498,-1.18656 z m -8.42187,-1.33376 c -0.9489,0.0452 -0.86046,1.21294 -0.38809,1.75307 1.73106,2.51746 4.02314,4.652 6.50822,6.41008 0.9698,0.80651 2.55549,0.82473 3.30987,-0.29441 0.53681,-0.49567 0.29921,-1.63001 -0.56205,-1.45866 -0.8819,0.27437 -1.70478,-0.16815 -2.31057,-0.80378 -2.03127,-1.74739 -3.38834,-4.34089 -5.87043,-5.51708 -0.22195,-0.0632 -0.45464,-0.10719 -0.68695,-0.0892 z m -3.40355,4.05035 c -0.86897,-0.11266 -2.11262,0.37902 -1.97164,1.41852 0.64597,1.01682 2.02394,1.33191 3.1582,1.41405 1.12079,-0.0204 2.63523,-0.0106 3.27418,-1.1018 0.38428,-1.15633 -1.11007,-1.73761 -2.02963,-1.71292 -0.80939,-0.0365 -1.6211,-0.031 -2.43111,-0.0179 z m -8.381725,-3.011 c -0.859992,0.17043 -0.569447,1.29901 -0.12044,1.79322 2.006901,2.79245 4.296272,5.49101 7.137185,7.46728 0.77668,0.54648 2.20285,1.09347 2.73443,-0.0491 0.65224,-0.99114 -0.29219,-2.13325 -1.32484,-2.25267 -1.63441,-0.14841 -2.36573,-1.76681 -3.14036,-2.98424 -1.248387,-1.6363 -2.767277,-3.29061 -4.77299,-3.94775 -0.167416,-0.0416 -0.34212,-0.0549 -0.512985,-0.0268 z m -3.523984,2.92179 c -0.970432,0.008 -2.591726,0.29958 -2.466789,1.58802 0.385536,1.41013 2.165882,1.61688 3.403544,1.69508 1.369043,-0.0389 3.051741,0.0741 4.038651,-1.03517 0.287149,-0.78034 -0.805411,-1.2577 -1.38005,-1.58774 -1.122916,-0.49449 -2.372351,-0.69163 -3.595356,-0.66019 z m -7.315612,-2.98424 c -0.9774,0.0347 -0.918979,1.23569 -0.48176,1.82891 1.276132,2.31843 2.759829,4.55561 4.496425,6.55728 0.315229,0.5886 1.414956,0.60218 1.347143,-0.21411 -0.461797,-1.94417 -1.542849,-3.7138 -2.493553,-5.46441 -0.717906,-1.00235 -1.445229,-2.67353 -2.868255,-2.70767 z m 45.316651,-23.00403 c -0.87768,-0.0568 -1.07149,1.08086 -0.45054,1.55234 1.30978,1.33523 2.77952,2.68867 4.58564,3.2831 0.91614,0.20998 1.08892,-0.98449 0.6245,-1.53449 -0.97381,-1.43578 -2.35743,-2.75161 -4.04589,-3.26526 -0.23501,-0.0366 -0.47611,-0.0461 -0.71371,-0.0357 z m -0.17397,3.20727 c -1.17831,0.23807 -2.14319,1.22 -2.72105,2.23929 -0.58512,0.96553 0.48519,2.1048 1.51665,1.84675 1.29953,-0.1777 2.82984,-0.77573 3.37678,-2.0564 0.17271,-1.15598 -1.10225,-2.11703 -2.17238,-2.02964 z m -7.92228,1.85121 c -0.61892,-0.0559 -1.89334,0.17084 -1.45866,1.06612 1.03265,0.79805 2.46922,0.87702 3.49276,1.73076 0.80493,0.42969 1.87002,1.55807 2.79242,0.77171 0.75782,-0.86208 -0.25874,-2.0179 -0.99028,-2.52478 -1.11861,-0.7475 -2.50286,-1.06155 -3.83624,-1.04381 z m 0.64681,2.96639 c -1.8011,0.22665 -3.42951,1.30139 -4.68377,2.56493 -0.52884,0.51493 -0.006,1.3134 0.66911,1.24454 1.95411,0.087 4.24837,-0.13918 5.63391,-1.67723 0.7381,-0.8538 -0.0456,-2.21757 -1.12857,-2.1367 -0.16345,-0.006 -0.32752,-0.009 -0.49068,0.004 z m -10.10215,0.34758 c -1.35989,0.0757 -0.91652,1.82911 0.0535,2.19468 2.59993,1.51432 4.56901,3.9495 7.26208,5.24583 1.78188,0.46351 2.18077,-2.6213 0.39254,-2.81919 -2.81379,-0.89985 -4.4697,-3.8754 -7.30669,-4.62132 -0.13318,-0.009 -0.26864,-0.0181 -0.40146,0 z m -0.76725,3.75594 c -1.18889,-0.19914 -2.55998,0.63578 -2.04302,1.98057 0.55395,1.79751 3.16818,1.36706 4.47858,0.70479 1.34233,-0.56083 0.7846,-2.37849 -0.53528,-2.49801 -0.61411,-0.1856 -1.26217,-0.21591 -1.90028,-0.18735 z m -7.90443,-1.73077 c -1.23176,-0.11778 -2.57983,1.54856 -1.29361,2.4088 3.41116,0.92655 5.37111,4.44868 8.42187,5.95955 1.32494,0.0977 0.78606,-1.62177 0.19627,-2.17684 -1.80398,-2.25559 -3.63719,-4.8427 -6.3164,-6.08445 -0.32424,-0.0999 -0.66968,-0.13842 -1.00813,-0.10706 z m -1.98057,3.63104 c -1.23249,-0.0149 -3.701367,0.12881 -3.309865,1.94489 0.618427,1.6929 2.659985,2.43035 4.273385,1.64155 1.08793,-0.42874 3.28291,-0.63065 3.10468,-2.19469 -0.80625,-1.39037 -2.64741,-1.45345 -4.0682,-1.39175 z M 91.048552,241.5249 c -1.296006,0.0282 -0.896069,1.60486 -0.09814,2.08763 2.558396,2.64674 5.215138,5.48297 8.546776,7.13718 1.496372,-0.10021 0.436518,-1.8606 -0.205194,-2.38204 -2.1736,-2.34023 -4.171106,-5.12794 -7.039046,-6.6465 -0.389721,-0.11318 -0.793216,-0.23572 -1.204399,-0.19627 z m -2.997617,3.72918 c -0.9212,0.0239 -3.145878,0.25663 -2.444485,1.65939 1.813913,1.70495 4.809264,1.49842 7.012282,0.85647 1.308098,-0.35978 0.722622,-2.0112 -0.437153,-2.05194 -1.332751,-0.39573 -2.744104,-0.49972 -4.130644,-0.46392 z m -7.297769,-3.1582 c -1.258907,0.60292 -0.09493,2.28944 0.276566,3.14036 1.144603,1.82027 2.294388,4.01402 4.300152,4.96926 1.441007,-0.22286 0.289565,-2.07451 -0.09179,-2.82018 -1.165647,-1.88273 -2.245316,-4.13604 -4.190519,-5.28944 -0.0971,-0.0184 -0.197392,-0.0295 -0.294409,0 z m 187.564544,32.32015 c -2.11367,0.30768 -4.7267,3.12564 -3.10375,5.14768 2.06707,0.77996 3.83938,-1.7124 4.9332,-3.15422 0.82512,-1.29886 -0.69256,-2.13585 -1.82945,-1.99346 z m 4.76918,1.81683 c -1.82141,1.01274 -1.31148,3.90241 -3.15422,5.07198 -1.29428,1.72478 1.61546,2.10236 2.44768,3.04067 1.37164,0.76866 2.02936,3.39274 3.79768,2.95234 1.10543,-2.25535 -0.48306,-5.00575 -0.85866,-7.32651 -0.52741,-1.13996 -0.64648,-3.57041 -2.23248,-3.73848 z m -4.63039,-8.31453 c -1.73452,0.36377 -3.78324,1.78917 -4.15095,3.53273 1.69372,1.38058 4.38644,0.0757 6.23273,1.35001 2.06864,0.16095 0.9674,-2.67944 0.21449,-3.53273 -0.49757,-0.77944 -1.32565,-1.44498 -2.29627,-1.35001 z m -6.96452,9.14724 c -2.10835,1.32454 -2.06993,4.44663 -2.72962,6.6308 -0.26448,2.35678 -0.93447,4.95337 -0.24796,7.24776 1.7516,0.2829 3.1485,-1.73268 4.59254,-2.53599 1.61074,-1.56273 4.23583,-2.70319 4.97105,-4.88273 -1.76883,-2.11873 -3.99648,-3.89987 -5.62712,-6.1318 -0.26418,-0.22596 -0.60177,-0.39339 -0.95889,-0.32804 z m 90.27182,101.94224 c -1.23428,0.70115 0.21634,2.23685 0.49068,3.16713 2.03051,4.12871 4.97844,8.20673 4.46074,13.05212 -0.0157,3.86962 -2.38284,7.2144 -2.94409,10.97342 0.21778,1.51385 1.88369,0.60401 2.48017,-0.0803 2.60794,-2.18186 5.49746,-4.15154 7.61002,-6.81601 -0.73275,-2.47532 -2.35873,-4.72201 -3.4715,-7.07001 -2.46387,-4.34456 -4.5377,-8.9972 -7.72495,-12.86949 -0.23664,-0.2227 -0.55888,-0.43896 -0.90107,-0.35686 z m -31.58973,32.80036 c -1.63445,1.12434 0.53836,3.87645 0.73156,5.45995 1.27875,2.54153 1.63676,6.50301 4.37153,7.8509 7.07946,-3.2352 14.02925,-7.11731 20.53724,-11.36596 -0.14382,-2.17096 -4.06256,-0.55356 -5.51168,-1.25942 -6.70415,-0.29581 -13.41814,-0.69221 -20.12865,-0.68547 z m -146.65125,-8.86795 c -4.77058,1.25931 -7.34982,6.18736 -10.52734,9.58167 -1.83679,2.35222 2.71154,3.3691 3.88626,4.68343 3.88115,2.06978 7.60589,5.36211 12.01181,6.07587 2.26991,-1.5439 0.39075,-5.16954 0.74574,-7.39999 -0.70815,-4.28543 0.54539,-10.89646 -4.56413,-12.79823 -0.49512,-0.18275 -1.03247,-0.18598 -1.55234,-0.14275 z M 311.8771,316.18778 c -3.0871,8.53755 -3.17839,17.85726 -4.46722,26.78763 -0.46586,7.52299 -2.06712,15.16362 -1.15331,22.67304 1.3143,2.00826 2.70497,-1.53165 2.99761,-2.56939 2.89532,-10.70332 8.1892,-20.44026 12.2938,-30.6542 2.04011,-4.43076 -2.45572,-8.46498 -4.73415,-11.84268 -1.5372,-1.25926 -3.02774,-4.53811 -4.93673,-4.3944 z m 59.79838,33.35913 c -5.92261,7.16181 -11.01487,15.72684 -14.48848,24.33779 8.94282,18.65113 17.93202,37.57159 29.04833,54.99199 3.51876,-1.54395 0.0504,-7.75331 0.50557,-10.65699 -4.27672,-22.62293 -7.04489,-45.84852 -13.78072,-67.81633 -0.21526,-0.38308 -0.64106,-1.08734 -1.2847,-0.85646 z M 320.03797,122.40608 c -3.39823,4.23238 -1.08267,11.22715 -3.08218,16.32796 -0.59449,2.51447 -2.14559,9.68704 2.72532,8.18827 2.20704,-0.33469 8.0784,-5.54393 7.77953,-0.57098 0.71601,8.16466 -6.89474,16.23246 -1.63824,23.9815 10.52273,27.65189 19.46079,55.94322 29.90148,83.57584 10.09089,17.02343 26.00012,30.44709 34.57965,48.31872 -3.06678,12.31859 -9.2247,24.06081 -12.9183,36.07846 1.42551,12.26863 3.99927,24.7476 7.42267,36.50668 3.15434,1.15723 4.6263,-4.97129 6.62016,-6.59415 19.78814,-29.71128 30.32168,-65.52511 28.13134,-101.31925 -1.47055,-61.538 -41.61449,-119.73562 -97.77282,-144.20756 -0.55997,-0.15076 -1.15542,-0.42243 -1.74861,-0.28549 z M 252.37748,30.336434 c -7.67592,12.195221 -15.11342,25.11969 -20.80488,38.39804 5.4528,3.006912 13.23876,0.917229 19.44882,1.712924 8.94263,-0.308483 17.71241,1.327744 26.55032,2.176841 -2.60913,-10.529033 -9.52524,-21.074428 -14.15559,-31.447082 -3.39904,-3.139718 -5.11779,-18.773198 -10.23166,-11.811055 l -0.7302,0.877982 -0.0768,0.09235 z m 66.3758,141.815806 c -8.43665,7.56229 -12.90348,21.26809 -25.12288,23.37428 -4.79038,3.9162 -10.37799,8.12459 -12.95399,13.81044 9.15578,6.06294 20.53632,8.94264 29.98176,14.79891 11.96935,5.79752 22.32579,14.67225 33.89602,20.85132 2.89465,-2.71714 -1.4297,-8.00887 -1.59959,-11.29297 -7.19315,-20.28061 -12.94074,-41.56369 -22.66683,-60.64983 -0.36419,-0.46693 -0.85185,-1.08593 -1.53449,-0.89215 z m -139.53192,25.30132 c -3.82502,8.23815 -8.20304,17.10771 -9.20696,26.19345 2.2073,2.15513 6.92336,-1.43123 9.90418,-1.59095 3.69802,-1.67667 9.42383,-1.56817 12.14971,-4.22585 -3.43304,-7.03961 -7.14963,-14.94898 -12.45438,-20.59077 l -0.39255,0.21412 z m -0.21411,-71.97849 c -14.11312,6.32271 -26.39007,16.73867 -38.32667,26.55032 -5.66696,4.84943 -12.88843,10.57833 -10.6344,19.09196 -0.78329,6.5686 6.87641,1.869 9.95637,1.2847 7.6322,-3.07532 17.79249,-4.64376 23.5527,2.92624 5.1817,4.32885 6.01391,15.3264 -2.2839,16.84375 -8.44247,2.68337 -20.62122,1.60776 -26.01503,9.81363 -1.44585,9.95802 1.52453,20.39936 4.46074,29.8691 3.0493,4.16931 9.1833,-0.97433 12.95399,-1.249 7.33664,-0.83066 11.96916,-6.73226 13.40764,-13.6375 5.51643,-15.59789 12.1246,-31.9078 8.14665,-48.74148 -1.26762,-10.61223 -3.61428,-23.02205 -0.71372,-32.90241 1.12643,1.55621 3.23756,8.81773 5.85249,5.35289 1.00672,-4.4885 4.44045,-10.68103 1.49881,-14.88102 -0.55702,-0.32794 -1.21606,-0.44277 -1.85567,-0.32118 z m -16.27278,165.4042 c -6.68026,1.90267 -16.42476,2.80363 -17.45041,11.41949 -13.31979,51.88928 -24.78913,104.52034 -33.18789,157.44624 1.72167,3.49839 4.9006,-3.36538 6.60189,-4.31799 16.58181,-19.28159 34.10045,-38.02616 49.56773,-58.16804 4.22496,-15.59456 1.93008,-32.32471 2.05708,-48.35121 -0.96922,-18.57611 -1.00769,-37.38129 -3.5202,-55.78028 -0.42146,-1.829 -2.36202,-2.55406 -4.0682,-2.24821 z m -75.332955,-4.35368 c 0.236696,12.51271 3.90022,25.27606 6.925461,37.45909 5.907434,18.23493 13.805274,36.69128 26.690664,51.00628 3.79662,1.30776 1.96964,-6.53415 3.62931,-8.34124 4.94075,-22.34296 11.00117,-44.4873 14.92737,-67.0274 -5.17484,-1.8203 -11.60888,1.69691 -17.16493,1.74861 -11.05689,2.29254 -21.88793,-2.13844 -28.970381,-10.50497 -1.935748,-1.16703 -3.670975,-4.39896 -6.037494,-4.34037 z"
       id="path3605"
       style="fill:#ccb116;fill-opacity:1;stroke:none"
       inkscape:connector-curvature="0" />
    <path
       d="m 316.77643,347.14142 c -2.51688,4.00515 -4.50356,9.81516 -0.68131,13.8281 6.45138,10.19472 18.56885,15.48176 30.4319,14.40847 4.2906,0.73821 8.67148,-2.54748 8.75611,-6.88882 -3.54688,-4.63083 -10.39623,-3.27041 -14.93838,-6.48507 -4.25013,-0.29148 -6.10341,-5.42302 -10.32061,-5.62713 -3.27581,-2.23778 -5.57868,-6.07545 -9.53835,-7.36825 -1.13013,-0.57416 -2.34058,-2.33289 -3.70936,-1.8673 z m -13.75995,-241.1425 c -1.62929,0.31114 -1.32426,2.51734 -0.66239,3.58951 0.51219,1.23618 2.19932,0.88329 2.73786,-0.15141 1.34427,-1.39472 -0.5678,-3.46736 -2.07547,-3.4381 z m -5.88577,-0.17663 c -1.09732,-0.064 -1.62002,1.12172 -1.14814,2.0187 0.41875,1.14596 0.98576,2.95803 2.4666,2.9208 2.1889,-0.99063 1.40228,-5.15193 -1.16075,-4.94581 l -0.15771,0.006 z m -18.81807,-3.84184 c -1.0914,-0.0929 -1.83406,0.99744 -1.50772,2.00608 0.0762,2.42697 2.45426,3.77565 4.53201,4.34637 2.35737,0.61876 4.88606,1.70519 7.33416,1.02211 1.4339,-0.79946 1.17936,-3.0649 0.19556,-4.14464 -2.09903,-1.95761 -5.18654,-2.26054 -7.88225,-2.93187 -0.888,-0.15513 -1.76409,-0.33549 -2.67176,-0.29805 z m -30.58331,-7.980173 c -2.64192,-0.07985 -3.39979,4.599192 -0.70654,5.191844 5.73367,1.440779 11.47974,2.948659 17.31666,3.885999 1.14043,0.29298 2.29555,-0.52668 2.21426,-1.74113 0.34958,-1.18698 -0.22563,-2.413476 -1.36893,-2.876648 -4.11582,-1.822814 -8.6157,-2.631807 -12.96384,-3.759829 -1.47721,-0.318512 -2.96945,-0.719835 -4.49161,-0.700236 z m -7.16007,-0.100935 c -1.20538,-0.06771 -2.83692,0.431215 -2.78202,1.905148 -0.27559,1.520822 0.87671,3.288689 2.56753,2.971274 1.07457,0.04221 2.37981,-0.262496 2.56123,-1.507717 0.402,-1.026743 1.03879,-2.850011 -0.49206,-3.248845 -0.60381,-0.16282 -1.23506,-0.143514 -1.85468,-0.11986 z m -8.32714,-0.700237 c -3.82133,0.231052 -7.6942,0.446862 -11.38673,1.469866 -2.10568,0.737705 -3.20781,2.877957 -4.2582,4.680861 0.0677,1.160668 1.61781,0.561122 2.33953,0.580162 5.12776,-0.517009 10.30599,-0.803152 15.38088,-1.684139 1.59356,-0.743576 1.49081,-2.957136 1.09766,-4.390672 -0.5817,-1.009029 -2.22653,-0.542321 -3.17314,-0.656078 z m -17.97905,2.70632 c -1.76109,0.578884 -3.02239,2.196498 -4.16987,3.589501 -0.76831,0.744074 -0.2383,2.403214 0.95888,1.949304 1.9182,-0.88491 3.65862,-2.643826 4.10048,-4.750251 0.0159,-0.476947 -0.41469,-0.869163 -0.88949,-0.788554 z m -7.99279,2.0187 c -2.24565,0.383424 -3.62454,2.527715 -4.9395,4.195115 -0.64645,0.65138 -0.1439,1.79084 0.79486,1.62126 2.55755,0.10936 4.71815,-2.08336 5.50096,-4.359126 0.21767,-0.847792 -0.50804,-1.582163 -1.35632,-1.457249 z m -8.61732,1.974541 c -1.09059,0.704224 -2.23528,1.743824 -2.59908,3.028054 0.23337,1.25033 2.06131,0.90145 2.85141,0.39112 0.95891,-0.73718 0.92533,-2.32304 0.3722,-3.28039 -0.1645,-0.162165 -0.40852,-0.197709 -0.62453,-0.138784 z M 79.385527,210.22824 c -3.205292,0.63428 -4.70565,4.23047 -5.254751,7.12827 -0.513605,2.4173 -0.0072,5.27264 2.248213,6.61973 1.846768,1.2933 4.189544,2.95226 6.548364,2.31959 1.353348,-1.27027 0.77646,-3.51828 0.918912,-5.1923 -0.308002,-3.26776 -0.207756,-6.89008 -1.944882,-9.77794 -0.609753,-0.72518 -1.561724,-1.17658 -2.515856,-1.09735 z m 49.023523,7.11042 c -3.43862,1.41144 -6.15522,4.15396 -9.44785,5.91494 -11.9687,7.24979 -26.70626,9.50148 -40.42079,6.77889 -0.821593,-0.27634 -2.362553,-0.2711 -1.965149,1.00956 0.603513,4.5082 2.605232,9.10745 6.619737,11.56224 1.69571,1.22497 4.335612,2.01899 5.914939,0.13382 1.241079,-1.07963 3.177475,-0.6912 4.639169,-0.44607 1.394812,1.44218 3.764378,2.05572 5.451023,0.69587 1.197361,-0.72934 1.766301,-2.53906 3.432511,-1.90038 2.04678,-0.009 4.18109,0.48013 6.17592,0.15177 1.11362,-1.45471 2.30284,-2.7072 4.2817,-2.12426 1.59474,-0.0332 3.86983,0.55278 4.67546,-1.30159 1.11174,-1.56894 2.69001,-2.88525 4.71054,-2.89055 2.74667,-0.27808 4.33499,-2.70371 6.53053,-3.99683 1.28123,-0.2132 3.41754,-0.59358 3.06898,-2.38203 -0.47636,-3.62963 -1.06084,-7.40747 -2.58722,-10.76823 -0.25218,-0.32633 -0.66555,-0.50872 -1.0795,-0.43715 z m 163.33058,1.97404 c -12.93419,8.53895 -24.51905,19.29513 -38.54079,26.37189 -11.83164,6.59418 -24.64338,11.71437 -38.18392,13.48927 -9.87204,-9.46708 -15.50239,-22.23986 -19.80568,-34.93651 -3.59284,-3.49447 -9.68491,1.27071 -13.82322,1.64581 -13.09672,5.19796 -27.1648,9.10259 -39.0633,16.66107 -1.42567,4.95308 2.47453,9.73468 2.60507,14.77396 -3.61483,-1.57158 -4.4056,-7.38781 -7.95796,-8.1007 -1.9163,3.03366 -4.96566,4.46466 -8.3505,5.0674 -2.96612,2.94049 -6.62498,3.92306 -10.59872,4.63917 -1.19861,0.68409 -3.84986,3.51755 -4.63917,2.24821 -0.38876,-3.11553 -5.56987,0.30081 -7.20855,0.92784 -4.19771,3.50028 -9.238312,-1.68846 -13.846135,0.67803 -3.006101,-0.40744 -8.461196,-0.0101 -5.995233,4.38936 4.381622,10.18913 8.506219,22.65404 18.806478,28.19187 14.65082,5.33984 30.92712,0.5688 45.35679,-3.31879 5.73603,-1.99588 11.90303,-3.6238 17.20061,-6.3164 0.4437,-7.42547 -0.967,-15.88005 1.14195,-22.8033 2.21921,4.34165 0.40685,10.97664 1.35606,15.98729 1.51064,40.13848 1.53325,80.63945 4.0682,120.54701 21.35105,6.75948 43.61135,12.91414 66.2676,10.99073 21.6414,-0.9567 43.82799,-1.60846 64.62832,-7.99312 4.04322,-3.44951 -1.21627,-9.67025 -1.35607,-13.81044 -6.396,-27.99481 1.03533,-56.50406 5.92386,-84.07601 -0.29534,-3.56155 -6.30339,-3.80711 -8.20775,-6.49484 -9.43511,-5.8542 3.63624,-0.0427 7.24763,1.09045 9.30749,3.50473 19.05823,6.86626 27.97436,10.82865 -2.01024,7.67822 -9.77719,14.57453 -8.17207,22.83898 2.95959,2.94718 6.62562,4.88416 9.45676,8.06502 8.18565,4.6735 17.68243,9.75063 27.33541,8.8501 8.43005,-11.73915 14.59347,-25.54335 19.09196,-39.32587 3.45705,-10.93239 -7.14513,-19.36331 -12.24027,-27.69227 -21.58331,-26.399 -47.43538,-51.08837 -79.72232,-63.41386 -0.24456,0.001 -0.50684,-0.086 -0.7494,0 z m -23.26722,47.92618 c 6.24066,3.69683 7.54481,12.78721 8.56462,19.62725 -0.8144,4.39207 -4.97625,-1.85098 -7.49404,-1.10627 -4.21017,0.99272 -7.43857,7.76312 -11.95478,5.99524 -2.33653,-7.62852 2.45967,-15.82949 6.63758,-22.01821 1.06559,-1.30131 2.5379,-2.34856 4.24662,-2.49801 z"
       id="path3632"
       style="fill:#0769b2;fill-opacity:1;stroke:none"
       inkscape:connector-curvature="0" />
    <path
       d="m 312.67769,366.35747 c -7.70337,10.57886 -7.73722,26.17 -0.64234,37.07766 4.63291,7.50892 14.61604,7.10406 22.37498,7.09165 4.8848,-0.57275 11.87638,0.75236 14.47072,-4.61148 3.07766,-6.05955 2.91356,-13.81753 -0.0535,-19.84137 -2.01482,-3.68761 -6.89471,-1.16405 -8.54677,1.58803 -1.49752,2.46611 -4.95732,6.13639 -2.55155,8.975 1.50644,1.58238 4.93114,0.46404 5.81681,2.51586 -0.89213,2.95601 -4.71754,1.95325 -6.04876,-0.0714 -3.14445,-2.63445 -2.95745,-7.02436 -0.85647,-10.24186 1.0387,-2.97742 3.82337,-5.25197 4.40721,-8.31482 -4.16115,-1.79145 -9.21592,-1.59777 -13.34653,-3.87192 -5.73547,-2.27637 -9.68855,-7.18705 -14.79181,-10.34891 l -0.23196,0.0535 z M 230.83788,109.22934 c -11.50714,0.20812 -22.91507,2.52928 -33.8124,6.12905 -2.02933,0.96817 -5.1274,1.47291 -5.79004,3.97898 -0.21127,0.65692 0.21708,1.46627 0.64235,1.7843 -1.81646,-0.45228 -2.50935,1.94609 -3.30987,3.08683 -6.24422,12.41216 -9.79156,26.26857 -9.52814,40.2091 -0.16192,6.50721 0.2208,13.03162 1.77227,19.37121 1.79612,7.6487 4.06075,15.50753 8.764,21.92631 9.43031,11.10765 20.91544,21.25371 34.92307,25.97669 4.89139,1.68152 10.10652,2.04177 15.20671,2.48282 -2.76757,2.13996 -6.52493,1.15641 -9.77755,1.28141 -4.39169,-0.0927 -8.75888,-0.65754 -13.07927,-1.22788 -1.62719,0.18546 -0.80718,2.17879 -0.16841,2.97657 1.73775,2.47471 3.16185,5.35818 5.52129,7.29205 2.46975,-0.13735 4.82779,-1.38842 7.2264,-2.01625 13.88058,-4.27816 27.07408,-11.34083 37.32746,-21.70596 0.27008,-1.47141 -1.85564,-0.5951 -2.62878,-0.61852 -1.28541,0.13926 -2.78508,0.55597 -3.97311,0.32411 3.08884,-3.00283 7.01375,-5.04988 10.10803,-8.08286 5.46293,-4.73502 9.98857,-10.43898 14.06917,-16.37983 2.17757,-2.92651 6.27499,-2.20845 9.35505,-3.40235 5.31434,-1.89806 8.75712,-6.7264 12.34199,-10.80956 5.57981,-7.26097 11.36271,-14.58207 15.00592,-23.04418 0.93936,-2.6385 2.16817,-5.39845 2.06086,-8.23452 -0.72144,-1.40883 -2.44785,0.13862 -3.46537,0.35295 -7.5922,3.57668 -15.46464,6.57905 -23.24882,9.69894 -6.91391,2.87022 -13.44225,6.81517 -20.3466,9.52183 2.36578,-5.04307 4.37171,-10.36895 5.33088,-15.87849 0.33415,-6.99362 -0.77733,-13.96991 -1.02887,-20.95562 -0.36545,-4.96579 -0.4677,-9.96146 -0.9743,-14.91046 -1.54917,-1.14096 -3.80642,-1.19321 -5.62887,-1.86627 -14.05014,-3.67826 -28.23391,-7.54575 -42.89505,-7.2604 z m 22.04497,8.36834 c 4.59028,0.0611 8.09329,4.09653 12.75757,3.89005 1.42899,0.12941 3.55025,-0.15597 4.59471,0.29412 -2.77663,1.33668 -6.09555,0.55848 -9.03746,0.35686 -3.59347,-0.8191 -7.25391,-1.25805 -10.94624,-0.96506 -1.79508,-0.0243 -4.04595,0.23046 -5.59418,-0.0609 2.21326,-2.07931 5.19388,-3.32285 8.2256,-3.51506 z m -50.0138,1.44528 c 1.72048,-0.0443 4.19088,0.7027 4.74623,2.42664 -4.4343,1.0154 -9.14046,0.82476 -13.66771,0.455 -1.43417,-0.37758 -0.074,-0.10191 0.66019,-0.11598 2.30687,0.0981 4.27093,-1.15045 6.12906,-2.31959 0.66446,-0.26541 1.40035,-0.41866 2.13223,-0.44607 z m -2.62291,16.79914 c 1.7793,0.48793 2.03534,2.87692 2.17684,4.41613 -0.0302,2.81913 -0.38374,6.18526 -2.62292,8.14531 -0.96079,0.94615 -1.43873,-0.9839 -1.90919,-1.54341 -1.6937,-3.46282 -0.97292,-7.98656 1.64155,-10.75038 0.20837,-0.15021 0.45329,-0.26041 0.71372,-0.26765 z m 24.13259,4.25555 c -1.45716,4.76835 -4.73257,8.74028 -6.95875,13.17702 -2.12478,3.59785 -3.60834,8.2238 -1.54341,12.18674 0.73479,1.75659 1.85959,3.39652 2.60507,5.10308 -2.95349,1.02635 -5.00817,-1.97418 -6.28965,-4.18417 -1.17611,-2.23001 -3.39338,-5.00333 -1.8289,-7.61002 3.46374,-5.33075 8.42521,-9.54436 11.80603,-14.95567 0.79309,-1.11638 1.62297,-2.85546 2.20961,-3.71698 z m 25.8366,-0.0268 c 3.02317,-0.0791 7.01142,0.43848 7.99365,3.8184 0.23908,1.39036 0.79747,3.22496 -0.009,4.51426 -1.77992,0.27306 -3.1803,-1.60732 -4.6626,-2.36196 -3.25446,-2.33392 -7.06411,-3.57036 -10.68235,-5.14992 2.40228,-0.57629 4.88415,-0.77004 7.36022,-0.82078 z m -5.87925,33.03624 c 3.32645,1.35537 6.04689,3.88527 8.66275,6.32532 1.53611,1.36872 2.27503,3.31782 1.95381,5.36181 0.0721,2.85553 -0.67037,5.73832 -2.05194,8.20776 -0.43798,-1.65565 0.0934,-3.85199 -1.11519,-5.20122 -2.14138,-0.49372 -4.16913,1.11477 -6.13003,1.77795 -8.30967,3.56405 -16.44103,8.64872 -25.71964,8.794 -6.4988,0.47536 -12.593,-2.1161 -18.19183,-5.10216 -2.65052,-1.01836 -5.07881,-3.33666 -8.05516,-3.15021 -0.89403,0.15602 -0.76597,1.46955 -1.15979,1.86459 -2.25419,-2.49682 -4.41655,-5.86805 -3.39016,-9.38539 0.50717,-1.83983 1.59776,-4.5727 3.863,-4.54103 1.07006,0.48225 1.11737,2.21956 2.2036,2.88163 3.60949,2.55537 8.31608,2.65449 12.56536,3.1579 9.86011,1.12488 20.03069,0.43614 29.31402,-3.20971 2.41843,-1.06113 5.23407,-1.78206 7.09061,-3.74874 0.50068,-1.272 -0.003,-2.72896 0.16059,-4.0325 z m -32.89349,31.0289 c 3.50137,0.43438 7.05924,0.59154 10.55411,0.91891 -1.65315,2.12344 -4.80355,1.56128 -7.1461,1.23116 -1.43427,-0.26352 -3.11591,-0.99006 -3.97898,-2.09655 0.18759,-0.0435 0.37969,-0.0433 0.57097,-0.0535 z m -36.54561,-56.8661 c -1.12194,0.55186 -0.74681,2.16127 -0.91222,3.19203 0.0627,1.95003 -0.28826,4.00987 0.294,5.89212 0.34414,0.93603 1.65025,0.74553 1.87991,-0.17664 1.0119,-2.2736 1.10758,-5.03031 0.26496,-7.36825 -0.34581,-0.59217 -0.67135,-1.6254 -1.52665,-1.53926 z m -50.17462,63.10461 c -7.42768,3.02198 -15.42148,6.49937 -23.51786,3.88599 -4.780725,-0.58786 -10.766147,-2.87558 -15.115013,-0.1514 0.02097,4.28792 1.378776,9.22552 3.22992,13.09632 11.837113,1.28572 24.140843,-3.00782 33.712293,-9.8664 1.97973,-1.27806 5.11412,-5.47658 2.04393,-6.98975 l -0.25234,0 -0.10093,0.0252 z m -11.43089,-98.992 c -5.9343,2.59534 -6.978,10.33936 -9.63865,15.61298 -3.59459,8.31793 -5.718376,17.94493 -10.825922,25.34139 -9.903004,-8.89245 -7.970896,-25.00038 -16.528106,-35.02444 -2.626654,-2.79689 -6.930486,-0.11111 -6.409373,3.50749 -0.459596,9.98088 3.07755,19.63208 3.280388,29.57395 -2.947308,-7.0059 -3.560278,-15.03341 -7.141151,-21.70102 -3.957297,-1.9004 -6.255436,3.71498 -5.828997,6.88881 0.40898,17.57936 4.809711,34.80272 8.226203,51.98153 1.566731,8.77314 5.714994,18.13937 14.844257,21.09372 7.032043,3.08507 14.94959,2.44586 22.173651,4.94751 10.25293,1.1813 17.41441,-8.16807 25.41039,-12.97015 8.18537,-6.78457 19.09869,-7.97343 28.91788,-11.20378 5.44629,-1.52914 3.78229,-8.27649 0.55514,-11.17856 -5.04866,-5.9472 -13.52122,-5.5697 -20.17994,-2.92812 -5.62721,1.69128 -11.57252,3.67977 -17.24171,4.13934 2.88156,-0.70599 5.66183,-2.42774 4.94789,-5.85047 0.62203,-16.59487 2.62767,-33.12801 3.10167,-49.71424 0.76164,-4.10305 -4.23908,-7.99391 -7.57012,-4.89535 -7.3146,8.56674 -8.37791,20.59981 -12.06173,30.96181 0.31818,-11.2734 5.99531,-21.63442 8.6047,-32.42537 -0.35343,-3.09663 -3.41918,-6.32099 -6.63647,-6.15703 z"
       id="path3644"
       style="fill:#fde1af;fill-opacity:1;stroke:none"
       inkscape:connector-curvature="0" />
    <path
       d="m 105.45841,477.6375 c -0.6875,-0.27741 -1.25,-1.35616 -1.25,-2.39721 0,-3.63724 7.14077,-45.6305 11.62358,-68.35568 l 4.52029,-22.91517 -2.04171,-2.58483 c -8.81916,-11.16515 -20.52974,-32.01242 -25.70319,-45.75702 -6.0967,-16.19742 -10.26533,-37.3224 -10.51593,-53.29055 -0.0968,-6.17009 -0.76324,-10.13761 -2.45986,-14.64512 -4.63183,-12.30563 -9.42318,-36.24584 -9.42318,-47.08333 0,-3.90734 0.61378,-5.77571 2.90832,-8.85308 l 2.90832,-3.90054 -3.05721,-3.48196 c -5.96978,-6.79921 -10.72179,-21.74393 -10.78281,-33.9112 -0.0129,-2.56412 -1.13614,-10.28703 -2.49617,-17.16203 -1.36003,-6.875 -2.47283,-14.3 -2.47288,-16.5 -1.2e-4,-4.93042 3.08108,-10.23316 6.4352,-11.07499 1.91819,-0.48144 2.65698,-1.48307 3.15457,-4.27684 0.79993,-4.49134 3.97602,-8.14817 7.07697,-8.14817 4.80969,0 8.44951,6.1566 12.40755,20.98682 2.24707,8.41947 5.31474,15.01318 6.98477,15.01318 0.47799,0 2.03994,-3.9375 3.47098,-8.75 7.00101,-23.54384 10.01543,-29.55365 15.4189,-30.74045 3.58692,-0.78782 7.97253,1.50311 8.77866,4.58574 0.41142,1.57326 1.11947,1.79168 4.20743,1.2979 3.02774,-0.48416 4.24482,-0.13605 6.5964,1.8867 2.7275,2.3461 2.87517,2.87944 2.72725,9.85026 -0.086,4.05342 -0.85611,10.66177 -1.71132,14.68523 -2.81157,13.22741 -2.67563,13.33722 6.36057,5.13823 9.45506,-8.57903 23.25519,-18.25877 34.00228,-23.85002 l 7.81988,-4.06836 0.68987,-5.20043 c 0.96034,-7.23945 5.10172,-15.187416 11.57247,-22.209426 6.26752,-6.801465 17.46665,-14.513524 25.02048,-17.229844 4.98393,-1.792195 5.24745,-2.086837 9.0035,-10.066651 4.69715,-9.979183 14.99186,-28.945638 19.20173,-35.376293 1.69236,-2.5851 4.40557,-5.484985 6.02937,-6.444188 2.82799,-1.670532 3.06386,-1.664202 5.59865,0.150257 2.6254,1.879321 13.64098,22.692393 23.07029,43.589502 l 4.39861,9.748148 7.08869,3.90797 c 12.74047,7.023784 19.8711,15.711089 24.00322,29.243325 l 2.1369,6.99815 6.035,2.67713 c 24.81139,11.00634 52.60294,34.20048 68.65042,57.29396 20.90708,30.08679 31.0137,62.0852 31.07409,98.38316 0.0619,37.20175 -10.63784,70.86354 -31.96606,100.56648 l -6.53107,9.09555 2.07686,11.16898 c 2.64428,14.22051 9.10932,56.2217 9.10932,59.18022 0,2.60795 -2.07144,4.68549 -3.67075,3.68157 -0.60701,-0.38104 -6.49965,-11.7178 -13.09475,-25.1928 -6.5951,-13.475 -12.64612,-25.3474 -13.44671,-26.38311 -1.38686,-1.79416 -1.78229,-1.6188 -8.3717,3.71257 -14.12614,11.4292 -34.65355,22.1776 -54.5553,28.56584 -26.18803,8.40606 -57.32006,9.86524 -86.12502,4.03676 -18.17217,-3.67702 -42.21411,-13.43248 -56.09459,-22.76141 -3.35338,-2.25378 -4.0083,-2.39698 -5,-1.09326 -0.62765,0.82512 -7.67257,9.13276 -15.65539,18.46141 -7.98281,9.32866 -18.74529,22.2487 -23.91662,28.7112 -5.17133,6.4625 -9.66493,11.71447 -9.98579,11.67105 -0.32086,-0.0434 -1.14588,-0.30592 -1.83338,-0.58333 z m 26.40238,-37.9015 c 8.33381,-9.86492 19.35881,-22.59289 24.5,-28.28438 13.95993,-15.45415 13.13336,-13.33087 13.64524,-35.05182 0.24109,-10.23001 -0.0819,-24.22502 -0.71781,-31.10002 -0.63588,-6.875 -1.40143,-21.5 -1.70121,-32.5 -0.29979,-11 -0.69843,-20.51022 -0.88587,-21.13383 -0.22829,-0.75952 -3.41957,-0.13956 -9.66677,1.87793 -5.12928,1.65646 -9.46327,3.129 -9.6311,3.2723 -1.18058,1.00805 -16.06692,63.15729 -21.73738,90.75175 -5.97141,29.05905 -13.49848,70.41855 -13.42588,73.77213 0.0362,1.67448 -1.12405,2.95206 19.62078,-21.60406 z m 253.39906,-25.93622 c -3.86359,-23.19848 -12.30056,-65.5 -13.06387,-65.5 -0.32409,0 -3.90403,5.91588 -7.95543,13.14639 l -7.36617,13.14639 6.20805,11.60361 c 3.41443,6.38199 10.35208,19.83794 15.41701,29.90213 5.06494,10.06418 9.33255,17.71418 9.48359,17 0.15104,-0.71419 -1.07439,-9.39852 -2.72318,-19.29852 z m -56.75178,9.87082 c 1.76019,-0.89605 6.35034,-3.48355 10.20034,-5.75 l 7,-4.12082 -13,-0.57017 c -7.15,-0.31359 -13.10182,-0.51177 -13.22627,-0.44039 -0.24933,0.14299 3.60864,10.51121 4.3689,11.74134 0.65604,1.06149 1.0115,0.99585 4.65703,-0.85996 z M 178.7178,414.41839 c -0.70086,-8.85507 -0.75813,-9.00967 -3.72025,-10.04227 -2.85225,-0.9943 -3.24932,-0.78247 -7.64878,4.08046 -2.5522,2.82106 -4.74966,5.40235 -4.88324,5.7362 -0.29502,0.73732 15.98314,10.20008 16.55786,9.62535 0.22342,-0.22342 0.0859,-4.4533 -0.30559,-9.39974 z m 88.99061,-5.55964 c 21.15369,-2.50961 36.78676,-5.54024 38.84378,-7.53024 0.46408,-0.44896 -0.0623,-2.86457 -1.16967,-5.36802 -1.10739,-2.50346 -2.78665,-8.02716 -3.73169,-12.2749 -3.26932,-14.69497 -0.70399,-43.90975 6.35615,-72.38581 l 1.8595,-7.5 -5.07904,-2.90242 c -5.73999,-3.28013 -11.80822,-7.70172 -11.28625,-8.22369 0.19097,-0.19097 5.49072,1.8249 11.77722,4.47973 6.2865,2.65482 15.93,6.3048 21.43,8.11108 5.5,1.80627 10.4094,3.66004 10.90977,4.11949 0.52875,0.4855 -1.25123,4.35924 -4.25,9.24922 -6.28185,10.2436 -6.82898,15.59626 -1.65977,16.23784 0.55,0.0683 1.51372,0.19266 2.14159,0.27644 0.62788,0.0838 1.42738,1.29096 1.77667,2.68264 0.45003,1.79308 1.51175,2.70567 3.64392,3.13211 1.65487,0.33097 3.47028,1.46395 4.03424,2.51772 0.67517,1.26156 1.65865,1.71497 2.87948,1.32749 1.21437,-0.38543 2.35914,0.1326 3.31789,1.50141 1.11852,1.59691 2.08517,1.93393 4.098,1.42874 1.57305,-0.39481 3.23896,-0.15922 4.1355,0.58484 0.82572,0.68529 3.04628,1.33978 4.93457,1.45443 3.43324,0.20844 3.43329,0.20838 9.90792,-12.38431 10.98439,-21.36389 14.05381,-31.43915 11.23724,-36.88581 -5.92545,-11.45856 -23.78801,-32.94384 -38.56546,-46.38695 -16.78813,-15.27223 -25.14168,-21.12617 -42.3513,-29.67867 -11.80954,-5.86887 -11.46455,-5.86862 -17.72597,-0.0128 -7.60739,7.1146 -25.80569,19.40645 -37.10363,25.06125 -10.11106,5.06074 -20.91938,8.7253 -27.92134,9.46673 l -5.56068,0.58882 -5.30307,-5.87267 c -5.96078,-6.60103 -10.02808,-14.32342 -12.65467,-24.02683 l -1.77728,-6.56578 -4.07181,0.46707 c -3.81589,0.43771 -13.95151,4.143 -38.32181,14.00933 -11.56146,4.68067 -11.40118,4.40915 -8.14935,13.80558 1.15536,3.3385 1.84976,6.32088 1.54313,6.62752 -1.21817,1.21816 -3.65788,-0.79687 -5.61892,-4.64084 -2.3997,-4.70378 -3.27747,-4.98449 -4.84291,-1.54872 -0.90924,1.99557 -1.86849,2.5 -4.75413,2.5 -2.78061,0 -3.73644,0.46418 -4.14093,2.01094 -0.55183,2.1102 -4.4034,3.65312 -6.25799,2.50692 -0.59663,-0.36873 -1.93297,0.3764 -2.96966,1.65586 -1.68771,2.08294 -2.20609,2.20526 -4.95555,1.16938 -2.61803,-0.98637 -3.42803,-0.87582 -5.49491,0.75 -2.79633,2.19959 -4.8531,2.39578 -7.53803,0.71901 -1.48412,-0.92685 -2.79251,-0.89403 -5.954,0.14936 -3.05126,1.007 -4.39132,1.05555 -5.42633,0.19656 -0.75594,-0.62737 -1.63869,-0.87642 -1.96167,-0.55344 -0.79435,0.79434 2.89166,10.43552 7.03291,18.39541 7.07545,13.59972 13.00637,16.67579 30.16876,15.647 12.97931,-0.77803 26.44895,-4.14248 40.31958,-10.07103 l 3.75,-1.60281 0,-11.48658 c 0,-10.8199 0.11608,-11.48657 2,-11.48657 1.22621,0 2.01207,0.67707 2.0312,1.75 0.0172,0.9625 0.004,13.24032 -0.0295,27.28405 -0.0334,14.04373 0.66693,41.26873 1.55626,60.5 0.88933,19.23127 1.35247,37.29617 1.0292,40.14422 -0.43138,3.80044 -0.2042,5.56184 0.85382,6.61985 1.83038,1.83038 21.28122,7.20477 33.05902,9.13442 4.95,0.81099 10.125,1.65916 11.5,1.88482 6.21588,1.0201 37.6525,0.52853 48.5,-0.75839 z m -11.6356,-117.95723 c -1.27489,-2.79808 0.70939,-9.97542 4.95482,-17.92211 3.89546,-7.29159 8.11598,-8.47986 11.54283,-3.24982 2.56307,3.91173 5.88628,15.44463 5.21782,18.10797 -0.78332,3.121 -2.07388,3.11123 -4.99229,-0.0378 -1.27431,-1.375 -2.58543,-2.5 -2.91361,-2.5 -0.32818,0 -2.37879,1.8 -4.55691,4 -4.53266,4.57819 -7.65057,5.11793 -9.25266,1.60174 z m 7.6001,-3.18476 3.9645,-3.49978 -2.61479,-2.2086 c -1.43814,-1.21473 -2.83103,-2.8836 -3.09531,-3.7086 -0.32785,-1.02346 -0.87201,-0.54691 -1.71283,1.5 -1.59867,3.89186 -2.52049,11.51203 -1.38612,11.45837 0.48403,-0.0229 2.66408,-1.61652 4.84455,-3.54139 z m 10.90779,-7.14715 c -1.58226,-5.12552 -1.82377,-5.44012 -2.1627,-2.81721 -0.20985,1.62395 -1.13035,3.52214 -2.04556,4.2182 -1.54457,1.17472 -1.54005,1.26786 0.0629,1.29738 0.94982,0.0175 2.50434,1.21825 3.45448,2.66835 2.46031,3.75491 2.76825,1.36273 0.69086,-5.36672 z m -5.02132,-3.74205 c 0.86552,-2.25551 -2.61066,-1.94286 -4.05157,0.36441 -0.64993,1.0407 -0.92401,2.14987 -0.60906,2.46481 0.84337,0.84338 3.98259,-1.06227 4.66063,-2.82922 z m 1.09525,-5.80733 c -0.97108,-2.53059 -3.12228,-2.73972 -5.10226,-0.49602 -1.80582,2.04634 -1.79971,2.0785 0.29534,1.55513 1.17662,-0.29393 2.73859,-0.16405 3.47104,0.28863 1.69065,1.04488 2.09678,0.63514 1.33588,-1.34774 z m 76.7151,136.32865 c 3.09371,-3.82057 4.20173,-9.84897 2.88866,-15.71639 -1.4774,-6.60172 -3.28823,-8.28319 -6.7678,-6.28434 -3.21027,1.84415 -6.83641,8.06494 -5.98875,10.27393 0.40666,1.05972 1.76041,1.6777 3.67519,1.6777 3.31653,0 4.05062,1.90922 1.53639,3.99585 -1.20411,0.99931 -1.97557,0.92585 -3.96482,-0.37756 -5.51322,-3.6124 -5.69146,-8.63117 -0.57084,-16.07374 l 3.00046,-4.36103 -5.2349,-0.71278 c -7.18328,-0.97807 -13.02525,-3.91897 -18.3376,-9.23133 -2.46677,-2.46676 -4.63498,-4.31726 -4.81825,-4.11222 -0.18327,0.20505 -1.36309,2.39781 -2.62181,4.87281 -3.42283,6.73023 -3.83031,17.70467 -0.94165,25.3612 4.3972,11.65502 8.6494,13.78597 26.40878,13.2345 8.86873,-0.27539 10.11717,-0.54626 11.73694,-2.5466 z m 11.74759,-3.7991 4.16612,-3.75 -5.28751,-9.93876 c -2.90814,-5.46631 -5.8372,-10.11204 -6.50903,-10.32383 -0.67182,-0.2118 0.34068,2.20917 2.25,5.37993 4.05198,6.72897 4.41494,11.01591 1.50705,17.79975 -1.08046,2.5206 -1.58833,4.58291 -1.12861,4.58291 0.45972,0 2.71061,-1.6875 5.00198,-3.75 z m -232.44408,-49.25 c 2.49468,-11.275 6.50855,-28.15 8.91973,-37.5 2.41118,-9.35 4.22726,-17.17128 4.03574,-17.38063 -0.19152,-0.20934 -3.40194,0.38764 -7.13426,1.32663 -10.79027,2.71465 -19.00423,3.06536 -25.83826,1.10323 -5.05884,-1.45247 -6.96578,-2.7421 -12.75911,-8.62883 l -6.81133,-6.92113 0.6321,4.75036 c 3.34166,25.11368 7.84229,40.9045 16.71894,58.65982 5.71173,11.42474 16.82619,28.04346 17.41823,26.04432 0.15535,-0.52457 2.32355,-10.17877 4.81822,-21.45377 z m 226.52852,17.77054 1.96395,-3.22946 -2.72865,-2.18785 c -1.81834,-1.45795 -3.58137,-2.01987 -5.28466,-1.68434 -1.61806,0.31875 -3.0391,-0.0786 -3.87245,-1.08269 -0.72404,-0.87241 -2.62247,-1.5862 -4.21874,-1.5862 -2.17566,0 -3.14028,-0.62592 -3.8528,-2.5 -0.72225,-1.89965 -1.67069,-2.5 -3.94957,-2.5 -2.32089,0 -3.34988,-0.67839 -4.55043,-3 -0.85325,-1.65 -2.15412,-3 -2.89082,-3 -0.73671,0 -2.53216,-0.93818 -3.9899,-2.08484 l -2.65044,-2.08483 -1.48442,3.55272 c -2.16396,5.17908 -1.88053,6.81058 2.08552,12.00475 6.20929,8.13207 15.48994,12.41241 27.19476,12.54255 6.01777,0.0669 6.34211,-0.0576 8.22865,-3.15981 z m 38.33728,-4.33712 c 6.05894,-8.69641 15.78195,-28.41442 19.19819,-38.93342 5.78914,-17.82547 7.54332,-27.97623 8.16561,-47.25133 0.67493,-20.90561 -0.33338,-31.03127 -4.78207,-48.02218 -7.48933,-28.60405 -20.71929,-52.29599 -41.37707,-74.09725 -11.63978,-12.28406 -33.0203,-27.69334 -47.65248,-34.34389 l -5.6172,-2.5531 -0.65229,7.01846 c -0.35877,3.86015 -1.14486,8.97459 -1.74688,11.36542 -0.60202,2.39083 -0.81638,5.07194 -0.47636,5.95801 0.53794,1.40187 1.21767,1.25974 5.23514,-1.09466 3.74756,-2.19621 4.79144,-2.44902 5.54368,-1.34259 1.31855,1.93938 0.25872,10.10798 -1.96314,15.13085 l -1.8887,4.26972 5.33248,13.98127 c 6.82013,17.88178 18.14015,50.46986 23.00789,66.2351 3.44729,11.16483 4.26272,12.78803 9.17539,18.26473 8.72845,9.73058 19.09128,22.89023 24.91354,31.63744 l 5.42874,8.15599 -3.6951,10.84401 c -2.03231,5.9642 -5.25142,14.25952 -7.15359,18.43405 l -3.4585,7.59004 3.56605,16.58171 c 1.96132,9.11994 3.56604,17.32942 3.56604,18.24329 0,2.98494 2.41344,0.98598 7.33063,-6.07167 z m -81.21291,-10.06505 c 0.4277,-2.27239 3.31352,-9.24739 6.41292,-15.5 5.57285,-11.24244 5.61711,-11.4016 3.99557,-14.36837 -2.1736,-3.97682 -8.2677,-11.09184 -8.93164,-10.42791 -1.58933,1.58934 -5.63777,34.70458 -5.5537,45.42791 l 0.0392,5 1.62999,-3 c 0.8965,-1.65 1.97994,-4.85923 2.40765,-7.13163 z m 41.50876,1.82954 c -1.39488,-1.39488 -1.42779,-1.16222 -0.33632,2.37796 1.01881,3.30453 1.26294,3.54866 1.54616,1.54616 0.18498,-1.30788 -0.35945,-3.07373 -1.20984,-3.92412 z m 4.87352,2.80209 c -0.33992,-0.55 -1.04148,-1 -1.55902,-1 -0.51754,0 -0.94098,0.45 -0.94098,1 0,0.55 0.70156,1 1.55902,1 0.85746,0 1.2809,-0.45 0.94098,-1 z m -6.5,-1 c 0,-0.55 -0.92656,-1 -2.05902,-1 -1.13246,0 -1.7809,0.45 -1.44098,1 0.33992,0.55 1.26648,1 2.05902,1 0.79254,0 1.44098,-0.45 1.44098,-1 z m -5.66643,-2.42689 c 0.30115,-0.78478 -0.0391,-1.91372 -0.75601,-2.50874 -1.02715,-0.85246 -1.20187,-0.5499 -0.82398,1.42689 0.55135,2.88423 0.81823,3.06696 1.57999,1.08185 z m -2.33357,-0.46612 c 0,-0.49116 -0.675,-1.15203 -1.5,-1.46862 -0.91371,-0.35062 -1.5,-0.002 -1.5,0.89301 0,0.80774 0.675,1.46862 1.5,1.46862 0.825,0 1.5,-0.40186 1.5,-0.89301 z m 15.40963,0.0392 c 0.75853,-1.22734 -4.30757,-3.3134 -6.41917,-2.6432 -0.99461,0.31568 -2.52023,-0.17566 -3.45836,-1.11379 -1.82889,-1.82889 -8.5321,-2.88278 -8.5321,-1.34143 0,0.5237 1.33417,0.95219 2.96482,0.95219 1.89468,0 3.33373,0.68933 3.98691,1.9098 0.65658,1.22683 1.71285,1.72917 2.95366,1.40469 1.06236,-0.27781 2.75575,-0.0259 3.76309,0.55979 2.24295,1.30412 4.03954,1.40717 4.74115,0.27195 z m -28.11988,-4.14619 c -0.28766,-1.1 -0.69553,-2 -0.90638,-2 -0.21085,0 -0.38337,0.9 -0.38337,2 0,1.1 0.40787,2 0.90638,2 0.49851,0 0.67103,-0.9 0.38337,-2 z m 4.73031,-0.47583 c -0.69572,-0.8383 -1.99735,-1.5092 -2.8925,-1.4909 -1.25888,0.0257 -1.0858,0.48444 0.7641,2.025 2.65501,2.21105 4.10474,1.84724 2.1284,-0.5341 z m 2.64222,-0.77417 c -0.27741,-0.6875 -0.50439,-0.125 -0.50439,1.25 0,1.375 0.22698,1.9375 0.50439,1.25 0.27741,-0.6875 0.27741,-1.8125 0,-2.5 z m 18.93381,-3.58248 c -1.04222,-1.04222 -1.59609,-1.17471 -1.59609,-0.38181 0,0.66786 0.45,1.21429 1,1.21429 0.55,0 1.0522,1.0125 1.116,2.25 0.0964,1.86898 0.1973,1.93363 0.59609,0.3818 0.26405,-1.02751 -0.23815,-2.58644 -1.116,-3.46428 z m 5.90391,3.83248 c -0.33992,-0.55 -1.04148,-1 -1.55902,-1 -0.51754,0 -0.94098,0.45 -0.94098,1 0,0.55 0.70156,1 1.55902,1 0.85746,0 1.2809,-0.45 0.94098,-1 z m -12.5,-3.5 c 0,-2.27262 -0.4737,-3.5 -1.35079,-3.5 -1.08576,0 -1.13585,0.68672 -0.25531,3.5 0.60251,1.925 1.21037,3.5 1.35079,3.5 0.14042,0 0.25531,-1.575 0.25531,-3.5 z m 5,2.60699 c 0,-1.10907 -3.07642,-2.36391 -3.86417,-1.57616 -0.31785,0.31786 0.0841,0.99656 0.89313,1.50823 1.86986,1.18254 2.97104,1.20771 2.97104,0.0679 z m 9.12409,-1.37366 c -0.98762,-0.98026 -1.10248,-0.8654 -0.5598,0.5598 0.37553,0.98622 0.93469,1.54122 1.24258,1.23333 0.30789,-0.30789 6.4e-4,-1.11479 -0.68278,-1.79313 z m -34.46815,-4.00236 c -0.27393,-0.67703 -0.48137,0.11903 -0.46099,1.76903 0.0204,1.65 0.2445,2.20394 0.49804,1.23097 0.25354,-0.97297 0.23687,-2.32297 -0.0371,-3 z m 10.01193,2.77264 c -0.36698,-1.10094 -7.66787,-2.57313 -7.66787,-1.54619 0,0.35342 0.4275,1.07008 0.95,1.59258 1.26503,1.26503 7.14148,1.22445 6.71787,-0.0464 z m 3.33213,-3.00361 c 0,-3.37917 -0.38237,-4.5 -1.53518,-4.5 -1.20792,0 -1.31451,0.41234 -0.5,1.93426 0.56935,1.06384 1.03518,3.08884 1.03518,4.5 0,1.41116 0.225,2.56574 0.5,2.56574 0.275,0 0.5,-2.025 0.5,-4.5 z m -15,2.69113 c 0,-1.60289 -2.70016,-4.45774 -3.85281,-4.07353 -0.84133,0.28045 -0.72865,1.03494 0.3939,2.6376 1.55229,2.21621 3.45891,3.00772 3.45891,1.43593 z m 19,-0.0841 c 0,-0.49116 -0.675,-1.15203 -1.5,-1.46862 -1.52428,-0.58492 -2.04799,0.4803 -0.83333,1.69496 0.95569,0.9557 2.33333,0.82206 2.33333,-0.22634 z m -24.62497,-5.10703 c 0.45657,-3.14459 0.35249,-4.0482 -0.34552,-3 -0.54939,0.825 -1.00578,3.0375 -1.0142,4.91667 -0.0201,4.4833 0.54647,3.68468 1.35972,-1.91667 z m 12.47632,-3 c 0.0894,-3.96924 -0.21811,-5 -1.49179,-5 -1.27484,0 -1.36163,0.29258 -0.42247,1.4242 0.73792,0.88914 0.92995,2.76759 0.51115,5 -0.39887,2.12619 -0.27327,3.5758 0.30982,3.5758 0.53936,0 1.03134,-2.25 1.09329,-5 z m 5.14865,4.24055 c 0,-0.4177 -0.9,-1.32152 -2,-2.00848 -1.6487,-1.02963 -2,-0.99869 -2,0.17612 0,0.78383 0.5625,1.65212 1.25,1.92953 1.90595,0.76906 2.75,0.73924 2.75,-0.0972 z m -8.64169,-1.74918 c -0.3184,-0.82975 -1.76678,-1.79904 -3.21861,-2.15397 -1.45184,-0.35494 -2.97031,-1.13856 -3.37439,-1.74137 -0.46192,-0.68911 -0.74037,-0.49177 -0.75,0.53153 -0.0179,1.89949 1.66414,3.45553 4.48469,4.14883 3.32243,0.81667 3.45859,0.77927 2.85831,-0.78502 z m -1.24025,-6.81776 c -1.46411,-1.46411 -2.11806,-1.68782 -2.11806,-0.72457 0,2.0018 3.34785,5.5074 3.84248,4.02352 0.2165,-0.64949 -0.55949,-2.13402 -1.72442,-3.29895 z m -2.91637,-2.27551 c 0.36998,-3.16912 0.26297,-3.38646 -0.89059,-1.80887 -1.43851,1.96727 -1.67563,3.71291 -0.64443,4.7441 1.02599,1.026 1.08595,0.91134 1.53502,-2.93523 z m 3.56002,-16.94007 c 2.17311,-3.78346 2.79526,-5.67616 1.96072,-5.96488 -0.67234,-0.2326 -4.89452,-1.74253 -9.38264,-3.3554 -7.33689,-2.63663 -8.20486,-2.76171 -8.60287,-1.23975 -0.39529,1.5116 10.73089,16.102 12.27889,16.102 0.30952,0 1.99517,-2.49388 3.7459,-5.54197 z M 104.20841,262.29978 c 0,-0.55 -0.68465,-1 -1.52144,-1 -0.83679,0 -1.99381,-1.03675 -2.57116,-2.3039 -1.0229,-2.24502 -4.71006,-5.22677 -5.49395,-4.44288 -0.21549,0.21549 1.29083,2.26318 3.34738,4.55043 3.57226,3.97299 6.23917,5.33926 6.23917,3.19635 z m -17,-4 c -1.12236,-2.2 -2.50806,-4 -3.07934,-4 -1.10506,0 -0.7232,0.86733 2.3114,5.25 2.7558,3.98 3.12746,3.37504 0.76794,-1.25 z m 28.49292,2.01145 c 0.33603,-0.5437 -0.0177,-0.74731 -0.78604,-0.45246 -0.82842,0.31789 -2.49826,-0.90776 -4.10283,-3.01146 -1.48821,-1.95114 -3.37851,-3.54753 -4.20067,-3.54753 -0.93315,0 -0.0686,1.4655 2.3009,3.90022 3.89926,4.00662 5.71965,4.8409 6.78864,3.11123 z m -20.65839,-2.13487 c -1.79764,-1.13951 -5.83453,-1.10485 -5.83453,0.0501 0,1.15274 2.8917,1.82294 5.33453,1.23636 1.42498,-0.34217 1.53661,-0.62937 0.5,-1.28646 z m 12.16547,0.12342 c 0,-0.55 -1.37656,-1 -3.05902,-1 -1.7847,0 -2.80156,0.41658 -2.44098,1 0.33992,0.55 1.71648,1 3.05902,1 1.34254,0 2.44098,-0.45 2.44098,-1 z m 15.9278,-0.75 c -0.11504,-1.19507 -6.94167,-6.56946 -7.55965,-5.95148 -0.3075,0.30749 0.94638,1.92793 2.78638,3.60096 3.31293,3.01231 4.91282,3.80014 4.77327,2.35052 z m -6.47051,-1.1809 c 0.31644,-0.512 0.1586,-1.18846 -0.35074,-1.50325 -1.18225,-0.73067 -4.10655,0.36678 -4.10655,1.54114 0,1.1835 3.72198,1.15186 4.45729,-0.0379 z m -23.95729,-2.0691 c 0.33992,-0.55 1.68992,-1 3,-1 1.31008,0 2.66008,0.45 3,1 0.96073,1.55449 2.97742,1.18782 5.5,-1 2.52258,-2.18782 4.53927,-2.55449 5.5,-1 0.95485,1.54499 3.5,1.18139 3.5,-0.5 0,-1.57926 0.81485,-1.82129 5.1785,-1.5381 1.80184,0.11694 3.0407,-0.50297 3.78518,-1.89403 0.61869,-1.15604 2.10537,-2.06787 3.3715,-2.06787 2.24488,0 4.66482,-1.66005 4.66482,-3.2 0,-1.97724 -6.1225,-0.67433 -8.23202,1.75183 -1.57718,1.81393 -2.85931,2.39108 -4.43381,1.99591 -1.55054,-0.38916 -2.66558,0.0873 -3.71694,1.58836 -1.20676,1.72288 -2.17778,2.03462 -4.94093,1.58622 -2.11273,-0.34285 -4.54203,0.0142 -6.29915,0.92579 -1.83318,0.95107 -4.07302,1.25632 -6.23808,0.85016 -1.85787,-0.34854 -5.14373,-0.33538 -7.30191,0.0292 -3.22339,0.54459 -3.71583,0.91376 -2.75812,2.06772 1.34365,1.61901 5.50827,1.88154 6.42096,0.40477 z m 32.37812,-0.90351 c 0.75796,-0.48009 1.06815,-1.37441 0.68931,-1.98739 -0.7934,-1.28375 -4.56743,0.30776 -4.56743,1.92608 0,1.19499 2.0374,1.2272 3.87812,0.0613 z m 4.2611,-3.12976 c -1.29844,-1.0817 -2.81079,-1.96673 -3.36079,-1.96673 -0.55,0 0.0624,0.88503 1.36079,1.96673 1.29843,1.0817 2.81078,1.96673 3.36078,1.96673 0.55,0 -0.0624,-0.88503 -1.36078,-1.96673 z M 97.0744,247.39995 c -3.25017,-3.76565 -5.73043,-5.56906 -6.54245,-4.75704 -0.82795,0.82795 7.24124,8.08153 9.54245,8.57792 0.20129,0.0434 -1.14871,-1.67598 -3,-3.82088 z m -13.65033,-1.17341 c -1.46676,-2.24029 -2.82563,-3.59685 -3.01972,-3.01458 -0.41671,1.25013 3.54772,7.08782 4.8134,7.08782 0.48023,0 -0.32693,-1.83296 -1.79368,-4.07324 z m 25.24907,-0.17676 c -3.49716,-4.1893 -5.36234,-5.25239 -6.76111,-3.85362 -0.80483,0.80483 -0.69402,1.10362 0.40929,1.10362 0.8321,0 2.80629,1.35 4.38709,3 3.85937,4.02831 5.37519,3.83543 1.96473,-0.25 z m 24.63099,1.63466 c 1.15986,-1.39754 1.08641,-1.56608 -0.54469,-1.25 -1.03691,0.20094 -2.07259,0.92784 -2.3015,1.61534 -0.59396,1.78389 1.25999,1.54592 2.84619,-0.36534 z m -40.59572,-0.38466 c -0.33992,-0.55 -2.19303,-1 -4.11803,-1 -2.07869,0 -3.24903,0.40609 -2.88197,1 0.33992,0.55 2.19303,1 4.11803,1 2.07869,0 3.24903,-0.40609 2.88197,-1 z m 10.23875,0.37266 c 3.02783,-0.81153 1.84496,-2.37266 -1.79777,-2.37266 -2.81513,0 -3.69991,0.90774 -2.27431,2.33333 0.80572,0.80572 1.19847,0.80952 4.07208,0.0393 z m 32.81855,-2.95442 c -1.06676,-0.78003 -2.64105,-1.38972 -3.49843,-1.35485 -1.01704,0.0413 -0.81238,0.36457 0.5888,0.92992 1.18122,0.47659 2.46378,1.37801 2.85014,2.00314 0.38635,0.62514 0.99419,0.84488 1.35075,0.48832 0.35656,-0.35656 -0.22451,-1.2865 -1.29126,-2.06653 z m 206.33943,-11.052 c -8.88589,-27.19427 -21.63011,-61.36624 -22.88616,-61.36624 -0.43053,0 -2.74653,2.7338 -5.14667,6.0751 -2.40015,3.34131 -5.88242,8.11268 -7.73838,10.60304 -3.39233,4.55188 -8.0756,7.32186 -12.37926,7.32186 -1.65912,0 -3.94749,1.99464 -8.05097,7.01758 l -5.73301,7.01758 2.76886,1.04091 c 19.78211,7.43674 39.82533,18.22447 54.26886,29.20875 4.675,3.55533 8.63519,6.34801 8.80042,6.20595 0.16523,-0.14205 -1.59143,-6.04809 -3.90369,-13.12453 z m -228.46699,10.52007 c -0.69419,-1.12321 -4.42974,-1.16789 -4.42974,-0.053 0,1.46113 1.06018,1.96369 3.04666,1.44422 1.06196,-0.27771 1.68435,-0.90377 1.38308,-1.39124 z m 6.57026,1.11369 c 0,-0.55 -0.53788,-1 -1.19528,-1 -0.65741,0 -2.45271,-1.20469 -3.98957,-2.6771 -1.53686,-1.4724 -3.13648,-2.31079 -3.55472,-1.86309 -0.41824,0.4477 -0.17095,1.02389 0.54953,1.28042 0.72048,0.25652 2.47369,1.54492 3.89603,2.86309 2.7401,2.53944 4.29401,3.04487 4.29401,1.39668 z m 119.72006,-7.17562 c 8.1444,-3.36838 16.85225,-8.79883 22.77994,-14.20621 l 4,-3.64889 -3.75,0.62665 c -4.94427,0.82622 -4.738,-0.46951 0.61287,-3.84987 5.84656,-3.6935 14.18301,-12.0911 18.22605,-18.35974 3.09335,-4.79617 3.61641,-5.1559 8.42435,-5.79369 4.0997,-0.54385 6.00981,-1.49448 9.53866,-4.74726 4.90244,-4.51891 15.47852,-18.82772 19.1955,-25.97037 2.51264,-4.82836 4.51974,-11.875 3.38237,-11.875 -0.36277,0 -3.51916,1.3951 -7.01421,3.10023 -3.49505,1.70512 -9.51935,4.17661 -13.38733,5.49219 -3.86798,1.31559 -11.29194,4.66775 -16.49768,7.44925 -8.96883,4.79216 -11.7774,5.59947 -9.50619,2.7325 0.55517,-0.7008 2.01919,-4.35136 3.25338,-8.11236 1.82438,-5.55952 2.1237,-8.0839 1.60072,-13.5 -0.3538,-3.664 -0.90089,-11.68117 -1.21576,-17.81595 l -0.5725,-11.15414 -11.14511,-3.03604 c -26.39613,-7.19056 -41.86153,-7.55729 -64.64512,-1.53293 -8.87499,2.34669 -12.655,4.50841 -11.40895,6.52457 0.87347,1.41331 6.07602,0.95876 7.40895,-0.64732 2.10642,-2.53809 9.00011,-1.17069 8.99992,1.78518 -8e-5,1.35796 -14.25941,1.78334 -15.58132,0.46482 -1.4561,-1.45236 -2.20939,-0.69735 -4.83324,4.8443 -10.39338,21.95116 -11.2759,48.84175 -2.31063,70.4057 2.62959,6.32489 4.45832,8.83179 11.67171,16 12.80762,12.72742 26.76475,19.87724 39.05356,20.00599 5.17503,0.0542 5.38183,0.14977 3.5,1.61733 -1.59275,1.24211 -3.83265,1.46195 -11,1.07963 -4.95,-0.26404 -9.7875,-0.80336 -10.75,-1.1985 -2.54263,-1.04383 -2.15481,0.63664 1.22303,5.29962 l 2.97303,4.10415 5.27697,-1.54888 c 2.90233,-0.85189 8.526,-2.89262 12.49703,-4.53496 z m -27.47006,-32.04487 c -1.2375,-0.59683 -2.25,-1.51886 -2.25,-2.04896 0,-0.5301 1.0125,-0.69247 2.25,-0.36084 1.2375,0.33164 4.2176,0.60913 6.62244,0.61664 3.7725,0.0118 4.20164,0.21947 3.12756,1.51365 -1.43092,1.72415 -6.45588,1.8682 -9.75,0.27951 z m -1.30954,-8.14405 c -2.50774,-0.67626 -7.11343,-2.67089 -10.23485,-4.43251 -6.49926,-3.66796 -7.70365,-3.89491 -7.71058,-1.45295 -0.004,1.32991 -0.59526,1.02985 -2.46403,-1.25 -1.37447,-1.67681 -2.47494,-4.33531 -2.49504,-6.02749 -0.0654,-5.50416 5.05342,-10.06271 6.23325,-5.55103 0.68009,2.60066 6.13107,4.05643 17.73079,4.73529 10.27195,0.60114 18.43483,-0.76987 27.35593,-4.59462 4.34677,-1.8636 4.7904,-2.34299 4.23095,-4.57202 -0.81228,-3.23639 0.21592,-3.14 5.22702,0.49002 6.54087,4.73818 7.62589,7.01813 6.18945,13.00588 -1.37997,5.75235 -3.00335,7.50347 -3.00335,3.23965 0,-1.59079 -0.27864,-3.17099 -0.61921,-3.51155 -0.34056,-0.34057 -3.60306,0.87051 -7.25,2.69127 -16.84125,8.40815 -23.46831,9.85176 -33.19033,7.23006 z m 21.91479,-4.74395 c 6.5074,-2.19759 15.23571,-7.4845 15.91657,-9.64098 0.78933,-2.50002 -3.1378,-2.46666 -13.59517,0.11551 -12.14572,2.99906 -18.85601,3.24649 -31.66406,1.16757 -9.36275,-1.5197 -11.95484,-0.97635 -9.49304,1.98994 3.51398,4.23409 15.9926,8.34993 25.53628,8.42267 4.66022,0.0355 9.17566,-0.6621 13.29942,-2.05471 z m -21.69677,-27.09914 c -3.53003,-6.11424 -3.47797,-6.28672 4.52457,-14.99149 3.02082,-3.28589 6.34304,-7.84782 7.38271,-10.13761 1.18716,-2.61462 1.89619,-3.41931 1.90612,-2.16327 0.0173,2.18873 -0.8852,4.03188 -6.33661,12.94117 -4.13885,6.76418 -4.54258,10.55844 -1.63153,15.333 2.51285,4.12145 2.50244,4.22583 -0.4212,4.22583 -1.86223,0 -3.10799,-1.19605 -5.42406,-5.20763 z m -14.18323,-19.35747 c -1.24221,-3.26725 -1.22516,-4.41956 0.12258,-8.28568 0.69981,-2.00748 1.77102,-3.14922 2.95468,-3.14922 3.29109,0 3.78165,8.90147 0.70266,12.75 -1.53107,1.91372 -2.70801,1.50424 -3.77992,-1.3151 z m 56.52475,0.0328 c -1.65,-1.35318 -5.25,-3.22011 -8,-4.14872 -4.5707,-1.54342 -4.78535,-1.74983 -2.5,-2.40402 1.375,-0.3936 4.6375,-0.7605 7.25,-0.81532 5.67235,-0.11904 8.75,2.30802 8.75,6.90032 0,3.64455 -1.47357,3.76986 -5.5,0.46774 z m 4.5,-24.66305 c -1.925,-0.55821 -6.15054,-0.77958 -9.3901,-0.49193 -5.87938,0.52204 -5.88648,0.51937 -3.90096,-1.46615 1.09403,-1.09403 3.6476,-2.36318 5.67459,-2.82034 3.02827,-0.68299 4.51961,-0.38768 8.36333,1.65604 3.26424,1.73562 5.82248,2.3781 8.46551,2.12605 3.86334,-0.36843 5.05834,0.49004 2.20584,1.58465 -2.24328,0.86083 -7.32348,0.59907 -11.41821,-0.58832 z m -169.5,120.19535 c 0.33992,-0.55 1.68992,-1 3,-1 1.31008,0 2.66008,0.45 3,1 0.9775,1.58163 4.50004,1.16348 5.18258,-0.6152 0.489,-1.27431 1.51765,-1.49214 4.87395,-1.03211 3.33885,0.45764 4.38589,0.23974 4.86652,-1.01276 0.45293,-1.18032 1.46802,-1.45701 3.89833,-1.06263 2.69085,0.43667 3.45733,0.14291 4.23228,-1.62203 0.63797,-1.45297 2.01598,-2.25817 4.22895,-2.47106 1.90505,-0.18327 3.78953,-1.1275 4.49055,-2.25 0.66436,-1.06382 1.97313,-1.93421 2.90837,-1.93421 0.93524,0 1.93139,-0.37369 2.21367,-0.83043 0.506,-0.81873 -1.83009,-10.93779 -2.73371,-11.84141 -0.25573,-0.25573 -2.64668,1.2089 -5.31323,3.25473 -11.30872,8.6763 -27.9837,12.68023 -42.21528,10.13658 l -4.36702,-0.78053 0.6932,3.78053 c 1.11453,6.07843 8.82695,11.86268 11.04084,8.28053 z m 32.91821,-0.60699 c 0.86999,-0.33384 1.58179,-1.00884 1.58179,-1.5 0,-1.36567 -2.39181,-1.0639 -4.55887,0.57519 -1.67447,1.2665 -1.71196,1.47256 -0.27292,1.5 0.91752,0.0175 2.38002,-0.24134 3.25,-0.57519 z m 13.45533,-0.97411 c 0.63884,-0.5689 -0.76298,-3.4189 -1.68164,-3.4189 -0.47898,0 -1.39798,1.15687 -2.04222,2.57083 -1.0985,2.41095 -1.03075,2.5276 1.08949,1.87577 1.24346,-0.38228 2.42892,-0.84475 2.63437,-1.0277 z m -9.87354,-2.9189 c -0.68469,-0.825 -2.42729,-1.4478 -3.87244,-1.384 -2.0695,0.0914 -2.20278,0.21818 -0.62756,0.59707 1.1,0.26458 2.4275,0.88738 2.95,1.38399 1.5862,1.50762 2.88236,1.00834 1.55,-0.59706 z m 5.14974,-2.75026 c -0.7533,-0.7533 -1.51314,-0.69303 -2.59635,0.20595 -2.13925,1.77542 -0.88581,3.29258 1.61466,1.95437 1.44769,-0.77478 1.73499,-1.40702 0.98169,-2.16032 z m 2.35026,-1.74974 c -0.99549,-1.1 -2.46508,-2 -3.26577,-2 -0.96763,0 -0.66417,0.6595 0.90499,1.96673 3.08634,2.57118 4.67786,2.59361 2.36078,0.0333 z m 18.83177,-2.25 c 7.16917,-2.34536 10.14734,-3.8067 10.69933,-5.25 0.42069,-1.1 3.58105,-10.1 7.02301,-20 7.03463,-20.23347 7.22475,-22.02985 3.94044,-37.23255 -2.02478,-9.37249 -2.56284,-26.43485 -1.03333,-32.76745 0.64032,-2.65107 0.80951,-2.76738 1.45469,-1 2.0879,5.71954 3.7736,8.69795 4.46914,7.89638 1.30624,-1.50538 3.11495,-8.91594 3.11495,-12.7624 0,-2.7965 -0.4033,-3.63263 -1.75,-3.62811 -4.74841,0.0159 -34.97029,21.64228 -44.53748,31.87038 -4.56135,4.87645 -4.71252,5.23566 -4.71252,11.19754 0,5.42024 0.21003,6.08993 1.75,5.58003 0.9625,-0.31869 4.9,-1.70956 8.75,-3.09081 3.85,-1.38126 8.54542,-2.52299 10.43428,-2.53719 12.11567,-0.0911 21.82595,14.94122 14.42936,22.33782 -2.11836,2.11835 -3.58233,2.63636 -7.45078,2.63636 -10.67747,0 -23.13038,4.7091 -23.75322,8.98234 -0.52717,3.61692 4.89883,31.01766 6.14224,31.01766 0.6025,0 5.56596,-1.4625 11.02989,-3.25 z m -47.79187,-5.29713 c 12.16134,-3.15685 22.4601,-9.41126 22.4601,-13.63996 0,-2.33876 -0.29721,-2.30385 -6.58783,0.77386 -6.58642,3.22244 -12.27759,4.03967 -16.59206,2.38258 -4.45733,-1.71197 -16.82182,-2.79984 -16.81453,-1.4794 0.003,0.55553 0.40939,2.58505 0.90295,4.51005 0.49355,1.925 1.17461,4.7375 1.51347,6.25 0.5544,2.47456 1.04387,2.75 4.88695,2.75 2.34897,0 6.9529,-0.69621 10.23095,-1.54713 z m -20.35116,-4.52786 c -0.40964,-6.93947 -1.18294,-9.70881 -2.89446,-10.36558 -3.44571,-1.32224 -7.30092,5.69358 -5.77335,10.50651 0.65348,2.05893 6.00796,5.13379 7.95405,4.56769 0.53623,-0.15599 0.85743,-2.27487 0.71376,-4.70862 z m 99.31126,-0.0492 c 4.95,-1.28333 9.13663,-2.40451 9.30361,-2.49152 0.16699,-0.087 -1.88657,-3.51323 -4.56347,-7.61383 -2.67689,-4.10059 -5.45561,-8.87646 -6.17493,-10.61305 -0.71932,-1.73659 -1.63635,-3.15743 -2.03784,-3.15743 -0.40149,0 -2.81666,6.12646 -5.36704,13.61435 -4.47778,13.14673 -4.56017,13.59684 -2.39869,13.10457 1.2311,-0.28038 6.28836,-1.55977 11.23836,-2.84309 z m -68.15113,-9.37467 c 1.73312,-0.82436 6.94291,-4.64669 11.5773,-8.49406 9.16367,-7.60749 15.49887,-10.569 26.07383,-12.18873 8.84415,-1.35462 11.39951,-3.07083 10.59106,-7.11309 -1.31983,-6.59915 -8.80286,-11.35214 -15.96702,-10.14176 -2.26715,0.38303 -7.3475,1.98794 -11.28966,3.56645 -5.00391,2.00367 -8.77753,2.83971 -12.50097,2.76958 l -5.33341,-0.10045 3.92169,-0.9196 c 2.15693,-0.50577 4.42621,-1.3383 5.04285,-1.85007 0.712,-0.59091 1.19805,-6.09687 1.33187,-15.08726 0.11589,-7.78623 0.88402,-19.396 1.70695,-25.79948 1.69667,-13.20225 1.12762,-17.45811 -2.40314,-17.97305 -5.10208,-0.7441 -8.04443,4.39356 -12.61351,22.02456 -1.85704,7.16587 -3.62625,13.27867 -3.93157,13.584 -0.30533,0.30532 -0.55514,-1.21053 -0.55514,-3.36856 0,-4.98745 3.96172,-19.46198 7.35613,-26.87635 2.41396,-5.27278 2.49912,-5.91253 1.13755,-8.54551 -1.94534,-3.76187 -5.04316,-4.69904 -7.69493,-2.32791 -2.53129,2.2634 -4.28549,6.27046 -10.24749,23.40803 -2.56292,7.36704 -5.38347,14.1942 -6.26788,15.17146 -1.53459,1.69571 -1.69676,1.69657 -3.5521,0.0187 -2.96548,-2.68177 -5.39013,-8.08873 -7.72099,-17.21781 -3.70393,-14.50686 -7.62093,-20.26817 -11.55828,-17.00046 -2.06086,1.71036 -1.83838,9.24679 0.59557,20.17377 1.12617,5.05583 1.90662,11.01357 1.73434,13.23941 -0.30293,3.91366 -0.4022,3.76696 -3.01324,-4.45301 -1.485,-4.675 -3.00413,-10.45106 -3.37585,-12.83569 -0.80695,-5.1767 -2.95492,-6.42333 -5.54859,-3.22028 -2.52502,3.11826 -2.37575,9.27083 0.60167,24.79943 1.34524,7.0161 3.39092,18.13837 4.54593,24.71617 3.08971,17.59586 6.16506,23.48941 14.50816,27.8032 4.68946,2.42469 11.31108,3.85187 12.08222,2.60413 0.29654,-0.4798 1.49807,-0.35918 2.67007,0.26806 5.75912,3.08219 13.29306,3.65094 18.09658,1.36614 z m 61.31948,-62.96947 c -1.05718,-1.83836 -1.19848,-1.66485 -1.48498,1.82347 -0.45559,5.54698 0.87178,8.14938 1.87523,3.67653 0.49505,-2.20662 0.35308,-4.20738 -0.39025,-5.5 z m 123.33165,-40.53167 c 0,-1.11111 -0.66667,-2 -1.5,-2 -1.68305,0 -1.75069,0.18315 -0.89301,2.41821 0.85742,2.2344 2.39301,1.96604 2.39301,-0.41821 z m 5.21667,-1.18333 c -1.52752,-1.52752 -2.65464,-0.40039 -1.80743,1.80742 0.50024,1.30358 0.93392,1.43275 1.82354,0.54313 0.88963,-0.88963 0.88579,-1.44865 -0.0161,-2.35055 z m -15.21667,0.15858 c 0,-2.1616 -2.25905,-3.37042 -8.47949,-4.53738 -3.46218,-0.64951 -3.672,-0.54596 -3.35677,1.65656 0.25176,1.75899 1.34145,2.65125 4.33626,3.55062 5.95549,1.7885 7.5,1.65057 7.5,-0.6698 z m -91,-5.47525 c 0,-0.825 -0.1699,-1.5 -0.37756,-1.5 -0.20765,0 -0.93775,0.675 -1.62244,1.5 -1.01957,1.22851 -0.95124,1.5 0.37756,1.5 0.89234,0 1.62244,-0.675 1.62244,-1.5 z m 7.42857,-0.0714 c 1.65672,-1.65672 2.08566,-3.439066 0.82143,-3.413256 -1.03944,0.0212 -2.50274,1.1694 -4.12244,3.234686 -1.17982,1.50438 -1.15476,1.75 0.17857,1.75 0.85306,0 2.25816,-0.70714 3.12244,-1.57143 z m 60.57143,-1.29468 c 0,-1.363036 -1.92722,-2.233266 -8.75,-3.951026 -10.64293,-2.67956 -10.88587,-2.68332 -11.54084,-0.17872 -0.3822,1.46153 0.06,2.14882 1.63337,2.53841 11.62478,2.878556 17.27827,4.055816 17.90747,3.728976 0.4125,-0.21428 0.75,-1.17622 0.75,-2.13764 z M 213.9884,98.280474 c 0.68033,-1.08938 0.93108,-1.98069 0.55722,-1.98069 -0.99775,0 -4.33721,3.17498 -4.33721,4.123596 0,1.36064 2.46453,-0.0365 3.77999,-2.142906 z m 20.46067,-0.62942 c 0.41764,-0.25812 0.75934,-1.34668 0.75934,-2.41902 0,-1.77322 -0.52053,-1.89794 -5.75,-1.37777 -8.62266,0.8577 -9.63194,1.18027 -11.09425,3.54573 l -1.34425,2.17448 8.33491,-0.72706 c 4.58419,-0.39988 8.67661,-0.93825 9.09425,-1.19636 z m 7.75934,0.23052 c 0,-0.23002 0.27314,-1.13002 0.60699,-2 0.45784,-1.19311 -0.0336,-1.58179 -2,-1.58179 -1.94032,0 -2.60699,0.51145 -2.60699,2 0,1.33333 0.66667,2 2,2 1.1,0 2,-0.1882 2,-0.41821 z m 35,-24.959661 c 0,-2.127816 -20.7452,-44.622124 -21.78398,-44.622124 -1.40622,0 -3.58699,2.88719 -7.93092,10.5 -5.79642,10.158329 -14.05127,25.754787 -15.12201,28.571036 l -0.92349,2.428964 16.6302,0.116244 c 11.50069,0.08039 18.32665,0.586061 22.1302,1.639421 6.3245,1.751515 7,1.883378 7,1.366459 z"
       id="path3451"
       style="fill:#12120f"
       inkscape:connector-curvature="0" />
  </g>
</svg>
