<?xml version="1.0" encoding="UTF-8" standalone="no"?>
<!-- Created with Inkscape (http://www.inkscape.org/) -->

<svg
   xmlns:dc="http://purl.org/dc/elements/1.1/"
   xmlns:cc="http://creativecommons.org/ns#"
   xmlns:rdf="http://www.w3.org/1999/02/22-rdf-syntax-ns#"
   xmlns:svg="http://www.w3.org/2000/svg"
   xmlns="http://www.w3.org/2000/svg"
   xmlns:sodipodi="http://sodipodi.sourceforge.net/DTD/sodipodi-0.dtd"
   xmlns:inkscape="http://www.inkscape.org/namespaces/inkscape"
   version="1.1"
   width="410.89264"
   height="462.88364"
   id="svg3822"
   inkscape:version="0.48.5 r10040"
   sodipodi:docname="star_trek_33.svg">
  <sodipodi:namedview
     pagecolor="#ffffff"
     bordercolor="#666666"
     borderopacity="1"
     objecttolerance="10"
     gridtolerance="10"
     guidetolerance="10"
     inkscape:pageopacity="0"
     inkscape:pageshadow="2"
     inkscape:window-width="640"
     inkscape:window-height="480"
     id="namedview9"
     showgrid="false"
     inkscape:zoom="0.44444444"
     inkscape:cx="211.33871"
     inkscape:cy="221.05765"
     inkscape:window-x="0"
     inkscape:window-y="0"
     inkscape:window-maximized="0"
     inkscape:current-layer="svg3822" />
  <metadata
     id="metadata3828">
    <rdf:RDF>
      <cc:Work
         rdf:about="">
        <dc:format>image/svg+xml</dc:format>
        <dc:type
           rdf:resource="http://purl.org/dc/dcmitype/StillImage" />
        <dc:title />
      </cc:Work>
    </rdf:RDF>
  </metadata>
  <defs
     id="defs3826" />
  <g
     transform="translate(-50.536293,-29.299)"
     id="g3838">
    <path
       d="m 147.75,491.20435 c -3.72141,-0.3226 -3.75,-0.35893 -3.75,-4.76472 L 144,482 l 4.5,0 c 3.2002,0 4.5,0.40623 4.5,1.40638 0,0.9342 -0.75542,1.24502 -2.25,0.92578 -2.10401,-0.44942 -2.13454,-0.38613 -0.47061,0.97535 1.541,1.2609 1.5745,1.53458 0.25,2.04284 -0.84116,0.32278 -1.52939,1.051 -1.52939,1.61827 0,1.46256 2.73154,1.28365 3.33772,-0.21862 0.31056,-0.76965 0.53472,-0.60019 0.58333,0.44098 0.10043,2.15103 -0.57033,2.41219 -5.17105,2.01337 z m 20.73068,-0.86653 c -1.38339,-1.38338 -1.80557,-1.43017 -2.51706,-0.27896 -0.47018,0.76077 -1.1494,1.08869 -1.50938,0.72871 -1.01495,-1.01495 0.47283,-2.78584 2.35478,-2.80288 1.42229,-0.0129 1.45895,-0.16208 0.23074,-0.93895 -1.2497,-0.79047 -1.19131,-1.2208 0.40499,-2.98469 1.02587,-1.13358 2.19845,-2.06105 2.60573,-2.06105 1.07699,0 4.95643,8.1798 4.34706,9.16578 -0.86209,1.3949 -4.15475,0.93415 -5.91686,-0.82796 z M 181,487.10699 C 181,482.29131 181.14635,482 183.56574,482 c 3.28475,0 6.67578,1.8002 5.86431,3.11319 -0.34429,0.55706 0.17248,1.89511 1.14836,2.97345 1.2798,1.41416 1.47075,2.2642 0.68509,3.04986 C 189.94903,492.45097 188,491.43837 188,489.44098 188,488.64844 187.55,488 187,488 c -0.55,0 -1,0.675 -1,1.5 0,0.825 -0.4132,1.5 -0.91821,1.5 -0.50502,0 -1.63002,0.27314 -2.5,0.60699 -1.31514,0.50466 -1.58179,-0.25394 -1.58179,-4.5 z M 188,485 c 0,-0.55 -0.45,-1 -1,-1 -0.55,0 -1,0.45 -1,1 0,0.55 0.45,1 1,1 0.55,0 1,-0.45 1,-1 z m 9.50052,6 c -0.16855,-0.275 -0.46262,-2.3 -0.65349,-4.5 l -0.34703,-4 4.38586,-0.31414 c 2.41223,-0.17277 4.86473,0.16473 5.45,0.75 0.75219,0.75219 0.19934,1.08138 -1.88586,1.12295 -2.52489,0.0503 -2.70894,0.22271 -1.27719,1.19619 1.56301,1.06273 1.56311,1.21761 0.002,2.35944 -0.91919,0.67212 -1.34533,1.54796 -0.94698,1.9463 0.39834,0.39834 1.37007,0.18828 2.1594,-0.4668 1.04404,-0.86647 1.62294,-0.88718 2.1243,-0.076 0.37904,0.6133 0.4315,1.37275 0.11659,1.68767 -0.71631,0.7163 -8.71054,0.97413 -9.12718,0.29436 z m 34.15447,-0.82874 c -3.49594,-3.86297 -1.07343,-8.2164 4.52927,-8.13946 5.43472,0.0746 7.75179,5.49873 3.59323,8.4115 -2.95854,2.07224 -6.09605,1.96716 -8.1225,-0.27204 z M 237,487 c 0,-1.65 -0.45,-3 -1,-3 -0.55,0 -1,1.35 -1,3 0,1.65 0.45,3 1,3 0.55,0 1,-1.35 1,-3 z m 12,0.7167 c 0,-3.49418 -0.23737,-3.88789 -2.0571,-3.41202 -1.30753,0.34193 -1.91642,0.11114 -1.671,-0.63337 0.49375,-1.49785 11.66645,-2.13296 13.05718,-0.74223 1.48064,1.48064 -0.006,2.58387 -1.64692,1.2221 -1.94347,-1.61294 -2.50904,-0.60071 -2.08703,3.73522 0.35143,3.61069 0.23419,3.78027 -2.6136,3.78027 -2.80549,0 -2.98153,-0.23322 -2.98153,-3.94997 z m 19.92308,3.7833 c -0.0423,-0.275 -0.11367,-2.4125 -0.15858,-4.75 -0.0684,-3.55914 0.25355,-4.29989 1.98037,-4.5569 1.2373,-0.18415 2.67349,0.5661 3.59087,1.87584 l 1.52884,2.18274 2.70257,-2.12584 C 280.05356,482.95663 281.61372,482 282.03416,482 c 0.42045,0 0.92303,1.9939 1.11686,4.43089 0.3141,3.94936 0.10496,4.47818 -1.92453,4.86615 -1.40875,0.2693 -2.62485,-0.18097 -3.18943,-1.18089 -0.73069,-1.29414 -1.16401,-1.36709 -2.17478,-0.36615 -1.78796,1.77057 -3.63751,1.54896 -4.17295,-0.5 -0.34415,-1.31691 -0.48604,-1.19317 -0.57333,0.5 -0.0967,1.87519 -1.94655,3.35143 -2.19292,1.75 z m 20.60042,-0.30983 C 289.23558,490.90224 289,488.71667 289,486.33333 L 289,482 l 4.44098,0 c 4.22291,0 6.24833,0.97736 4.87384,2.35184 -0.34694,0.34695 -1.23471,0.12961 -1.97281,-0.48296 C 295.31311,483.01497 295,483.13366 295,484.37756 295,485.2699 295.45,486 296,486 c 0.55,0 1,0.47656 1,1.05902 0,0.58246 -0.45,0.7809 -1,0.44098 -0.55,-0.33992 -1,0.25606 -1,1.32441 0,1.27291 -0.85361,2.10561 -2.4765,2.41585 -1.36207,0.26038 -2.71207,0.23783 -3,-0.0501 z m 16.82106,0.0539 c -1.85364,-0.30825 -2.1231,-0.94553 -1.92441,-4.55128 0.20759,-3.76719 0.51181,-4.22586 2.99671,-4.51807 2.40045,-0.28228 2.67869,-0.0512 2.10702,1.75 -0.3858,1.21554 -0.21648,2.07523 0.40873,2.07523 0.58707,0 1.06739,-0.675 1.06739,-1.5 0,-0.825 0.45,-1.5 1,-1.5 0.55,0 1,1.0699 1,2.37756 0,1.30765 0.67005,2.93364 1.48899,3.6133 0.81894,0.67967 1.2685,1.59252 0.999,2.02857 C 314.71416,492.27152 311,490.91755 311,489.38337 311,488.62252 310.50186,488 309.89301,488 c -0.60884,0 -0.8535,0.66059 -0.54367,1.46797 0.67976,1.77145 -0.13542,2.25331 -3.00478,1.77615 z m 16.90544,0.0501 c -1.92956,-0.37165 -2.25,-1.06435 -2.25,-4.86382 0,-3.7141 0.31285,-4.43045 1.9349,-4.43045 3.22967,0 7.25586,1.93451 6.77687,3.25615 -0.24794,0.68412 0.20957,2.00299 1.01668,2.93084 0.80711,0.92784 1.18398,2.14569 0.83749,2.70632 -0.90678,1.4672 -3.55446,0.19031 -3.62933,-1.7503 -0.0436,-1.13151 -0.34494,-0.94254 -0.96777,0.60699 -0.49742,1.2375 -1.03139,2.18872 -1.18662,2.11382 -0.15522,-0.0749 -1.29472,-0.3312 -2.53222,-0.56955 z M 328,485 c 0,-0.55 -0.45,-1 -1,-1 -0.55,0 -1,0.45 -1,1 0,0.55 0.45,1 1,1 0.55,0 1,-0.45 1,-1 z m 11.88158,6.25 c -0.0651,-0.4125 -0.0606,-1.10109 0.0101,-1.5302 0.0707,-0.4291 -0.55104,-2.09426 -1.38157,-3.70034 C 336.49303,482.11894 336.53712,482 340,482 c 2,0 3,0.5 3,1.5 0,0.825 0.45,1.5 1,1.5 0.55,0 1,-0.675 1,-1.5 0,-0.825 0.45,-1.5 1,-1.5 1.28518,0 1.31055,2.72667 0.0295,3.16667 -0.5338,0.18333 -1.0963,1.45833 -1.25,2.83333 -0.15371,1.375 -0.72947,2.83061 -1.27947,3.23469 -1.30707,0.96029 -3.46777,0.96943 -3.61842,0.0153 z M 359.5,486.90139 c 0,-5.57896 1.38018,-6.30204 5.19263,-2.72043 l 2.32153,2.18097 2.03187,-2.18097 c 3.30087,-3.54306 4.63723,-2.78687 4.54011,2.56904 -0.0808,4.45536 -0.24121,4.73266 -2.58614,4.47053 -1.375,-0.1537 -2.65626,-0.73499 -2.84725,-1.29173 -0.22371,-0.65215 -0.83432,-0.60804 -1.71637,0.124 -0.75303,0.62496 -1.94677,0.92955 -2.65276,0.67687 -0.70599,-0.25268 -1.95862,-0.1146 -2.78362,0.30685 -1.23353,0.63013 -1.5,-0.10445 -1.5,-4.13513 z M 380.50077,491 c -0.16869,-0.275 -0.46128,-2.3 -0.6502,-4.5 -0.33089,-3.85315 -0.23349,-4 2.65297,-4 2.29904,0 2.92807,0.40731 2.70262,1.75 -0.16944,1.00916 0.3312,1.75 1.18262,1.75 1.51453,0 3.25022,3.69433 2.2198,4.72475 -0.71786,0.71786 -7.6911,0.9546 -8.10781,0.27525 z m 6.74923,-2.41667 c 0.1375,-0.50416 -0.3125,-1.10416 -1,-1.33333 -0.6875,-0.22917 -1.25,0.33333 -1.25,1.25 0,1.69335 1.79279,1.75975 2.25,0.0833 z m 7.34656,2.5729 c -0.34605,-0.55992 -0.1419,-1.31919 0.45366,-1.68727 1.53748,-0.95021 2.52947,0.35135 1.24598,1.63484 -0.71818,0.71818 -1.27752,0.73543 -1.69964,0.0524 z M 123.7359,486.99314 C 122.78116,484.78937 122,482.78331 122,482.53523 c 0,-0.24808 2.92361,-0.3575 6.4969,-0.24314 5.31251,0.17001 6.49747,0.51175 6.5,1.87458 0.002,0.91666 0.51763,1.83817 1.1465,2.0478 0.85184,0.28394 0.84287,0.94268 -0.0352,2.58333 -1.38934,2.59601 -3.63523,2.87715 -4.52207,0.56608 -0.58129,-1.51483 -0.76187,-1.51483 -2.43573,0 -2.671,2.41722 -3.49687,2.05562 -5.41451,-2.37074 z M 217.5,490 c 0.33992,-0.55 1.04148,-1 1.55902,-1 0.51754,0 0.94098,0.45 0.94098,1 0,0.55 -0.70156,1 -1.55902,1 -0.85746,0 -1.2809,-0.45 -0.94098,-1 z m 4.5,-0.5 C 221.31531,488.675 220.13521,488 219.37756,488 218.6199,488 218,487.3618 218,486.58179 c 0,-0.78002 -0.26593,-2.11122 -0.59096,-2.95823 -0.48428,-1.26202 0.19264,-1.49448 3.75,-1.2878 4.84179,0.2813 4.84096,0.28041 4.84096,5.16424 0,3.77298 -1.78701,4.66649 -4,2 z m 74,0.60699 c 0,-0.49116 0.675,-1.15203 1.5,-1.46862 0.91371,-0.35062 1.5,-0.002 1.5,0.89301 0,0.80774 -0.675,1.46862 -1.5,1.46862 -0.825,0 -1.5,-0.40186 -1.5,-0.89301 z M 399.02764,489.5333 C 398.32775,488.68999 397.13521,488 396.37756,488 395.6199,488 395,487.3618 395,486.58179 c 0,-0.78002 -0.24673,-2.06118 -0.54829,-2.84703 -0.42699,-1.11271 0.42283,-1.40736 3.84111,-1.33179 l 4.3894,0.097 -0.0911,3.91702 c -0.0991,4.26057 -1.55624,5.53485 -3.56347,3.11628 z M 112.26667,483.7 c 0.20166,-0.605 1.65666,-1.1 3.23333,-1.1 1.57667,0 3.03167,0.495 3.23333,1.1 0.2214,0.6642 -1.05959,1.1 -3.23333,1.1 -2.17374,0 -3.45473,-0.4358 -3.23333,-1.1 z M 137,483.5 c 0,-0.825 0.45,-1.5 1,-1.5 0.55,0 1,0.675 1,1.5 0,0.825 -0.45,1.5 -1,1.5 -0.55,0 -1,-0.675 -1,-1.5 z m 270.00228,0.0833 c 0.001,-0.59583 1.35125,-1.13125 3,-1.18981 1.7103,-0.0608 2.99772,0.4045 2.99772,1.08333 0,0.65535 -1.3476,1.18982 -3,1.18982 -1.65,0 -2.99897,-0.4875 -2.99772,-1.08334 z M 387,483 c 0,-0.55 0.45,-1 1,-1 0.55,0 1,0.45 1,1 0,0.55 -0.45,1 -1,1 -0.55,0 -1,-0.45 -1,-1 z M 91.75,472.29143 C 93.565997,471.05222 94,469.81513 94,465.87803 94,461.77271 93.702585,461 92.122445,461 c -1.032656,0 -2.455434,0.6963 -3.161729,1.54733 -1.480869,1.78434 -3.153524,0.11869 -2.24869,-2.23927 0.410871,-1.07071 2.869283,-1.31103 11.15748,-1.09068 10.163984,0.27022 10.644514,0.38136 10.950044,2.53262 0.36663,2.58145 -0.99827,2.94451 -2.81955,0.75 -2.60496,-3.13878 -4,-1.74374 -4,4 0,4.46667 0.31313,5.5 1.66667,5.5 0.91666,0 1.33048,0.33619 0.91958,0.74708 -0.4109,0.4109 -3.9734,0.82193 -7.916668,0.91341 -6.732796,0.15618 -7.032507,0.0728 -4.919582,-1.36906 z m 23.84462,0.85729 c -1.04011,-0.19384 -1.42413,-0.64203 -0.85682,-1 0.56545,-0.35679 1.22187,-3.21592 1.4587,-6.3536 0.38803,-5.14067 0.22653,-5.74533 -1.63294,-6.11382 -1.13496,-0.22491 1.36884,-0.47022 5.564,-0.54512 8.2746,-0.14773 10.58284,1.03923 9.56797,4.92011 -0.37912,1.44975 0.45656,3.09366 2.79861,5.50533 1.83651,1.89111 3.03914,3.47588 2.67249,3.52171 -4.31772,0.53975 -5.54933,0.39111 -6.75575,-0.81531 C 127.63489,471.49204 127,470.21429 127,469.42857 127,468.64286 126.325,468 125.5,468 c -0.83333,0 -1.5,0.88889 -1.5,2 0,1.1 0.45,2 1,2 0.55,0 1,0.40209 1,0.89352 0,0.8496 -6.37671,1.006 -10.40538,0.2552 z M 128,464.12244 c 0,-1.26051 -2.93548,-3.5203 -3.6477,-2.80807 C 123.32824,462.33843 124.85654,465 126.46862,465 127.31088,465 128,464.6051 128,464.12244 z m 20.51293,9.05716 c -0.20632,-0.20632 -0.13299,-1.00614 0.16296,-1.77737 C 149.05272,470.42024 148.43269,470 146.60699,470 144.95633,470 144,470.55025 144,471.5 c 0,0.825 -0.6,1.5 -1.33333,1.5 -2.20606,0 -2.58693,-1.0695 -1.009,-2.83333 0.82005,-0.91667 2.86454,-3.82619 4.54331,-6.4656 1.92431,-3.02546 3.65224,-4.68846 4.67567,-4.5 0.89284,0.16441 2.84726,2.77393 4.34314,5.79893 1.49589,3.025 3.20113,6.0625 3.78943,6.75 0.5883,0.6875 0.71439,1.29208 0.28021,1.3435 -2.82857,0.33502 -10.46656,0.39604 -10.7765,0.0861 z m -0.7421,-5.3671 C 147.15276,465.95828 145,465.65074 145,467.41667 145,468.2875 145.7125,469 146.58333,469 c 0.87084,0 1.40521,-0.53438 1.1875,-1.1875 z M 171,473 c -3.025,-0.3707 -4.9375,-0.74736 -4.25,-0.837 1.58044,-0.20609 1.76818,-12.163 0.19098,-12.163 -0.58246,0 -0.85141,-0.3375 -0.59767,-0.75 0.25374,-0.4125 3.27407,-0.59406 6.71185,-0.40347 3.86698,0.21438 5.73654,0.66417 4.90269,1.17952 -1.53826,0.9507 -1.42682,11.24673 0.12782,11.80936 1.03466,0.37445 0.1927,2.2581 -0.89469,2.00159 C 176.81094,473.74736 174.025,473.3707 171,473 z m 15.54213,0.0682 C 186.17904,472.48068 186.35852,472 186.94098,472 c 0.608,0 1.05902,-2.18897 1.05902,-5.13976 0,-3.72227 -0.48263,-5.50612 -1.75,-6.46819 -1.54467,-1.17257 -1.25826,-1.33217 2.44098,-1.36025 2.30504,-0.0175 4.46761,0.41578 4.8057,0.96282 0.33809,0.54704 1.60214,1.50213 2.80901,2.12241 1.80908,0.92979 1.97486,0.89562 0.94431,-0.19462 -2.08109,-2.20164 -1.43395,-2.9281 2.5,-2.80641 2.0625,0.0638 2.9625,0.3218 2,0.57333 -1.45422,0.38002 -1.75,1.62804 -1.75,7.38399 0,3.80968 -0.3545,6.92668 -0.78777,6.92668 -0.43328,0 -2.34578,-1.33171 -4.25,-2.95936 -1.90423,-1.62765 -3.79973,-2.97765 -4.21223,-3 -1.47815,-0.0801 -0.715,2.88037 1,3.87926 1.58056,0.92059 1.58848,1.02223 0.0818,1.04969 -0.91752,0.0167 -2.3345,0.28609 -3.14885,0.59858 -0.81435,0.3125 -1.77771,0.0875 -2.14081,-0.5 z M 230.5,473 c -1.65,-0.41985 -2.4375,-0.81661 -1.75,-0.88169 2.05844,-0.19483 1.63443,-10.11275 -0.5,-11.69555 -1.48278,-1.09956 -0.50146,-1.29133 6.42664,-1.25589 4.49716,0.023 8.65966,-0.25668 9.25,-0.62153 0.59035,-0.36486 1.07336,-0.22432 1.07336,0.31231 0,0.53663 -0.52003,1.14903 -1.15563,1.36089 -0.73649,0.2455 -1.08817,2.63324 -0.96965,6.58334 0.16641,5.54588 -0.0196,6.19812 -1.76764,6.19812 -1.0745,0 -3.35716,-1.18099 -5.07259,-2.62443 -3.39198,-2.85416 -5.3836,-2.5238 -2.69503,0.44704 1.76165,1.9466 2.15103,3.25477 0.91054,3.05908 -0.4125,-0.0651 -2.1,-0.46184 -3.75,-0.88169 z m 9.5,-11 c 0,-0.55 -0.47656,-1 -1.05902,-1 -0.58246,0 -0.7809,0.45 -0.44098,1 0.33992,0.55 0.81648,1 1.05902,1 0.24254,0 0.44098,-0.45 0.44098,-1 z m 15,11.29056 c -3.34899,-1.2314 -5,-3.67121 -5,-7.38884 C 250,460.78625 252.65745,459 260.26782,459 l 5.82281,0 -0.68687,3.66131 c -0.58371,3.11144 -0.44514,3.56855 0.92266,3.04367 0.88524,-0.3397 1.8755,-0.18729 2.20057,0.33869 0.32508,0.52598 0.11449,0.95633 -0.46797,0.95633 -0.58246,0 -1.05902,1.08098 -1.05902,2.40217 0,1.79531 -0.79559,2.67952 -3.14922,3.5 -3.33567,1.16282 -6.38114,1.29647 -8.85078,0.38839 z m 6.58275,-4.81689 c -0.33051,-1.31686 -0.0936,-2.47006 0.55167,-2.68514 1.59351,-0.53117 0.0805,-4.78853 -1.70181,-4.78853 -1.49562,0 -2.04457,6.24167 -0.82783,9.41247 0.91703,2.38973 2.64039,0.70049 1.97797,-1.9388 z M 295,473 c -2.475,-0.38479 -3.91094,-0.7672 -3.19098,-0.84981 1.68906,-0.1938 0.50932,-2.15019 -1.29661,-2.15019 -0.75325,0 -2.08826,0.71871 -2.96668,1.59713 -1.00771,1.0077 -2.23348,1.31964 -3.32143,0.84524 -1.62422,-0.70825 -1.62273,-0.77618 0.0257,-1.17045 0.9625,-0.23021 1.75,-1.10936 1.75,-1.95365 0,-1.13808 0.64655,-1.37281 2.5,-0.90763 1.44165,0.36183 2.5,0.19606 2.5,-0.39159 C 291,467.45857 290.325,467 289.5,467 c -0.825,0 -1.5,-0.29502 -1.5,-0.65561 0,-1.4021 5.17168,-7.34439 6.39196,-7.34439 1.44899,0 6.60804,8.8888 6.60804,11.38533 0,0.88807 0.7875,1.6463 1.75,1.68496 1.49644,0.0601 1.46022,0.19481 -0.25,0.92971 -1.1,0.47269 -2.225,0.82347 -2.5,0.77952 -0.275,-0.0439 -2.525,-0.39473 -5,-0.77952 z m 17.06971,-0.26474 c -2.57847,-1.31058 -4.33366,-5.79548 -3.35386,-8.56987 1.38972,-3.93512 3.51881,-5.16539 8.93914,-5.16539 5.38689,0 6.36643,0.84035 4.46886,3.83385 -0.68077,1.07393 -0.96395,1.02522 -1.4533,-0.25 C 320.33627,461.71273 319.37365,461 318.53138,461 c -1.13736,0 -1.52744,1.09351 -1.51607,4.25 0.008,2.3375 0.46666,4.925 1.0183,5.75 0.87477,1.30825 1.13483,1.27629 2.03438,-0.25 1.21354,-2.05906 3.10725,-2.37025 2.34561,-0.38545 -0.54933,1.43155 -4.65347,3.64592 -6.71065,3.62071 -0.66162,-0.008 -2.29658,-0.57061 -3.63324,-1.25 z M 340.5,473.0929 c -2.83209,-0.33583 -4.78321,-1.02648 -4.5,-1.5929 0.275,-0.55 -0.5125,-1.1438 -1.75,-1.31955 -1.51338,-0.21493 -2.25,0.1943 -2.25,1.25 0,1.73516 -2.52561,2.14615 -3.5,0.56955 -0.33992,-0.55 -0.15062,-1 0.42066,-1 0.57128,0 1.92315,-1.6875 3.00415,-3.75 1.08101,-2.0625 3.03874,-5.05766 4.35051,-6.65591 l 2.38505,-2.90592 2.54605,3.40592 c 1.40033,1.87325 3.08664,5.09341 3.74737,7.15591 0.66072,2.0625 1.64297,3.75 2.18278,3.75 0.5398,0 0.70335,0.45 0.36343,1 -0.33992,0.55 -0.92898,0.9293 -1.30902,0.8429 -0.38004,-0.0864 -2.94098,-0.42391 -5.69098,-0.75 z M 336,468 c 0,-0.55 -0.675,-1 -1.5,-1 -0.825,0 -1.5,0.45 -1.5,1 0,0.55 0.675,1 1.5,1 0.825,0 1.5,-0.45 1.5,-1 z m 40.8303,4.84968 c -1.59893,-0.44622 -1.78106,-0.6816 -0.5803,-0.75 1.44374,-0.0822 1.75,-1.06772 1.75,-5.63106 0,-3.9943 -0.41683,-5.69134 -1.5,-6.10699 -3.42135,-1.3129 -1.0105,-1.84283 6.99767,-1.53816 8.48026,0.32264 8.50225,0.33043 8.47192,3 -0.0261,2.30088 -0.17346,2.43092 -1.04969,0.92653 -1.28158,-2.20034 -4.9199,-2.31598 -4.9199,-0.15638 0,0.87649 0.9,1.82897 2,2.11663 1.1,0.28766 2,1.23553 2,2.10638 0,1.23151 -0.26667,1.3167 -1.2,0.38337 -1.94521,-1.94521 -2.8,-1.39571 -2.8,1.8 0,3.54358 0.81823,3.71742 4.36514,0.92742 2.45654,-1.93231 2.63382,-1.94923 2.61955,-0.25 -0.008,1.00242 -0.34592,2.30151 -0.75,2.88686 -0.79301,1.14876 -11.59364,1.34887 -15.40439,0.2854 z m 22.54448,-0.0523 C 399.10373,472.35883 399.35852,472 399.94098,472 400.5568,472 401,469.71905 401,466.54969 c 0,-4.13581 -0.42206,-5.69614 -1.75,-6.46959 -1.96756,-1.146 -1.29723,-1.34864 3.75,-1.13364 2.68306,0.11429 4.25908,1.01323 6.75213,3.85131 2.04884,2.33241 3.52884,3.30299 4,2.6232 3.17121,-4.57541 5.21193,-6.2546 7.81764,-6.43266 4.34314,-0.29679 5.12299,-0.0399 3.22994,1.06397 -1.39287,0.8122 -1.59125,1.93676 -1.09717,6.21959 0.33171,2.87547 1.09685,5.55874 1.70029,5.96282 1.27392,0.85304 1.00244,0.89418 -6.21385,0.94167 -2.92105,0.0192 -5.58355,-0.2376 -5.91666,-0.57071 C 412.93921,472.27254 413.19167,472 413.83333,472 414.475,472 415,470.9921 415,469.76022 c 0,-2.1885 -0.0582,-2.17705 -2.54047,0.5 -3.12473,3.36988 -3.7985,3.3956 -6.28087,0.23978 C 403.94509,467.66048 403,467.34838 403,469.45031 c 0,0.79767 0.7875,1.90899 1.75,2.46959 1.9893,1.15866 1.83209,1.27327 -2.0662,1.50644 -1.54891,0.0926 -3.03797,-0.19038 -3.30902,-0.62895 z m 35.99957,-7e-4 C 435.10354,472.35851 435.35852,472 435.94098,472 c 1.9447,0 1.0891,-5.67658 -1.41084,-9.36045 L 432.06027,459 l 5.46987,0 c 5.16785,0 5.46986,0.13803 5.46986,2.5 0,1.63568 0.55889,2.5 1.61658,2.5 1.18512,0 1.48902,-0.66723 1.13867,-2.5 -0.4199,-2.19657 -0.12985,-2.5 2.38969,-2.5 l 2.8676,0 -3.00627,4.15004 c -3.35171,4.6269 -3.99094,8.84996 -1.3396,8.84996 0.91666,0 1.33405,0.33262 0.92751,0.73915 -1.00433,1.00433 -11.60384,1.05424 -12.21983,0.0575 z M 209.25,472.31067 C 210.66526,471.94083 211,470.73374 211,466 c 0,-4.73374 -0.33474,-5.94083 -1.75,-6.31067 -0.9625,-0.25153 1.4,-0.474 5.25,-0.49438 3.85,-0.0204 6.4375,0.18992 5.75,0.46733 -0.7995,0.32261 -1.25,2.60673 -1.25,6.33772 0,3.73099 0.4505,6.01511 1.25,6.33772 0.6875,0.27741 -1.9,0.48771 -5.75,0.46733 -3.85,-0.0204 -6.2125,-0.24285 -5.25,-0.49438 z m 145.5,0.027 C 356.25886,471.72888 356.49543,461 355,461 c -0.55,0 -1,-0.50242 -1,-1.1165 0,-1.73287 12.67777,-0.6343 14.57504,1.26297 0.85256,0.85255 1.59252,3.04208 1.64437,4.86561 0.14189,4.99064 -2.94612,7.00714 -10.58019,6.90897 -3.37657,-0.0434 -5.57672,-0.30592 -4.88922,-0.58333 z m 12.13639,-3.55964 c 0.97425,-2.63366 -2.5e-4,-6.9827 -1.69091,-7.54625 C 364.3727,460.95757 364,462.41809 364,465.91667 c 0,5.28605 1.45564,6.72909 2.88639,2.86141 z M 105.08617,443.96026 c -3.45502,-4.76952 -6.264508,-11.7934 -8.183915,-20.46026 -1.733661,-7.82814 -1.73865,-34.73383 -0.0083,-44.5 2.699142,-15.23366 10.753045,-35.37549 17.914825,-44.80279 l 2.50908,-3.3028 -1.73071,-8.05396 c -0.95189,-4.42967 -2.14684,-12.16842 -2.65545,-17.1972 -0.7098,-7.01801 -1.33232,-9.37569 -2.67825,-10.14325 -0.96442,-0.55 -4.4535,-3.72674 -7.7535,-7.05943 -9.76912,-9.86589 -15.327147,-18.73213 -17.587719,-28.05618 -1.532313,-6.32023 -2.276741,-7.06248 -5.404435,-5.38859 -3.630271,1.94286 -6.982371,9.72442 -10.125026,23.5042 -2.442359,10.70915 -2.744609,14.04384 -2.809786,31 -0.04017,10.45 0.295315,21.925 0.745516,25.5 0.486635,3.86431 0.453253,6.09451 -0.08233,5.5 -2.153181,-2.3901 -9.487015,-28.63043 -13.415381,-48 -3.064916,-15.11216 -3.247085,-17.22078 -3.28291,-38 -0.03955,-22.93958 0.628835,-28.43897 5.590757,-46 C 67.806193,167.17145 96.833254,134.50008 135,119.7265 c 16.11632,-6.23831 26.20476,-8.95548 41.32313,-11.12976 17.11119,-2.46088 30.81368,-2.9801 39.93938,-1.5134 l 8.23749,1.32394 -5.54637,0.73496 c -13.29042,1.76114 -39.69525,12.04252 -52.90338,20.59924 -16.40379,10.627 -22.55543,16.69525 -21.86228,21.56595 0.29527,2.07477 0.95678,2.22766 12.31203,2.84559 14.36299,0.78162 18.24371,1.70058 28.58308,6.76849 l 7.89269,3.86866 7.98552,-3.45248 c 4.39203,-1.89885 12.60998,-4.60674 18.26211,-6.01753 5.65213,-1.41078 10.40521,-2.67606 10.5624,-2.81174 0.26449,-0.22829 2.08323,-8.3595 7.2713,-32.50842 1.12252,-5.225 2.65928,-13.1 3.41501,-17.5 0.75574,-4.4 2.54933,-13.625 3.98576,-20.5 1.43642,-6.875 3.95016,-20.749802 5.58608,-30.832893 1.63593,-10.083092 3.49096,-19.29808 4.1223,-20.477751 1.10139,-2.057965 1.19628,-2.003967 2.34213,1.332893 0.65683,1.912763 2.42085,10.902751 3.92005,19.977751 3.60952,21.849261 10.55604,57.95033 15.70595,81.62383 l 4.16018,19.12383 5.60272,1.23249 c 8.58628,1.88882 22.95478,6.71401 29.36654,9.86178 4.44607,2.18274 5.99649,2.54934 6.78149,1.60348 0.55971,-0.67442 3.36599,-2.19964 6.23618,-3.38939 2.87018,-1.18975 6.11851,-2.57598 7.21851,-3.08051 4.57192,-2.097 19.0539,-4.20461 25.64876,-3.73275 8.10179,0.57968 9.65256,-0.45753 8.20911,-5.49055 -1.8177,-6.33793 -23.8424,-22.06406 -41.53074,-29.65388 C 315.11206,114.64248 300.82847,110 296.75741,110 c -4.13519,0 -4.12636,-1.67721 0.0125,-2.36137 11.06342,-1.82885 36.67634,0.43522 54.46947,4.81486 22.61517,5.56655 40.61629,13.76956 58.21611,26.52874 5.34807,3.87714 23.55262,23.28334 27.69,29.51777 10.25045,15.44593 17.35781,32.79488 22.10045,53.94678 1.99298,8.88858 2.24464,12.6598 2.17238,32.55322 -0.0739,20.35079 -0.33698,23.71825 -2.75402,35.2538 -4.26101,20.33609 -13.67736,52.01823 -15.86175,53.36826 -0.72334,0.44705 -0.87016,-0.4395 -0.45212,-2.73001 1.43207,-7.84666 2.75342,-32.02094 2.18048,-39.89205 -1.23493,-16.96554 -5.95356,-36.58304 -9.80166,-40.75 -1.14281,-1.2375 -3.07431,-2.25 -4.29222,-2.25 -1.76835,0 -2.35472,0.75537 -2.91102,3.75 -1.7336,9.33221 -13.95612,26.84021 -24.06095,34.46582 -4.93286,3.72258 -4.96914,3.79155 -5.60263,10.65022 -0.84112,9.10659 -4.82486,25.77171 -8.48825,35.50878 -0.8018,2.13115 -1.32649,3.98921 -1.16598,4.12902 4.80054,4.18133 28.57333,16.05332 38.79185,19.37241 4.85055,1.57552 26.16135,6.12375 28.69289,6.12375 0.16891,0 0.30711,0.93895 0.30711,2.08655 0,1.18939 -2.58082,4.77422 -6.00227,8.3373 -9.61013,10.00795 -30.54642,19.79588 -51.49773,24.07571 -16.40679,3.3515 -38.65459,3.04738 -51.66085,-0.7062 -3.22252,-0.93001 -4.05964,-0.77136 -6.99156,1.32506 -15.95222,11.40638 -35.50347,19.88078 -55.57986,24.09084 -8.79935,1.84524 -13.9668,2.25933 -28.26773,2.26521 -17.96488,0.007 -26.85323,-1.03528 -39.5,-4.63366 -20.23403,-5.75718 -38.20406,-15.29442 -54.3308,-28.83502 l -7.26258,-6.09792 -9.20331,7.95559 c -14.01416,12.11421 -22.85559,22.73549 -30.61546,36.77859 -2.66808,4.82846 -5.33019,8.93873 -5.91578,9.13393 -0.58559,0.19519 -2.42425,-1.52188 -4.0859,-3.81572 z m 4.43643,-9.68029 c 11.35561,-21.36294 43.83169,-50.4492 72.07556,-64.55239 14.89328,-7.43676 28.96042,-11.24234 51.15184,-13.8381 5.6375,-0.65943 10.25,-1.62559 10.25,-2.14702 0,-0.52144 -6.1875,-9.27728 -13.75,-19.45742 -7.5625,-10.18015 -16.30499,-21.94638 -19.42776,-26.1472 -3.12276,-4.20081 -9.16465,-12.47534 -13.42642,-18.38784 -4.26176,-5.9125 -8.00677,-10.74662 -8.32224,-10.74248 -0.31547,0.004 -2.59858,2.08065 -5.07358,4.61447 -2.475,2.53381 -12.59307,10.51793 -22.4846,17.74247 -28.59644,20.88618 -38.01445,30.90925 -48.04861,51.13554 -9.4198,18.98788 -13.809517,42.2375 -11.67161,61.81729 1.06002,9.708 4.67019,23.68271 6.11811,23.68271 0.34755,0 1.52173,-1.67401 2.60931,-3.72003 z M 399,400.52559 c 13.56508,-2.68425 21.75807,-5.3737 32.05284,-10.52174 6.28513,-3.14296 16.95051,-10.61805 16.94381,-11.87546 -0.002,-0.34561 -4.0577,-1.41549 -9.01302,-2.3775 -15.8973,-3.08626 -37.86906,-13.02651 -57.37125,-25.95535 C 356.16385,332.92463 341.89863,316.90208 328.5977,290.25 325.50977,284.0625 322.60157,279 322.13502,279 c -0.46655,0 -2.3877,2.3625 -4.26922,5.25 -3.41594,5.24232 -22.82759,33.93671 -39.20413,57.95172 -4.76392,6.98595 -8.64431,13.06095 -8.62309,13.5 0.0212,0.43905 2.98837,2.14828 6.59369,3.79828 7.10919,3.25358 10.18406,5.15564 26.86773,16.6199 24.13766,16.5863 38.74372,22.9057 59.84857,25.89385 8.04999,1.13976 26.19963,0.38216 35.65143,-1.48816 z M 263.66373,323 c 2.74102,-4.125 8.10534,-12 11.92071,-17.5 3.81537,-5.5 12.01421,-17.70695 18.21964,-27.12655 l 11.28261,-17.12655 -6.98261,-20.87345 C 288.8248,212.6345 282.12494,188.46072 276.38254,162 c -1.37262,-6.325 -3.3798,-15.55 -4.46039,-20.5 -3.46055,-15.85211 -9.81532,-50.385926 -13.12245,-71.31147 -3.43446,-21.73122 -3.96615,-22.475211 -5.89967,-8.255334 -0.56588,4.161742 -2.10492,13.451122 -3.42007,20.643065 -1.31516,7.191944 -3.33101,18.441939 -4.47969,24.999999 -8.64286,49.34434 -25.28665,114.66744 -36.90203,144.83212 l -3.02824,7.8642 7.26852,10.11371 c 3.99768,5.56254 10.12988,14.16371 13.6271,19.11371 7.46171,10.56136 22.25601,30.77949 23.04964,31.5 0.3029,0.275 2.28359,2.8923 4.40152,5.81622 2.11793,2.92392 4.16859,4.94892 4.55703,4.5 0.38844,-0.44892 2.94891,-4.19122 5.68992,-8.31622 z m 188.97042,-28 c 2.20078,-13.24209 2.75444,-19.85663 2.80404,-33.5 l 0.0618,-17 -4.23948,0 c -3.81932,0 -4.1662,-0.19822 -3.5,-2 0.40671,-1.1 0.73948,-5.61699 0.73948,-10.03775 0,-9.26847 -2.08178,-15.11749 -6.3153,-17.74364 l -2.6847,-1.66539 3.09501,-0.0266 c 3.73378,-0.0321 6.6919,-2.97068 6.23535,-6.19414 -0.25383,-1.79212 -1.05421,-2.4029 -3.45493,-2.63647 -1.71851,-0.16721 -3.74351,0.31494 -4.5,1.07143 C 439.70819,206.43467 439.5,205.79165 439.5,201.01921 439.5,190.10685 427.80742,173 420.3488,173 l -3.3488,0 0,5.60703 c 0,10.70739 11.48174,28.20957 18.70238,28.50897 1.83727,0.0762 2.16974,0.27822 0.96853,0.58856 C 428.40464,209.84019 415,191.97467 415,178.82186 415,174.63527 417.70753,171 420.82569,171 c 1.00412,0 2.83774,-1.07728 4.07469,-2.39396 1.96546,-2.09214 2.08319,-2.65948 0.93377,-4.5 C 425.11077,162.94772 424.15893,162 423.71896,162 c -0.89641,0 -6.89937,4.06788 -7.8,5.28563 -0.31957,0.4321 -1.09752,-0.93825 -1.72879,-3.04522 -2.26425,-7.55742 -10.59473,-14.89641 -18.95814,-16.70178 l -3.26798,-0.70544 3.04774,-3.84808 3.04773,-3.84807 -4.27976,-2.93592 c -6.44423,-4.42075 -24.0189,-12.65034 -35.29225,-16.52612 -12.0333,-4.13704 -27.58867,-7.4282 -38.77899,-8.20475 l -8.20852,-0.56963 12,4.69531 c 16.98285,6.64497 31.87794,15.91753 43.22676,26.90973 4.63133,4.4858 5.27324,5.59365 5.27324,9.10094 0,2.19637 -0.54,4.5334 -1.2,5.1934 -0.74485,0.74485 -4.44291,1.20287 -9.75,1.20755 -11.01556,0.01 -19.57524,1.42828 -27.33879,4.5307 l -6.21121,2.48208 8.1561,-0.5707 c 9.46995,-0.66263 22.62673,0.90605 29.49842,3.51709 5.61947,2.13522 15.28582,8.8412 23.29329,16.15958 12.28933,11.23175 19.41755,23.49458 24.14243,41.53274 2.50932,9.5798 2.84036,12.58595 2.84564,25.84096 0.007,16.91974 -0.96851,20.94923 -8.2875,34.24213 -3.75014,6.81106 -3.2942,8.57101 0.91653,3.53789 9.79347,-11.70619 14.28645,-19.42962 16.85269,-28.96971 1.27089,-4.72456 3.37377,-5.91043 7.61882,-4.29646 4.99526,1.89919 6.24811,4.32239 10.59179,20.48615 2.53208,9.42239 3.04561,13.50983 3.58062,28.5 0.60859,17.05142 0.65739,17.35902 1.90384,12 0.70358,-3.025 2.51325,-12.925 4.02148,-22 z m -14.88344,-50.75 c -3.23529,-3.39133 -4.28244,-6.11744 -5.19028,-13.5123 -0.70331,-5.72888 0.50709,-12.09378 2.70755,-14.2377 0.69739,-0.67946 0.8038,-0.37342 0.332,0.95479 -3.81792,10.74805 0.63967,27.48044 7.68415,28.84395 1.99272,0.3857 1.95777,0.44261 -0.34704,0.56508 -1.61748,0.0859 -3.53067,-0.87826 -5.18638,-2.61382 z M 402.26593,170.51583 C 397.13588,168.28574 389.15755,160.22726 388.01801,156.12479 386.7441,151.53857 386.73957,150 388,150 c 0.55,0 1,0.92235 1,2.04966 0,4.07281 3.91653,9.74191 10.1829,14.73954 0.88907,0.70906 4.02413,2.15532 6.96679,3.21392 4.48731,1.61427 4.86642,1.92423 2.35031,1.92166 -1.65,-0.002 -4.45533,-0.63571 -6.23407,-1.40895 z M 65.846843,283.22851 c 3.46588,-16.46662 7.442314,-26.91678 11.259607,-29.59052 3.475834,-2.43457 7.766015,-2.13434 8.74557,0.61201 0.441385,1.2375 2.012304,5.63167 3.49093,9.76482 1.731729,4.84064 4.79692,10.33047 8.613604,15.42716 7.362546,9.83175 10.259266,11.89084 6.617346,4.70386 C 97.430182,270.04839 96.585216,266.56035 96.544431,251 c -0.03336,-12.72654 0.304096,-15.81349 2.759044,-25.23922 1.538375,-5.90657 3.896775,-13.2259 5.240885,-16.26516 6.46749,-14.62416 17.40169,-26.93149 33.46682,-37.66968 10.65722,-7.12344 19.46871,-9.23613 36.14149,-8.66546 5.92717,0.20288 10.45507,0.0602 10.062,-0.317 -1.45318,-1.39461 -13.35712,-4.87241 -19.93108,-5.82298 -3.73097,-0.53949 -9.76599,-0.9898 -13.41115,-1.00069 -7.91493,-0.0237 -9.37886,-1.2075 -8.60723,-6.96043 0.64392,-4.80081 2.60779,-6.93279 14.7198,-15.97985 11.03472,-8.24238 23.43977,-14.70724 37.51499,-19.55084 9.87088,-3.3968 9.93858,-3.44179 5.24342,-3.48496 -6.28924,-0.0578 -23.14442,2.47873 -33.74342,5.07808 -15.4077,3.77866 -39.67787,13.96419 -46.82802,19.65245 l -2.32802,1.85205 2.32802,3.62421 c 1.28041,1.99332 3.00302,3.8252 3.82802,4.07085 0.825,0.24564 -0.0991,0.49883 -2.05366,0.56263 -8.49331,0.27724 -19.69653,9.41513 -21.528235,17.55947 -0.554664,2.46621 -0.844905,2.69724 -1.790053,1.42486 -0.620429,-0.83524 -2.394699,-2.34315 -3.942824,-3.35092 -2.759405,-1.79627 -2.856724,-1.79036 -4.94752,0.30044 l -2.132749,2.13275 2.371835,2.5247 c 1.304509,1.38858 3.44495,2.5247 4.756537,2.5247 1.360674,0 2.114981,0.43642 1.756588,1.01631 -0.345464,0.55897 -1.033806,0.76558 -1.52965,0.45914 -1.587217,-0.98096 -6.608425,2.31793 -10.832759,7.11703 -5.100852,5.79487 -9.055105,14.00055 -9.807295,20.35162 l -0.573654,4.8436 -3.116678,-0.89385 C 67.915709,200.40223 66.244965,200 65.917117,200 65.376607,200 63,204.49832 63,205.52137 c 0,1.11089 6.783967,3.83608 9,3.6154 2.437775,-0.24276 2.42533,-0.20167 -0.5,1.6511 -6.616146,4.19037 -10.79802,19.89927 -7.211352,27.08892 L 65.846711,241 l -5.055472,0 -5.055471,0 0.570587,21.25 c 0.540893,20.14408 1.833779,30.86381 6.482685,53.75 0.468781,2.30777 0.921696,-1.77987 1.329612,-12 0.340258,-8.525 1.117944,-17.87217 1.728191,-20.77149 z M 73,241.53079 c 0,-0.25806 0.913674,-2.22213 2.030387,-4.36459 3.121778,-5.98926 4.120908,-14.14515 2.499875,-20.40648 L 76.16854,211.5 78.204299,214 c 1.803465,2.21473 1.979256,3.49982 1.540587,11.26213 -0.412293,7.29557 -0.936883,9.42961 -3.134218,12.75 C 74.221238,241.62281 73,242.81292 73,241.53079 z m 6,-37.36181 c 0,-0.45706 1.179763,-1.46241 2.621696,-2.23411 C 84.69967,200.28759 91.81356,191.21289 94.50541,185.5 c 1.129499,-2.39712 1.906763,-6.30368 1.939673,-9.74885 0.05742,-6.01112 1.476753,-8.14852 1.66088,-2.50115 0.205934,6.31625 -0.321134,9.17951 -2.665613,14.4808 C 92.208601,195.03835 79,208.24521 79,204.16898 z m 27.92868,-36.33406 c 8.42518,-2.41968 17.0054,-11.04166 18.09858,-18.18666 0.63138,-4.12667 0.63896,-4.13302 1.45704,-1.21927 2.13761,7.61347 -11.39797,20.88805 -20.88352,20.48082 -1.38584,-0.0595 -0.93393,-0.4253 1.3279,-1.07489 z M 409.45813,274.4827 c 3.87651,-10.24395 4.98556,-18.97598 3.6317,-28.59386 -2.86528,-20.35496 -9.21221,-37.36074 -18.53169,-49.65323 -5.16978,-6.81901 -16.6123,-17.25925 -25.07311,-22.87691 -4.44916,-2.95408 -6.9653,-3.7902 -15.00692,-4.98683 -5.31383,-0.79072 -14.45775,-1.31037 -20.31981,-1.15477 L 323.5,167.5 l 4.6808,2.7516 c 17.46104,10.26444 35.24808,26.98926 45.99519,43.2484 14.73204,22.28789 23.29788,47.79974 23.87205,71.09866 0.30165,12.24042 0.62797,12.47635 5.12763,3.70724 2.20297,-4.29324 5.03008,-10.51368 6.28246,-13.8232 z M 116.10434,260 c 9.76034,-39.46756 34.20823,-71.59005 69.39566,-91.1801 l 5,-2.78367 -14.5,0.0186 c -20.16963,0.0259 -25.75048,1.27034 -35.29837,7.87079 -19.78499,13.67736 -31.99092,30.224 -37.82476,51.27612 -6.797869,24.53092 -6.006733,35.98092 3.95687,57.26725 l 4.66626,9.96904 1.25114,-11.96904 C 113.43927,273.88606 114.94821,264.675 116.10434,260 z M 61.25,238.33772 c -0.6875,-0.27741 -1.8125,-0.27741 -2.5,0 -0.6875,0.27741 -0.125,0.50439 1.25,0.50439 1.375,0 1.9375,-0.22698 1.25,-0.50439 z M 453.28949,231.999 C 452.56994,229.24745 452,229.49497 452,232.55902 c 0,1.40746 0.40775,2.30701 0.90612,1.999 0.49837,-0.30801 0.67088,-1.45956 0.38337,-2.55902 z M 61,230 c 0,-0.55 -0.423442,-1 -0.940983,-1 -0.517541,0 -1.219098,0.45 -1.559017,1 -0.339919,0.55 0.08352,1 0.940983,1 C 60.298442,231 61,230.55 61,230 z m 392,-2 c 0,-0.55 -0.45,-1 -1,-1 -0.55,0 -1,0.45 -1,1 0,0.55 0.45,1 1,1 0.55,0 1,-0.45 1,-1 z M 61.378376,221.75 c 0.36285,-1.5125 0.253614,-2.75 -0.242747,-2.75 -1.011959,0 -2.140522,4.66177 -1.325798,5.4765 0.688804,0.6888 0.792416,0.5087 1.568545,-2.7265 z M 451,219.44098 c 0,-0.85746 -0.45734,-1.27636 -1.01631,-0.9309 -0.55897,0.34546 -0.75742,1.04702 -0.44098,1.55902 0.85723,1.38704 1.45729,1.12841 1.45729,-0.62812 z M 62.979944,215.47583 c -0.69572,-0.83829 -1.525288,-1.26382 -1.843484,-0.94562 -0.318197,0.31819 0.08343,0.99718 0.8925,1.50885 2.116971,1.33881 2.393577,1.17499 0.950984,-0.56323 z M 64.5,211 c -0.339919,-0.55 -0.816476,-1 -1.059017,-1 C 63.198442,210 63,210.45 63,211 c 0,0.55 0.476558,1 1.059017,1 0.582459,0 0.780902,-0.45 0.440983,-1 z m 378.0808,-18.75253 c -1.08935,-1.08936 -1.50282,0.33508 -0.81164,2.7962 l 0.68983,2.45633 0.35131,-2.33586 c 0.19322,-1.28473 0.0899,-2.59723 -0.2295,-2.91667 z M 72,190.39132 c 0,-0.81985 0.680306,-2.80621 1.51179,-4.41412 1.201939,-2.32429 1.234293,-2.81699 0.157856,-2.40393 -0.744663,0.28576 -1.809335,2.50966 -2.365936,4.94202 -0.556602,2.43235 -0.627637,4.18491 -0.157857,3.89457 C 71.615634,192.11952 72,191.21118 72,190.39132 z m 368.81612,-1.89555 c -0.62755,-1.37732 -1.27505,-2.37017 -1.4389,-2.20633 -0.60844,0.60845 0.88762,4.71056 1.71797,4.71056 0.47406,0 0.34848,-1.1269 -0.27907,-2.50423 z M 77,180.44098 C 77,180.19844 76.55,180 76,180 c -0.55,0 -1,0.47656 -1,1.05902 0,0.58246 0.45,0.7809 1,0.44098 0.55,-0.33992 1,-0.81648 1,-1.05902 z m 359,0.24708 c 0,-0.72157 -1.4625,-2.38259 -3.25,-3.69115 -3.25474,-2.38267 -2.98001,-1.69553 1.25,3.12649 1.87727,2.14001 2,2.17466 2,0.56466 z M 83.237332,172.5 c 1.053686,-2 1.053686,-2 -1.325477,0 -3.026198,2.54392 -4.839482,4.74522 -4.880052,5.92431 -0.04365,1.26871 4.904898,-3.45559 6.205529,-5.92431 z M 418.25,160.33772 c -0.6875,-0.27741 -1.25,-1.3193 -1.25,-2.3153 0,-0.996 -1.38402,-3.29251 -3.0756,-5.10335 -2.3599,-2.52628 -3.2696,-2.97856 -3.90925,-1.94358 -0.88015,1.42412 1.00232,4.02451 2.91342,4.02451 0.58929,0 1.07143,0.64286 1.07143,1.42857 0,1.76483 2.72657,4.59932 4.32143,4.49248 0.82922,-0.0555 0.80804,-0.22846 -0.0714,-0.58333 z M 99.868879,154.65799 c 0.612571,-0.7381 0.817671,-1.6381 0.455781,-2 C 99.962762,152.2961 100.41667,152 101.33333,152 102.25,152 103,151.55 103,151 c 0,-0.55 0.9375,-1.9375 2.08333,-3.08333 1.14584,-1.14584 1.84227,-2.32441 1.54762,-2.61905 -0.29464,-0.29464 -1.22971,0.15828 -2.07793,1.00651 -0.84823,0.84822 -2.60905,2.38138 -3.91294,3.40703 C 98.144461,151.67421 96.197903,156 97.810168,156 c 0.519718,0 1.446139,-0.6039 2.058711,-1.34201 z M 407.25,148.18168 c -1.2375,-0.17643 -2.25,-0.687 -2.25,-1.1346 0,-0.4476 -0.9,-1.04917 -2,-1.33683 -1.1,-0.28766 -1.98978,-0.22764 -1.97729,0.13337 0.0391,1.13004 6.42604,3.93087 7.47729,3.27897 0.55,-0.34107 -0.0125,-0.76447 -1.25,-0.94091 z M 112.91667,143.28297 C 113.14583,143.12734 112.35833,143 111.16667,143 109.83473,143 109,143.62507 109,144.62244 c 0,1.3888 0.25202,1.42955 1.75,0.28297 0.9625,-0.73671 1.9375,-1.46681 2.16667,-1.62244 z m -7.6534,-59.494097 C 104.6879,83.079993 102.88525,79.6875 101.25738,76.25 L 98.297623,70 l 5.410207,0 c 3.35216,0 5.1751,0.380401 4.79217,1 -0.85334,1.380731 1.34719,1.251283 6.84231,-0.402505 2.65221,-0.798198 4.9005,-1.013636 5.21795,-0.5 C 120.86703,70.593873 120.64148,71 120.05902,71 c -1.55052,0 -1.29274,3.561139 0.35688,4.930205 1.12753,0.935763 1.5419,0.778124 2.03452,-0.773997 0.34024,-1.072 0.49059,-2.547509 0.3341,-3.278908 -0.15649,-0.7314 0.72798,-1.484299 1.96548,-1.67311 1.2375,-0.188811 2.25,-0.119246 2.25,0.154588 0,0.991808 -7.20713,12.568238 -8.48471,13.628532 -0.99183,0.823143 -1.79679,0.470277 -3.30702,-1.449672 -2.47834,-3.150688 -2.95905,-3.150593 -6.24884,0.0012 -2.09414,2.006311 -2.86946,2.268515 -3.69616,1.25 z m 5.3409,-9.51804 c -1.01652,-1.016515 -1.85525,0.513892 -1.02122,1.863382 0.63003,1.019417 0.86558,1.020206 1.2043,0.004 0.2316,-0.694785 0.14921,-1.535121 -0.18308,-1.867413 z m 22.85038,8.274622 C 128.33478,77.425686 132.21154,70 140.00421,70 c 10.59514,0 15.15665,9.323127 6.5579,13.403503 -5.05811,2.40023 -10.1849,2.064621 -13.10756,-0.858048 z m 9.37353,-2.993403 C 143.24346,76.015023 142.26143,72 140.98095,72 140.44143,72 140,74.5125 140,77.583333 c 0,4.018908 0.35024,5.468327 1.25,5.172881 0.6875,-0.225748 1.39764,-1.667621 1.57808,-3.204162 z m 14.58476,4.302733 c -0.22074,-0.354869 0.23613,-0.889841 1.01528,-1.188829 0.77915,-0.298987 1.25338,-1.35864 1.05384,-2.354784 -0.19953,-0.996145 -0.57967,-3.782478 -0.84474,-6.191851 l -0.48196,-4.380679 6.31798,0.507147 C 172.29311,70.873493 173,71.302362 173,75.418944 c 0,2.353659 0.71742,3.839668 2.5,5.178332 2.79059,2.095644 3.45152,4.981833 0.91821,4.009713 C 175.54823,84.273145 173.72167,84 172.3592,84 c -1.36248,0 -2.24009,-0.383705 -1.95025,-0.852678 0.28984,-0.468973 -0.0612,-1.657108 -0.78016,-2.640299 -1.17096,-1.601393 -1.37143,-1.620077 -1.92429,-0.179347 -0.33943,0.884551 -0.18681,1.874243 0.33917,2.199316 0.52598,0.325073 0.95633,0.988535 0.95633,1.474359 0,0.994996 -10.96332,0.856321 -11.58716,-0.146566 z M 170,74 c 0,-1.111111 -0.66667,-2 -1.5,-2 -1.52241,0 -2.05126,2.115404 -0.83333,3.333333 C 168.93446,76.601124 170,75.992243 170,74 z m 14,10.074801 C 184,83.483661 184.45,83 185,83 c 0.55,0 1,-2.452639 1,-5.45031 0,-4.135807 -0.42206,-5.69614 -1.75,-6.469591 -1.28133,-0.746307 0.72725,-1.027425 7.5,-1.04969 L 201,70 l -0.0318,2.75 c -0.0289,2.499972 -0.15259,2.590891 -1.36025,1 -1.72599,-2.273711 -6.07675,-2.414048 -5.21494,-0.168213 0.33385,0.869984 0.60699,1.769984 0.60699,2 C 195,75.811804 195.9,76 197,76 c 1.33333,0 2,0.666667 2,2 0,2.414419 -1.53974,2.641805 -2.41655,0.356872 -0.74517,-1.941872 -1.84402,-1.119835 -2.2746,1.701597 -0.20149,1.320239 0.46314,2.316213 1.94243,2.910844 2.73386,1.098927 2.83772,1.067168 -5.50128,1.682339 -4.45538,0.328675 -6.75,0.132578 -6.75,-0.576851 z m 30.60137,-1.491163 c -0.70942,-2.712838 -0.0194,-3.144522 1.92244,-1.202686 C 218.29542,83.152566 223,83.602268 223,82 223,81.45 222.07042,81 220.93426,81 217.00941,81 215,79.137636 215,75.5 c 0,-4.138057 2.02863,-5.500849 8.18426,-5.498009 l 4.31574,0.002 0.22308,5.992596 c 0.1947,5.230222 -0.0608,6.178599 -2.00832,7.454663 -1.22727,0.804137 -4.11238,1.387058 -6.41137,1.29538 -3.25656,-0.129863 -4.2953,-0.607695 -4.70202,-2.162983 z M 223.25,72.337719 c -0.6875,-0.277412 -1.8125,-0.277412 -2.5,0 -0.6875,0.277413 -0.125,0.504386 1.25,0.504386 1.375,0 1.9375,-0.226973 1.25,-0.504386 z m 59.23324,11.635156 c -0.25947,-0.419818 0.11412,-0.988128 0.8302,-1.262911 0.76024,-0.29173 1.40334,-2.458241 1.54562,-5.206982 0.18423,-3.558995 -0.19578,-5.040616 -1.55769,-6.073376 -1.59086,-1.206364 -1.13491,-1.369716 3.90158,-1.397803 C 294.45977,69.991335 298,71.53059 298,74.726256 c 0,1.322875 0.43256,3.21348 0.96125,4.201345 1.74196,3.254867 -0.8114,4.813841 -8.73376,5.332482 -3.99988,0.261854 -7.48479,0.13261 -7.74425,-0.287208 z m 13.16002,-2.48561 c 0.31927,-0.832004 -0.0245,-2.241732 -0.76398,-3.132728 -1.21161,-1.4599 -1.40475,-1.384524 -1.95435,0.762735 -0.33544,1.3105 -0.42921,2.720228 -0.20839,3.132728 0.67572,1.262262 2.31344,0.835454 2.92672,-0.762735 z M 295,74 c 0,-1.111111 -0.66667,-2 -1.5,-2 -1.52241,0 -2.05126,2.115404 -0.83333,3.333333 C 293.93446,76.601124 295,75.992243 295,74 z m 18.22519,8.75 c -0.58,-2.21396 -3.13087,-2.261256 -4.72034,-0.08752 -0.84714,1.158537 -1.78994,1.414753 -3.11024,0.845242 -1.49215,-0.643639 -1.57598,-0.897551 -0.39461,-1.195318 0.825,-0.207944 2.35056,-2.144099 3.39012,-4.302568 1.03957,-2.158468 2.93888,-4.909739 4.22069,-6.113936 2.03235,-1.909292 2.54694,-2.01072 4.02157,-0.792674 0.93005,0.768226 2.84222,3.871774 4.24926,6.896774 1.40705,3.025 2.69532,5.758103 2.86283,6.073563 0.16752,0.315459 -2.02764,0.540459 -4.87812,0.5 -4.05595,-0.05757 -5.28237,-0.454024 -5.64116,-1.823563 z M 312.5,79 c -0.33992,-0.55 -1.26648,-1 -2.05902,-1 C 309.64844,78 309,78.45 309,79 c 0,0.55 0.92656,1 2.05902,1 1.13246,0 1.7809,-0.45 1.44098,-1 z m 21.75,4.607954 C 335.51737,82.645884 336,80.862026 336,77.139757 336,72.640197 335.74698,72 333.96862,72 c -1.11727,0 -2.29041,0.675 -2.60699,1.5 C 330.45386,75.865611 329,75.249994 329,72.5 l 0,-2.5 11,0 11,0 0,2.5 c 0,2.827828 -1.16167,3.215052 -3,1 -2.60496,-3.138779 -4,-1.743735 -4,4 0,4.222222 0.34848,5.5 1.5,5.5 0.825,0 1.5,0.45 1.5,1 0,0.577637 -3.06213,0.986567 -7.25,0.968197 -6.24369,-0.02739 -7.0071,-0.216193 -5.5,-1.360243 z M 364,83.874695 C 364,83.393613 364.45,83 365,83 c 1.42042,0 1.24491,-10.355088 -0.2,-11.8 -0.93333,-0.933333 0.44247,-1.2 6.19113,-1.2 6.1068,0 7.11075,0.217207 5.77757,1.25 -1.00088,0.77536 -1.73795,3.148559 -1.94113,6.25 -0.29694,4.532509 -0.14057,4.968061 1.67243,4.658397 1.1,-0.187882 2.15,-0.750382 2.33333,-1.25 C 379.192,79.930972 382,79.627126 382,80.565741 c 0,0.311158 -0.43863,1.385321 -0.97472,2.387029 -0.81948,1.531213 -2.25291,1.819324 -9,1.808954 C 367.61137,84.75494 364,84.355777 364,83.874695 z m 23.40809,-0.773133 C 388.36956,82.039148 389,79.553091 389,76.824074 c 0,-3.697607 -0.40874,-4.715575 -2.25,-5.603579 -1.79985,-0.868037 -0.3994,-1.098675 7,-1.152815 8.60589,-0.06297 9.25,0.07159 9.25,1.93232 0,2.109085 -1.45488,2.691037 -2.5,1 -1.09831,-1.777095 -3.5,-1.060816 -3.5,1.043837 0,1.391782 0.55831,1.950092 1.75,1.75 1.21054,-0.203258 1.85849,0.47597 2.10195,2.203416 0.3422,2.428021 0.29714,2.447644 -1.62536,0.707812 -1.91781,-1.735598 -1.99207,-1.71223 -2.46784,0.776614 -0.6799,3.556664 0.9044,4.143482 4.33632,1.606156 C 403.92591,78.994899 404,78.990391 404,80.911046 c 0,2.911362 -1.66916,3.515549 -10.34191,3.743471 -7.42657,0.195172 -7.7576,0.11292 -6.25,-1.552955 z m 25.12625,0.842882 C 412.85537,83.425 413.65398,83 414.30902,83 415.0787,83 415.5,81.147685 415.5,77.763695 c 0,-5.605739 -1.88061,-7.419867 -4.46441,-4.306584 C 409.16352,75.712821 408,75.345968 408,72.5 l 0,-2.5 11.36346,0 c 11.18755,0 11.35982,0.03483 11.12763,2.25 -0.12972,1.2375 -0.29327,2.388017 -0.36347,2.556704 -0.0702,0.168687 -1.12775,-0.393813 -2.35013,-1.25 C 424.3777,71.175398 424,71.56968 424,77.5 c 0,4.222222 0.34848,5.5 1.5,5.5 0.825,0 1.5,0.425 1.5,0.944444 0,0.519445 -3.38611,0.944445 -7.52468,0.944445 -4.46673,0 -7.28747,-0.383813 -6.94098,-0.944445 z M 435,83.895478 c 0,-0.400846 0.5455,-0.910645 1.21222,-1.132885 1.46389,-0.487965 1.12742,-9.637342 -0.42338,-11.512593 -0.81757,-0.988619 1.55341,-1.24335 11.33872,-1.218197 10.50347,0.027 12.10809,0.232477 10.62244,1.360243 C 455.36765,73.20051 455.20642,83 457.55902,83 c 0.85746,0 1.33276,0.366095 1.05622,0.813544 -0.27654,0.447449 -2.6656,0.784949 -5.30902,0.75 -4.69483,-0.06207 -4.81359,-0.140274 -5.12411,-3.374249 -0.39242,-4.086964 -2.68211,-3.743493 -2.68211,0.402338 0,2.833948 -0.13434,2.909957 -5.25,2.970512 -2.8875,0.03418 -5.25,-0.265821 -5.25,-0.666667 z m 13,-10.478811 c 0,-3.132717 -2.34847,-2.789835 -2.81955,0.411661 C 444.96824,75.270536 445.38811,76 446.43045,76 447.45147,76 448,75.097174 448,73.416667 z M 206.45728,73.95279 c -1.32543,-1.464584 -1.51307,-2.296996 -0.70087,-3.109201 1.57408,-1.574081 4.24359,-0.27442 4.24359,2.066009 0,2.888582 -1.47864,3.323982 -3.54272,1.043192 z m 149,0 c -1.32543,-1.464584 -1.51307,-2.296996 -0.70087,-3.109201 1.57408,-1.574081 4.24359,-0.27442 4.24359,2.066009 0,2.888582 -1.47864,3.323982 -3.54272,1.043192 z"
       id="path3844"
       style="fill:#cfd0d1"
       inkscape:connector-curvature="0" />
    <path
       d="M 106.2356,443.61555 C 99.445202,435.88172 96.535471,422.87936 96.586986,400.5 c 0.0338,-14.68215 0.391777,-18.50621 2.625573,-28.04709 1.422541,-6.07591 3.584381,-13.27591 4.804081,-16 4.98377,-11.13085 7.08691,-15.20943 10.508,-20.3779 3.4354,-5.19009 3.54497,-5.62308 2.53064,-10 -1.87141,-8.07524 -4.05587,-26.20752 -4.03576,-33.49908 0.0107,-3.89176 0.66322,-11.91184 1.44997,-17.8224 C 122.11378,217.32434 163.24581,170.75511 219,156.40525 c 5.775,-1.48635 10.83081,-2.9889 11.23514,-3.33899 0.40432,-0.35009 1.19054,-2.87072 1.74715,-5.6014 0.55661,-2.73067 2.10014,-10.13986 3.43008,-16.46486 6.60091,-31.393172 7.87111,-37.70569 10.66464,-53 1.65757,-9.075 4.14562,-23.025 5.52902,-31 3.58247,-20.652291 3.80418,-20.611035 7.3495,1.367598 1.1416,7.077179 2.70614,16.077179 3.47675,20 0.77062,3.922821 2.60419,13.432402 4.0746,21.132402 4.64714,24.3354 10.87157,54.47794 12.49359,60.50172 0.9399,3.49053 0.97894,3.51084 12.22122,6.35616 11.47278,2.90366 28.12338,9.35619 32.93268,12.76224 1.4599,1.03393 2.93205,1.87988 3.27144,1.87988 0.64203,0 7.92477,4.61454 10.56138,6.69197 12.71804,10.02076 18.42883,15.09279 22.98663,20.41553 3.0106,3.51587 5.74029,6.6175 6.06599,6.8925 0.32571,0.275 2.10779,2.75 3.96019,5.5 1.8524,2.75 3.68841,5.225 4.08003,5.5 0.39161,0.275 3.35986,5.675 6.59611,12 10.85692,21.21904 15.44181,40.48118 15.46831,64.98583 0.0177,16.41047 -2.003,29.50598 -6.6714,43.23416 l -3.47086,10.20663 2.7489,2.2325 c 5.26692,4.27749 27.89955,15.14683 37.78929,18.14834 5.47779,1.6625 13.33462,3.54436 17.45962,4.18192 11.67406,1.80433 11.22211,1.51985 8.83692,5.56244 -7.19189,12.18936 -34.51661,25.77835 -60.33692,30.00646 -12.68696,2.07751 -36.13361,1.55656 -44.74176,-0.99409 l -5.74177,-1.70132 -8.25823,5.42902 c -20.43861,13.43646 -43.50305,21.46501 -68.24278,23.75477 -28.53887,2.64138 -61.18249,-5.36825 -86.43154,-21.20735 -6.25697,-3.92508 -18.43989,-12.95952 -20.58392,-15.26432 -3.68209,-3.9582 -4.21274,-3.92933 -9.71239,0.52834 -15.25002,12.3607 -28.33247,27.813 -36.74111,43.39667 -1.78061,3.3 -3.35962,6.12761 -3.50891,6.28359 -0.14929,0.15597 -1.63518,-1.26965 -3.30199,-3.16804 z m 11.40403,-20.25458 c 1.5732,-2.08724 3.53537,-4.51522 4.36037,-5.39551 0.825,-0.88028 3.78928,-4.04513 6.5873,-7.03299 11.30126,-12.06806 27.72209,-25.38105 41.53151,-33.67117 21.82285,-13.10077 36.33497,-17.87319 61.88119,-20.35008 6.325,-0.61325 11.89179,-1.48345 12.37065,-1.93376 0.83682,-0.78695 -2.72978,-5.8501 -26.87065,-38.14567 -6.05,-8.09367 -14.2606,-19.17082 -18.24577,-24.61589 -3.98518,-5.44508 -8.1326,-10.92265 -9.21649,-12.17239 l -1.97071,-2.27225 -7.69418,7.08971 c -4.2318,3.89934 -9.53438,8.33158 -11.78351,9.84942 -7.49594,5.05869 -24.90536,17.748 -27.58934,20.10923 -20.02743,17.61908 -31.17032,35.09379 -37.57363,58.92447 -4.656192,17.32859 -4.548914,44.89341 0.23005,59.11117 2.63207,7.83056 3.18433,7.88552 7.36409,0.73288 2.06731,-3.53769 5.04591,-8.13992 6.61912,-10.22717 z m 279.02819,-21.37713 c 16.41984,-2.66497 36.03298,-10.58107 47.5675,-19.19883 3.15442,-2.35675 5.74192,-4.58296 5.75,-4.94711 0.008,-0.36416 -1.89782,-0.97519 -4.23532,-1.35784 -28.09316,-4.59893 -65.53487,-24.62305 -88.53978,-47.35177 C 347.23366,319.2715 345.80357,317.58091 341.02935,310 c -1.90504,-3.025 -3.71642,-5.725 -4.02527,-6 -0.30885,-0.275 -3.55686,-6.35 -7.2178,-13.5 -3.66094,-7.15 -7.02301,-13 -7.47126,-13 -0.80814,0 -4.06518,4.67318 -30.50119,43.76289 C 284.28644,332.3933 276.07879,344.425 273.57461,348 c -2.50417,3.575 -4.55789,6.98873 -4.56382,7.58607 -0.006,0.59733 3.73244,2.96653 8.30751,5.26487 4.57506,2.29834 14.50788,8.44711 22.07294,13.66393 7.56505,5.21682 13.93808,9.48513 14.16228,9.48513 0.22421,0 2.77888,1.50811 5.67706,3.35136 8.78288,5.58592 21.20009,10.69669 32.04336,13.18864 3.97433,0.91337 7.67606,1.80499 8.22606,1.98139 2.45124,0.78615 31.61037,0.36444 37.16782,-0.53755 z M 266.91124,320.16971 c 4.62619,-6.96834 15.34775,-23.00343 23.8257,-35.63353 11.05234,-16.46531 15.26936,-23.54004 14.90172,-25 -0.282,-1.1199 -3.47154,-10.53851 -7.08786,-20.93025 C 291.96615,219.68449 283.81335,190.88102 278.14128,166.5 273.92411,148.37278 264.49319,101.00023 262.11535,86 c -3.34527,-21.103132 -6.22614,-37.444127 -6.68159,-37.899575 -0.23857,-0.238567 -0.61498,-0.246258 -0.83646,-0.01709 -0.22149,0.229167 -2.26163,11.805316 -4.53365,25.724777 C 246.19368,97.51738 238.24328,138.77891 232.49253,165 c -5.658,25.79814 -16.20634,62.509 -24.4067,84.9414 -1.69721,4.64278 -3.08095,9.14278 -3.07498,10 0.01,1.37703 4.49197,7.90667 31.18217,45.42408 3.46884,4.87601 7.14207,9.82601 8.16274,11 1.02067,1.17399 3.22442,4.15952 4.89722,6.63452 3.3486,4.95444 7.80515,10.04508 8.68411,9.91971 0.3096,-0.0442 4.34797,-5.78165 8.97415,-12.75 z M 444.34745,334.5 c 0.3468,-2.2 0.66712,-5.575 0.71183,-7.5 0.0621,-2.67383 0.26036,-3.04262 0.83992,-1.56234 0.54283,1.38648 1.49851,-1.17362 3.35968,-9 4.85433,-20.41286 7.7022,-42.66814 7.73384,-60.43766 0.0143,-8.02563 -2.85252,-33.16878 -3.87667,-34 -0.33883,-0.275 -0.70091,-2.24986 -0.80462,-4.38857 -0.10371,-2.13871 -0.66621,-4.36621 -1.25,-4.95 C 450.47764,212.07764 450,210.67256 450,209.53902 c 0,-2.36215 -8.21282,-22.15184 -9.88857,-23.82759 C 439.50014,185.10014 439,184.20786 439,183.72858 c 0,-0.47928 -2.1375,-4.1942 -4.75,-8.25538 -3.7666,-5.85526 -5.16406,-7.2916 -6.75,-6.93781 -1.1,0.24538 -1.4375,0.1878 -0.75,-0.12795 0.6875,-0.31576 1.23503,-1.09911 1.21673,-1.74077 -0.0458,-1.6048 -3.54162,-5.66667 -4.87702,-5.66667 -0.59934,0 -1.09018,-0.3375 -1.09075,-0.75 -0.002,-1.16537 -9.92846,-11.23167 -12.90804,-13.08938 -1.46492,-0.91334 -3.54716,-2.48358 -4.6272,-3.48943 -19.17186,-17.85472 -62.29059,-33.38019 -93.84325,-33.7895 -5.01626,-0.0651 -10.47047,-0.42488 -12.12047,-0.79956 -5.46695,-1.24142 8.49389,-1.96196 19.70627,-1.01706 40.09335,3.37879 74.08857,16.42425 97.50536,37.41711 23.10601,20.71426 39.16611,51.50678 43.82019,84.01782 2.36479,16.51924 1.59106,46.73699 -1.54913,60.5 -4.82441,21.14475 -12.05822,46.42893 -13.73282,48 -0.29313,0.275 -0.24921,-1.3 0.0976,-3.5 z m -381.074809,-8 c -2.89546,-9.19775 -7.601914,-27.73973 -9.899249,-39 -2.310526,-11.32493 -2.631227,-50.37476 -0.51684,-62.93238 1.767664,-10.49839 8.303175,-30.1206 13.330856,-40.02455 12.938231,-25.48683 33.894232,-46.95775 57.457722,-58.86952 8.2229,-4.15683 25.94891,-10.61464 35.10505,-12.78922 C 178.99225,108.07685 210.48113,105.4136 216.5,108 c 2.31268,0.99379 3.04965,0.92805 -16.5,1.47187 -17.88708,0.49758 -36.82384,4.52424 -56.5,12.01401 -9.04711,3.4438 -23.78597,11.20467 -27.47078,14.46497 -1.58458,1.40203 -3.86953,3.22415 -5.07767,4.04915 -1.20813,0.825 -2.78433,2.0625 -3.50265,2.75 -0.71832,0.6875 -1.68448,1.25 -2.14702,1.25 -0.46254,0 -5.07326,4.09749 -10.246063,9.10554 -8.503642,8.23281 -9.28646,9.2955 -8.167396,11.0874 1.086904,1.74041 1.012328,1.91033 -0.612127,1.39475 -2.539449,-0.80599 -7.763897,6.3615 -14.665559,20.11987 -7.952334,15.85287 -10.525151,22.27309 -10.986648,27.41614 -0.176525,1.96724 -0.561241,3.98169 -0.854924,4.47655 -0.75637,1.2745 -1.937856,7.05862 -2.308017,11.2992 -0.172861,1.9803 -0.374445,3.60055 -0.447965,3.60055 -0.07352,0 -0.444062,2.25 -0.823427,5 -1.210508,8.77492 -0.497996,40.48383 1.190931,53 2.044975,15.15474 5.943441,32.46425 7.53287,33.44657 0.746472,0.46135 1.089991,2.45136 0.88944,5.15254 l -0.326747,4.40089 -2.203607,-7 z m 381.979539,-7 c -0.0111,-2.2 0.18461,-3.21775 0.4349,-2.26166 0.25029,0.95609 0.25937,2.75609 0.0202,4 C 445.46809,322.48225 445.2633,321.7 445.2522,319.5 z M 64.548341,304 c 0.235986,-7.975 0.847753,-15.85 1.359482,-17.5 0.720946,-2.32459 0.819409,-1.64918 0.437346,3 -0.27119,3.3 -0.882956,11.175 -1.359482,17.5 l -0.86641,11.5 0.429064,-14.5 z m 380.771729,-6 c 0,-3.575 0.1815,-5.0375 0.40333,-3.25 0.22182,1.7875 0.22182,4.7125 0,6.5 -0.22183,1.7875 -0.40333,0.325 -0.40333,-3.25 z M 400,296.05716 C 400,294.88491 404.0141,288 404.69755,288 c 0.275,0 -0.44965,1.60955 -1.61034,3.57677 -1.16069,1.96722 -1.85359,3.99222 -1.53976,4.5 0.31382,0.50778 0.094,0.92323 -0.48843,0.92323 C 400.47656,297 400,296.57572 400,296.05716 z m -293.3125,-3.70299 c -0.37812,-0.37813 -0.68061,-1.175 -0.67219,-1.77084 0.008,-0.59583 0.45842,-0.40833 1,0.41667 0.87528,1.33333 1.10426,1.33333 2.06082,0 0.87668,-1.22199 1.0041,-1.23357 0.6875,-0.0625 -0.45001,1.66455 -2.07834,2.41445 -3.07613,1.41667 z m 298.3443,-5.91304 c 0.0175,-0.51762 0.6925,-1.81464 1.5,-2.88226 0.80751,-1.06762 1.45389,-1.51762 1.4364,-1 -0.0175,0.51762 -0.6925,1.81464 -1.5,2.88226 -0.80751,1.06762 -1.45389,1.51762 -1.4364,1 z M 413.5,284 c 0.99549,-1.1 2.03498,-2 2.30998,-2 0.275,0 -0.31449,0.9 -1.30998,2 -0.99549,1.1 -2.03498,2 -2.30998,2 -0.275,0 0.31449,-0.9 1.30998,-2 z m -308.86756,-1.75 c -5.489935,-10.63998 -6.836182,-15.73106 -7.363871,-27.84787 -1.307834,-30.03051 9.349691,-56.08241 30.047831,-73.45073 17.49314,-14.67894 24.08613,-17.08465 45.99898,-16.7845 l 12.18462,0.16689 -14,0.71477 c -18.90688,0.96529 -22.30612,1.80471 -30.71562,7.58501 -7.73818,5.31885 -20.77275,17.5459 -25.44268,23.86643 -13.03985,17.64883 -20.594726,50.59059 -15.812877,68.94935 0.840857,3.22825 2.822167,8.9478 4.402917,12.7101 2.91669,6.94193 3.28682,9.10269 0.7007,4.09055 z m 338.44651,1.33333 c -0.0434,-1.05416 0.19293,-1.64479 0.52522,-1.3125 0.33229,0.33229 0.36781,1.19479 0.0789,1.91667 -0.31922,0.79773 -0.55618,0.56078 -0.60416,-0.60417 z M 97.244747,281.75 c -3.82089,-4.08626 -9.112609,-13.86093 -11.259835,-20.79875 -1.847765,-5.97025 -2.45246,-6.88257 -4.799518,-7.24123 -2.475219,-0.37824 -2.436584,-0.42208 0.493648,-0.56019 3.045931,-0.14356 3.248026,0.0909 4.826583,5.60017 1.845048,6.4393 8.547834,19.56105 11.748744,23 1.151843,1.2375 1.869261,2.25 1.594259,2.25 -0.275,0 -1.446746,-1.0125 -2.603881,-2.25 z M 416.67097,280 c 2.19868,-2.9019 6.18231,-11.04218 7.82707,-15.99411 1.87527,-5.64589 3.02475,-6.67885 1.95397,-1.75589 -1.09345,5.02712 -6.19832,15.22341 -8.68327,17.34364 -1.22885,1.0485 -1.72285,1.23136 -1.09777,0.40636 z m -7.19251,-2.75 C 411.75285,271.50189 414,259.67384 414,253.45051 414,240.55652 409.37975,220.71146 403.76762,209.5 c -6.60823,-13.20136 -18.58092,-26.52498 -32.09469,-35.71605 -3.20489,-2.17973 -5.59862,-4.19159 -5.3194,-4.47081 0.27921,-0.27921 4.70139,2.42864 9.82706,6.01745 18.2127,12.75186 27.87995,25.75616 34.69354,46.66941 3.24523,9.96073 4.96379,25.82544 3.97507,36.69539 C 414.11059,266.81558 410.79332,279 409.32116,279 c -0.29432,0 -0.22354,-0.7875 0.1573,-1.75 z m 29.60049,-9.66667 c -0.0434,-1.05416 0.19293,-1.64479 0.52522,-1.3125 0.33229,0.33229 0.36781,1.19479 0.0789,1.91667 -0.31922,0.79773 -0.55618,0.56078 -0.60416,-0.60417 z m -367.000003,-5 c -0.04342,-1.05416 0.192928,-1.64479 0.52522,-1.3125 0.332291,0.33229 0.367818,1.19479 0.07895,1.91667 -0.319226,0.79773 -0.556183,0.56078 -0.604167,-0.60417 z M 433.4406,257.90388 c -0.3726,-0.60286 -1.97415,-0.9058 -3.55902,-0.67319 -1.58487,0.23261 -2.88158,0.0509 -2.88158,-0.40388 0,-1.44017 5.7011,-0.89189 7,0.67319 0.68469,0.825 0.99135,1.5 0.68146,1.5 -0.30988,0 -0.86827,-0.49325 -1.24086,-1.09612 z M 62,235 c 0,-1.65 0.173925,-3 0.386501,-3 0.212575,0 0.584638,1.35 0.826807,3 0.242168,1.65 0.06824,3 -0.386501,3 C 62.372063,238 62,236.65 62,235 z m -0.5,-9 c -0.339919,-0.55 -0.141476,-1 0.440983,-1 C 62.523442,225 63,225.45 63,226 c 0,0.55 -0.198442,1 -0.440983,1 -0.242541,0 -0.719098,-0.45 -1.059017,-1 z m 387.05974,-1.618 c -0.92203,-3.67366 -0.19092,-3.89253 1.14856,-0.34383 0.61489,1.629 0.75584,2.96183 0.31324,2.96183 -0.4426,0 -1.10041,-1.1781 -1.4618,-2.618 z M 67,211.55902 c 0,-0.24254 0.45,-0.7191 1,-1.05902 0.55,-0.33992 1,-0.14148 1,0.44098 C 69,211.52344 68.55,212 68,212 c -0.55,0 -1,-0.19844 -1,-0.44098 z M 71.786692,197 c 0.242169,-1.65 0.614232,-3 0.826807,-3 C 72.826075,194 73,195.35 73,197 c 0,1.65 -0.372063,3 -0.826807,3 -0.454744,0 -0.628669,-1.35 -0.386501,-3 z m 368.292258,0.58333 c -0.0434,-1.05416 0.19293,-1.64479 0.52522,-1.3125 0.33229,0.33229 0.36781,1.19479 0.0789,1.91667 -0.31922,0.79773 -0.55618,0.56078 -0.60416,-0.60417 z m -1.91651,-6.12616 c -1.67549,-3.67729 -1.35583,-4.46179 0.45586,-1.11876 0.84602,1.56112 1.3511,3.02552 1.1224,3.25422 -0.2287,0.2287 -0.93892,-0.73225 -1.57826,-2.13546 z M 356.5,167.85038 c -2.2,-0.5218 -8.95,-1.34914 -15,-1.83853 l -11,-0.88981 12.5,0.4206 c 6.875,0.23133 14.75,1.06363 17.5,1.84956 5.6154,1.60484 2.39153,1.97412 -4,0.45818 z M 186.69424,163.41493 C 185.15107,162.08672 184.29471,161 184.79123,161 c 1.16372,0 5.65962,3.88303 5.11909,4.42127 -0.22567,0.22472 -1.67291,-0.67813 -3.21608,-2.00634 z M 177,159 c -0.825,-0.53316 -1.05,-0.96937 -0.5,-0.96937 0.55,0 1.675,0.43621 2.5,0.96937 0.825,0.53316 1.05,0.96937 0.5,0.96937 -0.55,0 -1.675,-0.43621 -2.5,-0.96937 z m 160.27083,0.39583 c 0.33229,-0.33229 1.19479,-0.36781 1.91667,-0.0789 0.79773,0.31922 0.56078,0.55618 -0.60417,0.60416 -1.05416,0.0434 -1.64479,-0.19293 -1.3125,-0.52522 z M 343,157.87946 c 1.375,-0.59838 7.675,-1.23314 14,-1.41058 l 11.5,-0.32262 -10.1274,0.79258 c -5.57007,0.43592 -11.87007,1.07068 -14,1.41058 -3.38064,0.53949 -3.55501,0.47979 -1.3726,-0.46996 z m 68,-0.82044 C 411,156.47656 411.45,156 412,156 c 0.55,0 1,0.19844 1,0.44098 0,0.24254 -0.45,0.7191 -1,1.05902 -0.55,0.33992 -1,0.14148 -1,-0.44098 z M 156.33167,156.0771 c -6.14259,-0.3174 -11.54259,-0.97224 -12,-1.45519 -1.25634,-1.32647 22.60915,-0.0811 23.93948,1.24924 0.62087,0.62087 0.70135,1.05105 0.17885,0.95595 -0.5225,-0.0951 -5.97575,-0.43259 -12.11833,-0.75 z M 101,154.55902 c 0,-0.24254 0.45,-0.7191 1,-1.05902 0.55,-0.33992 1,-0.14148 1,0.44098 0,0.58246 -0.45,1.05902 -1,1.05902 -0.55,0 -1,-0.19844 -1,-0.44098 z M 406,151.5 c -0.68469,-0.825 -0.93265,-1.5 -0.55102,-1.5 0.38163,0 1.36888,0.675 2.19388,1.5 0.825,0.825 1.07295,1.5 0.55101,1.5 -0.52194,0 -1.50918,-0.675 -2.19387,-1.5 z m -262.92105,-3.91667 c -0.0434,-1.05416 0.19292,-1.64479 0.52522,-1.3125 0.33229,0.33229 0.36781,1.19479 0.0789,1.91667 -0.31922,0.79773 -0.55618,0.56078 -0.60416,-0.60417 z M 365.40499,142.75 363.5,140.5 l 2.25,1.90499 c 1.2375,1.04774 2.25,2.06024 2.25,2.25 0,0.80025 -0.80479,0.20945 -2.59501,-1.90499 z m -9.09923,-7.32295 -2.80576,-2.57296 3.25,2.26101 c 1.7875,1.24356 3.25,2.40139 3.25,2.57296 0,0.78934 -1.10612,0.11236 -3.69424,-2.26101 z M 157,134.39553 c 0,-0.50294 0.9,-1.4765 2,-2.16346 1.1,-0.68696 2,-1.08995 2,-0.89553 0,0.19442 -0.9,1.16797 -2,2.16346 -1.1,0.99549 -2,1.39848 -2,0.89553 z m 14.22619,-9.96919 c 0.94941,-0.99401 2.00045,-1.53304 2.33565,-1.19784 0.3352,0.3352 -0.44159,1.14849 -1.72619,1.80729 -2.23286,1.14512 -2.25968,1.1183 -0.60946,-0.60945 z m 168.21494,0.10546 c -1.06762,-0.8075 -1.43373,-1.4825 -0.81357,-1.5 0.62015,-0.0175 1.68775,0.6432 2.37244,1.4682 1.58079,1.90474 0.9348,1.91792 -1.55887,0.0318 z m -163.7078,-2.65589 c 0.67834,-0.68342 1.48524,-0.99067 1.79313,-0.68278 0.30789,0.30789 -0.24711,0.86705 -1.23333,1.24258 -1.4252,0.54268 -1.54006,0.42782 -0.5598,-0.5598 z M 335,122 c -0.90129,-0.58246 -1.02463,-0.97549 -0.30902,-0.98469 0.65504,-0.008 1.4691,0.43469 1.80902,0.98469 0.7673,1.24153 0.42112,1.24153 -1.5,0 z m -153.91667,-2.38348 c 0.90363,-0.83164 20.1604,-7.70612 20.53554,-7.33098 0.22009,0.22008 -4.03655,2.04588 -9.4592,4.05731 -9.04684,3.35576 -12.16777,4.27817 -11.07634,3.27367 z M 326.5,118.94814 c -1.1,-0.50408 -3.29991,-1.38621 -4.88869,-1.9603 -1.58878,-0.57409 -2.67669,-1.25579 -2.41759,-1.51489 0.2591,-0.2591 3.13401,0.63447 6.38869,1.98571 3.25467,1.35124 5.24259,2.44537 4.41759,2.43139 -0.825,-0.014 -2.4,-0.43784 -3.5,-0.94191 z M 315,114 c -0.825,-0.53316 -1.05,-0.96937 -0.5,-0.96937 0.55,0 1.675,0.43621 2.5,0.96937 0.825,0.53316 1.05,0.96937 0.5,0.96937 -0.55,0 -1.675,-0.43621 -2.5,-0.96937 z"
       id="path3842"
       style="fill:#aaaeb1"
       inkscape:connector-curvature="0" />
    <path
       d="m 232.5,420.05946 c -12.60612,-2.23998 -29.10474,-7.75365 -39.20358,-13.10143 -13.52971,-7.16459 -27.26743,-17.2255 -27.25177,-19.95803 0.0197,-3.43087 25.78324,-16.68317 40.85642,-21.01576 5.69415,-1.63671 15.90422,-3.4438 25.09893,-4.44227 20.65566,-2.24305 20.2602,-2.14681 19.43995,-4.73119 -0.61033,-1.92296 -11.92782,-17.75922 -22.72233,-31.79473 -3.61573,-4.70133 -17.96934,-24.09811 -34.60686,-46.76605 -2.52301,-3.4375 -5.22133,-6.25 -5.99626,-6.25 -0.77493,0 -3.97546,2.5875 -7.11228,5.75 -3.13681,3.1625 -11.05806,9.5451 -17.60276,14.18356 -6.5447,4.63846 -15.27446,10.82738 -19.39946,13.75314 -4.125,2.92576 -9.69064,7.34316 -12.36809,9.81643 -2.67745,2.47328 -5.214,4.49687 -5.63677,4.49687 -1.7582,0 -3.49412,-14.23901 -3.47453,-28.5 0.0231,-16.84061 1.17113,-24.14879 6.18196,-39.35462 6.46334,-19.6136 15.99067,-34.90393 31.26499,-50.17688 11.20277,-11.20176 22.84569,-19.62414 36.12761,-26.13436 C 205.00388,171.46748 220.85681,166 224.60923,166 c 2.61377,0 2.62692,0.301 0.39317,9 -0.4943,1.925 -1.85529,7.325 -3.02442,12 -4.20984,16.83391 -11.25447,40.77645 -16.18268,55 -2.76319,7.975 -5.2471,15.49738 -5.5198,16.71639 -0.47628,2.12909 2.75309,7.04693 24.67816,37.58116 12.13843,16.90472 29.13545,39.47311 30.99805,41.15875 1.24074,1.12285 2.42935,1.51856 2.91386,0.97007 0.75676,-0.8567 20.34531,-29.71899 31.16977,-45.92637 13.32912,-19.9576 19.96395,-30.67942 19.95767,-32.25139 -0.004,-0.96174 -2.06966,-7.82361 -4.59069,-15.24861 -10.70053,-31.5154 -23.11185,-77.46828 -21.42145,-79.3129 0.40971,-0.4471 3.51577,-0.0949 6.90234,0.78264 48.93089,12.67926 86.05169,50.91143 96.63705,99.53026 2.21507,10.17389 3.0282,32.75258 1.5549,43.1762 C 386.78692,325.36561 382.03597,340 379.06845,340 c -2.49806,0 -20.1245,-15.01203 -26.983,-22.98079 -7.81972,-9.08558 -9.7898,-12.21217 -19.54533,-31.01921 -5.62047,-10.83532 -8.55546,-15.5 -9.7525,-15.5 -1.11855,0 -7.20574,8.14952 -17.55308,23.5 -8.71238,12.925 -21.98443,32.5739 -29.49343,43.66423 -10.12406,14.95259 -13.34108,20.42055 -12.44692,21.15597 0.66319,0.54546 4.58081,2.59917 8.70581,4.56381 4.125,1.96464 12,6.72502 17.5,10.57861 20.24058,14.18165 24.44887,16.95762 31.94013,21.06906 4.2074,2.30915 7.4819,4.70222 7.27667,5.31793 -1.05752,3.17255 -21.53392,12.83283 -35.07608,16.54807 -19.36414,5.31247 -42.34809,6.50105 -61.14072,3.16178 z"
       id="path3840"
       style="fill:#e8302a"
       inkscape:connector-curvature="0" />
  </g>
</svg>
